<?xml version="1.0" encoding="utf-8"?>
<!-- Generator: Adobe Illustrator 21.0.2, SVG Export Plug-In . SVG Version: 6.00 Build 0)  -->
<svg version="1.1" id="Layer_1" xmlns="http://www.w3.org/2000/svg" xmlns:xlink="http://www.w3.org/1999/xlink" x="0px" y="0px"
	 viewBox="0 0 35.2 27.9" style="enable-background:new 0 0 35.2 27.9;" xml:space="preserve">
<style type="text/css">
	.st0{fill:#009CDE;}
</style>
<title>icon.mkt.Asset 12</title>
<g>
	<g>
		<g>
			<path class="st0" d="M3,23.8c-0.3,0-0.5-0.2-0.5-0.5v-13c0-0.1,0.1-0.3,0.1-0.3C2.8,9.9,2.9,9.8,3,9.8l29,0.1
				c0,0,2.2-0.2,2.2-1.6c0-0.5-0.3-1-0.7-1.1L17.4,1c-0.3-0.1-0.4-0.4-0.3-0.6c0.1-0.3,0.4-0.4,0.6-0.3l16,6.2
				c0.8,0.3,1.3,1.1,1.4,2c0.1,1.9-2,2.5-3.1,2.6L3.5,10.8v12.6C3.5,23.6,3.3,23.8,3,23.8z"/>
		</g>
		<g>
			<path class="st0" d="M0.6,8.8c-0.3,0-0.5-0.2-0.5-0.5c0-0.9,0.5-1.7,1.4-2l15.9-6.2c0.2-0.1,0.5,0,0.6,0.3c0.1,0.3,0,0.5-0.3,0.6
				L1.8,7.2C1.4,7.4,1.1,7.8,1.1,8.3C1.1,8.6,0.9,8.8,0.6,8.8C0.6,8.8,0.6,8.8,0.6,8.8z"/>
		</g>
		<g>
			<path class="st0" d="M34.1,27.8h-33c-0.3,0-0.5-0.2-0.5-0.5s0.2-0.5,0.5-0.5h33l0-2.7l-31,0c-0.3,0-0.5-0.2-0.5-0.5
				c0-0.3,0.2-0.5,0.5-0.5h31c0.5,0,1,0.4,1,1v2.7C35.1,27.4,34.7,27.8,34.1,27.8z"/>
		</g>
		<g>
			<g>
				<path class="st0" d="M32.1,24.1c-0.3,0-0.5-0.2-0.5-0.5v-11c0-0.3,0.2-0.5,0.5-0.5c0.3,0,0.5,0.2,0.5,0.5v11
					C32.6,23.9,32.4,24.1,32.1,24.1z"/>
			</g>
			<g>
				<path class="st0" d="M22.5,24.1c-0.3,0-0.5-0.2-0.5-0.5v-11c0-0.3,0.2-0.5,0.5-0.5s0.5,0.2,0.5,0.5v11
					C22.9,23.9,22.7,24.1,22.5,24.1z"/>
			</g>
			<g>
				<path class="st0" d="M27.3,24.1c-0.3,0-0.5-0.2-0.5-0.5v-11c0-0.3,0.2-0.5,0.5-0.5s0.5,0.2,0.5,0.5v11
					C27.8,23.9,27.6,24.1,27.3,24.1z"/>
			</g>
			<g>
				<path class="st0" d="M12.8,24.1c-0.3,0-0.5-0.2-0.5-0.5v-11c0-0.3,0.2-0.5,0.5-0.5c0.3,0,0.5,0.2,0.5,0.5v11
					C13.3,23.9,13,24.1,12.8,24.1z"/>
			</g>
			<g>
				<path class="st0" d="M7.9,24.1c-0.3,0-0.5-0.2-0.5-0.5v-11c0-0.3,0.2-0.5,0.5-0.5c0.3,0,0.5,0.2,0.5,0.5v11
					C8.4,23.9,8.2,24.1,7.9,24.1z"/>
			</g>
			<g>
				<path class="st0" d="M17.6,24.1c-0.3,0-0.5-0.2-0.5-0.5v-11c0-0.3,0.2-0.5,0.5-0.5s0.5,0.2,0.5,0.5v11
					C18.1,23.9,17.9,24.1,17.6,24.1z"/>
			</g>
		</g>
	</g>
</g>
</svg>
