<svg xmlns="http://www.w3.org/2000/svg" xmlns:xlink="http://www.w3.org/1999/xlink" xmlns:fi="http://pattern.flaticon.com/" x="0" y="0" width="1000" height="500" viewBox="0 0 1750 875"><rect x="0px" y="0px" width="100%" height="100%" opacity="0.02" fill="#ffffff"/><defs><g transform="matrix(-0.1171875 0 0 0.1171875 270 151)" id="L1_3"><path d="m404.757812 226.589844 19.222657-19.222656c4.226562-4.222657 5.488281-10.574219 3.203125-16.097657-2.285156-5.515625-7.671875-9.117187-13.644532-9.117187h-24.613281v-24.613282c0-40.71875-33.128906-73.847656-73.847656-73.847656h-38.320313c-23.207031-49.398437-73.433593-83.691406-131.527343-83.691406-80.082031 0-145.230469 65.148438-145.230469 145.230469 0 66.941406 45.527344 123.4375 107.242188 140.179687l-19.222657 19.222656c-4.226562 4.222657-5.488281 10.574219-3.203125 16.097657 2.285156 5.519531 7.671875 9.117187 13.644532 9.117187h24.617187v24.613282c0 40.71875 33.125 73.847656 73.84375 73.847656h38.320313c23.207031 49.398437 73.433593 83.691406 131.527343 83.691406 80.082031 0 145.230469-65.148438 145.230469-145.230469 0-66.941406-45.527344-123.4375-107.242188-140.179687zm-375.21875-81.359375c0-63.792969 51.898438-115.691407 115.691407-115.691407s115.691406 51.898438 115.691406 115.691407-51.898437 115.691406-115.691406 115.691406-115.691407-51.898437-115.691407-115.691406zm167.382813 253.539062c-24.429687 0-44.304687-19.875-44.304687-44.308593v-24.613282h29.535156c6.132812 0 11.628906-3.789062 13.808594-9.523437 2.179687-5.730469.589843-12.210938-3.996094-16.285157l-18.402344-16.359374c66.5625-13.21875 116.898438-72.0625 116.898438-142.449219 0-10.992188-1.234376-21.699219-3.558594-32h28.175781c24.429687 0 44.304687 19.875 44.304687 44.308593v24.613282h-29.535156c-6.132812 0-11.628906 3.789062-13.808594 9.523437-2.179687 5.730469-.589843 12.210938 3.996094 16.285157l18.402344 16.359374c-66.5625 13.21875-116.898438 72.0625-116.898438 142.449219 0 10.992188 1.234376 21.699219 3.558594 32zm169.847656 83.691407c-63.792969 0-115.691406-51.898438-115.691406-115.691407s51.898437-115.691406 115.691406-115.691406 115.691407 51.898437 115.691407 115.691406-51.898438 115.691407-115.691407 115.691407zm0 0" fill="#afb9d2"/><path d="m437.34375 372.839844-18.882812-2.890625v-6.363281l18.882812-2.890626c8.742188-1.335937 14.464844-10.386718 11.90625-18.867187-5.238281-17.34375-16.125-32.925781-30.652344-43.882813-15.035156-11.335937-32.957031-17.328124-51.828125-17.328124-18.875 0-36.796875 5.992187-51.828125 17.328124-14.527344 10.957032-25.414062 26.539063-30.652344 43.882813-2.515624 8.324219 2.957032 17.253906 11.503907 18.804687l14.359375 2.605469v7.0625l-14.359375 2.605469c-8.546875 1.550781-14.019531 10.476562-11.503907 18.804688 5.238282 17.339843 16.125 32.925781 30.652344 43.882812 15.03125 11.335938 32.953125 17.328125 51.828125 17.328125 18.871094 0 36.792969-5.992187 51.828125-17.328125 14.527344-10.957031 25.414063-26.542969 30.652344-43.882812 2.558594-8.480469-3.164062-17.535157-11.90625-18.871094zm-35.886719 24.390625 11.796875 1.804687c-10.417968 14.875-27.742187 24.347656-46.484375 24.347656-18.945312 0-36.445312-9.679687-46.824219-24.835937l7.613282-1.382813c7.027344-1.273437 12.132812-7.390624 12.132812-14.53125v-31.726562c0-7.140625-5.109375-13.257812-12.132812-14.53125l-7.613282-1.382812c10.378907-15.15625 27.878907-24.839844 46.824219-24.839844 18.742188 0 36.066407 9.476562 46.484375 24.351562l-11.792968 1.804688c-7.210938 1.101562-12.535157 7.304687-12.535157 14.597656v31.726562c-.003906 7.292969 5.320313 13.496094 12.53125 14.597657zm0 0" fill="#afb9d2"/><path d="m160 224v-19.972656c22.121094-2.457032 39.382812-21.261719 39.382812-44.027344v-14.769531c0-8.15625-6.609374-14.769531-14.765624-14.769531h-64c0-8.144532 6.625-14.769532 14.765624-14.769532h49.234376c8.15625 0 14.765624-6.613281 14.765624-14.769531s-6.609374-14.769531-14.765624-14.769531h-24.617188v-19.691406c0-8.15625-6.613281-14.769532-14.769531-14.769532s-14.769531 6.613282-14.769531 14.769532v19.972656c-22.121094 2.457031-39.382813 21.261718-39.382813 44.027344v14.769531c0 8.15625 6.613281 14.769531 14.769531 14.769531h64c0 8.144531-6.628906 14.769531-14.769531 14.769531h-49.230469c-8.15625 0-14.769531 6.613281-14.769531 14.769531s6.613281 14.769532 14.769531 14.769532h24.613282v19.691406c0 8.15625 6.613281 14.769531 14.769531 14.769531s14.769531-6.613281 14.769531-14.769531zm0 0" fill="#afb9d2"/></g><g transform="matrix(0.1171875 0 0 0.1171875 191 173)" id="L1_4"><g><rect x="123px" y="282px" width="17px" height="203px" fill="#eff2fa"/><rect x="70px" y="379px" width="17px" height="105px" fill="#eff2fa"/><rect x="176px" y="211px" width="17px" height="273px" fill="#eff2fa"/><rect x="229px" y="406px" width="17px" height="79px" fill="#eff2fa"/><rect x="282px" y="370px" width="17px" height="114px" fill="#eff2fa"/><rect x="335px" y="317px" width="17px" height="167px" fill="#eff2fa"/><rect x="388px" y="35px" width="17px" height="450px" fill="#eff2fa"/><rect x="441px" y="423px" width="17px" height="61px" fill="#eff2fa"/></g><path d="M450.207,432.556c-0.922,0-1.866-0.147-2.793-0.457l-158.897-52.966  c-1.863-0.621-3.462-1.845-4.552-3.478l-99.009-148.513l-45.483,60.638c-2.69,3.582-7.647,4.586-11.509,2.327L22.034,228.314  c-4.211-2.457-5.633-7.862-3.177-12.073c2.461-4.207,7.858-5.633,12.073-3.177l99.138,57.832l48.25-64.332  c1.716-2.293,4.396-3.729,7.306-3.526c2.862,0.077,5.508,1.543,7.1,3.927l104.25,156.375L453,415.35  c4.625,1.543,7.125,6.543,5.582,11.168C457.35,430.216,453.905,432.556,450.207,432.556z" fill="#afb9d2"/><path d="M26.474,494.345c-1.323,0-2.673-0.298-3.939-0.931c-4.362-2.181-6.13-7.482-3.948-11.844  l52.966-105.931c1.732-3.47,5.543-5.388,9.35-4.759l155.168,25.863l100.142-75.107l52.345-287.901  c0.871-4.793,5.465-7.957,10.263-7.107c4.798,0.871,7.978,5.47,7.107,10.263L352.962,328.2c-0.396,2.189-1.608,4.151-3.388,5.483  l-105.931,79.448c-1.931,1.452-4.366,2.056-6.75,1.646L84.427,389.366L34.38,489.465C32.832,492.561,29.716,494.345,26.474,494.345z  " fill="#8f96ac"/><g><path d="M26.483,441.379H8.828c-4.875,0-8.828-3.953-8.828-8.828l0,0c0-4.875,3.953-8.828,8.828-8.828   h17.655V441.379z" fill="#d7deed"/><path d="M26.483,388.414H8.828c-4.875,0-8.828-3.953-8.828-8.828l0,0c0-4.875,3.953-8.828,8.828-8.828   h17.655V388.414z" fill="#d7deed"/><path d="M26.483,335.448H8.828c-4.875,0-8.828-3.953-8.828-8.828l0,0c0-4.875,3.953-8.828,8.828-8.828   h17.655V335.448z" fill="#d7deed"/><path d="M26.483,282.483H8.828c-4.875,0-8.828-3.953-8.828-8.828l0,0c0-4.875,3.953-8.828,8.828-8.828   h17.655V282.483z" fill="#d7deed"/><path d="M26.483,229.517H8.828c-4.875,0-8.828-3.953-8.828-8.828l0,0c0-4.875,3.953-8.828,8.828-8.828   h17.655V229.517z" fill="#d7deed"/><path d="M26.483,176.552H8.828c-4.875,0-8.828-3.953-8.828-8.828l0,0c0-4.875,3.953-8.828,8.828-8.828   h17.655V176.552z" fill="#d7deed"/><path d="M26.483,123.586H8.828c-4.875,0-8.828-3.953-8.828-8.828l0,0c0-4.875,3.953-8.828,8.828-8.828   h17.655V123.586z" fill="#d7deed"/><path d="M26.483,70.621H8.828C3.953,70.621,0,66.668,0,61.793l0,0c0-4.875,3.953-8.828,8.828-8.828h17.655   V70.621z" fill="#d7deed"/><path d="M459.034,485.517v17.655c0,4.875-3.953,8.828-8.828,8.828l0,0c-4.875,0-8.828-3.953-8.828-8.828   v-17.655H459.034z" fill="#d7deed"/><path d="M406.069,485.517v17.655c0,4.875-3.953,8.828-8.828,8.828l0,0c-4.875,0-8.828-3.953-8.828-8.828   v-17.655H406.069z" fill="#d7deed"/><path d="M353.103,485.517v17.655c0,4.875-3.953,8.828-8.828,8.828l0,0c-4.875,0-8.828-3.953-8.828-8.828   v-17.655H353.103z" fill="#d7deed"/><path d="M300.138,485.517v17.655c0,4.875-3.953,8.828-8.828,8.828l0,0c-4.875,0-8.828-3.953-8.828-8.828   v-17.655H300.138z" fill="#d7deed"/><path d="M247.172,485.517v17.655c0,4.875-3.953,8.828-8.828,8.828l0,0c-4.875,0-8.828-3.953-8.828-8.828   v-17.655H247.172z" fill="#d7deed"/><path d="M194.207,485.517v17.655c0,4.875-3.953,8.828-8.828,8.828l0,0c-4.875,0-8.828-3.953-8.828-8.828   v-17.655H194.207z" fill="#d7deed"/><path d="M141.241,485.517v17.655c0,4.875-3.953,8.828-8.828,8.828l0,0c-4.875,0-8.828-3.953-8.828-8.828   v-17.655H141.241z" fill="#d7deed"/><path d="M88.276,485.517v17.655c0,4.875-3.953,8.828-8.828,8.828l0,0c-4.875,0-8.828-3.953-8.828-8.828   v-17.655H88.276z" fill="#d7deed"/></g><g><path d="M26.483,512L26.483,512c-4.875,0-8.828-3.953-8.828-8.828V8.828C17.655,3.953,21.608,0,26.483,0l0,0   c4.875,0,8.828,3.953,8.828,8.828v494.345C35.31,508.047,31.358,512,26.483,512z" fill="#c7cfe2"/><path d="M0,485.517L0,485.517c0-4.875,3.953-8.828,8.828-8.828h494.345c4.875,0,8.828,3.953,8.828,8.828l0,0   c0,4.875-3.953,8.828-8.828,8.828H8.828C3.953,494.345,0,490.392,0,485.517z" fill="#c7cfe2"/></g><circle cx="79" cy="379" r="17" fill="#ff6464"/><g><circle cx="132" cy="282" r="17" fill="#c3e678"/><circle cx="185" cy="211" r="17" fill="#c3e678"/><circle cx="291" cy="370" r="17" fill="#c3e678"/><circle cx="450" cy="423" r="17" fill="#c3e678"/></g><g><circle cx="238" cy="406" r="17" fill="#ff6464"/><circle cx="344" cy="326" r="17" fill="#ff6464"/><circle cx="397" cy="35" r="17" fill="#ff6464"/></g></g><g transform="matrix(0.14226572215557098 0 0 0.14226572215557098 286 82)" id="L1_5"><path d="m358.002 71.103h-358.002v279.54h421.746v-215.797z" fill="#ebf0f3"/><path d="m44.915 109.369v197.932h327.958v-197.932zm325.318 37.049h-41.211v-34.764h41.211zm-281.469 42.733v37.963h-41.209v-37.963zm-41.209-2.437v-38.014h41.211v38.014zm41.209 42.834v38.014h-41.209v-38.014zm192.857-2.435v-37.963h44.865v37.963zm44.864 2.435v38.014h-44.966v-38.014zm-44.864-42.834v-38.014h44.865v38.014zm-47.555 40.602v-38.165h44.814v37.963zm44.916 2.436v38.014h-45.017v-38.217zm-44.916-42.835v-38.216h44.814v38.014zm0-40.601v-34.662h44.814v34.613zm-47.604 80.797v-37.963h44.712v37.963zm44.865 2.435v38.014h-44.865v-38.014zm-44.865-42.834v-38.014h44.712v38.014zm0-40.601v-34.46h44.712v34.613zm-47.555 81v-37.963h44.915v37.963zm44.916 2.435v38.014h-44.915v-38.014zm-44.916-42.834v-38.014h44.915v38.014zm0-40.601v-34.46h44.915v34.613zm-47.503 81v-37.963h44.915v37.963zm44.915 2.435v38.014h-44.915v-38.014zm-44.915-42.834v-38.014h44.915v38.014zm0-40.601v-34.46h44.915v34.613zm44.915 123.732v34.563h-44.915v-34.41zm2.588 0h44.915v34.563h-44.915zm47.555 0h44.712v34.563h-44.712zm47.503 0h44.915v34.563h-44.915zm47.554 0h44.865v34.563h-44.865zm0-123.732v-34.46h44.865v34.613zm47.504 83.284h41.211v38.014h-41.211zm0-2.437v-37.81h41.211v37.963zm0-40.601v-37.658h41.211v38.014zm-240.259-74.706v34.613h-41.209v-34.613zm-41.209 158.345h41.211v34.562h-41.211zm281.468 34.562v-34.562h41.211v34.562z" fill="#d5d6db"/><path d="m18.524 114.597h11.166v3.045h-11.166z" fill="#3a556a"/><path d="m18.524 141.647h11.166v3.045h-11.166z" fill="#3a556a"/><path d="m18.524 168.697h11.166v3.045h-11.166z" fill="#3a556a"/><path d="m18.524 195.749h11.166v3.045h-11.166z" fill="#3a556a"/><path d="m18.524 222.799h11.166v3.045h-11.166z" fill="#3a556a"/><path d="m18.524 249.9h11.166v3.045h-11.166z" fill="#3a556a"/><path d="m18.524 276.952h11.166v3.045h-11.166z" fill="#3a556a"/><path d="m18.524 304.002h11.166v3.045h-11.166z" fill="#3a556a"/><g fill="#d5d6db"><path d="m50.752 317.958h5.786v5.786h-5.786z"/><path d="m61.916 317.958h5.786v5.786h-5.786z"/><path d="m93.739 317.958h5.786v5.786h-5.786z"/><path d="m104.903 317.958h5.786v5.786h-5.786z"/><path d="m136.674 317.958h5.786v5.786h-5.786z"/><path d="m147.839 317.958h5.786v5.786h-5.786z"/><path d="m179.661 317.958h5.786v5.786h-5.786z"/><path d="m190.826 317.958h5.786v5.786h-5.786z"/><path d="m222.597 317.958h5.786v5.786h-5.786z"/><path d="m233.762 317.958h5.786v5.786h-5.786z"/><path d="m265.533 317.958h5.786v5.786h-5.786z"/><path d="m276.748 317.958h5.786v5.786h-5.786z"/><path d="m308.519 317.958h5.786v5.786h-5.786z"/><path d="m319.684 317.958h5.786v5.786h-5.786z"/><path d="m351.455 317.958h5.786v5.786h-5.786z"/><path d="m362.671 317.958h5.786v5.786h-5.786z"/><path d="m358.002 134.846h63.744l-63.744-63.743z"/></g><path d="m236.451 273.653-63.236-74.25-62.628 57.044-64.859-65.52 3.603-3.603 61.409 62.069 62.932-57.248 63.237 74.199 66.991-61.612 55.016 46.235-3.299 3.908-51.615-43.394z" fill="#27a2db"/><path d="m303.749 257.614-53.34-91.86-132.462-16.748-59.228 100.843-4.364-2.588 60.902-103.736 138.298 17.509 50.599 87.192 56.436-79.478 4.111 2.944z" fill="#e56353"/><path d="m172.81 183.72c-8.184 0-14.819 6.635-14.819 14.819s6.635 14.819 14.819 14.819 14.819-6.635 14.819-14.819c.028-8.156-6.561-14.791-14.718-14.819-.034 0-.068 0-.101 0z" fill="#27a2db"/><path d="m355.464 234.928c-8.184-.028-14.842 6.584-14.87 14.768s6.584 14.842 14.768 14.87 14.842-6.584 14.87-14.769c0-.033 0-.068 0-.101.001-8.155-6.611-14.768-14.768-14.768z" fill="#27a2db"/><path d="m235.793 257.614c-6.839 0-12.383 5.544-12.383 12.383s5.544 12.384 12.383 12.383c6.839 0 12.383-5.544 12.383-12.383-.001-6.838-5.545-12.383-12.383-12.383z" fill="#27a2db"/><path d="m362.011 158.953c-6.839 0-12.384 5.544-12.383 12.383 0 6.839 5.544 12.383 12.384 12.383 6.839 0 12.383-5.544 12.383-12.383s-5.544-12.383-12.384-12.383z" fill="#e56353"/><circle cx="116" cy="148" r="12" fill="#e56353"/><path d="m303.951 235.842c-9.446-.028-17.125 7.607-17.153 17.053s7.607 17.125 17.053 17.153 17.125-7.607 17.153-17.053c0-.034 0-.068 0-.102.028-9.39-7.561-17.025-16.951-17.053-.034.002-.067.002-.102.002z" fill="#e56353"/><path d="m251.068 146.266c-10.791-.028-19.562 8.698-19.59 19.489s8.698 19.562 19.489 19.59 19.562-8.698 19.59-19.489c0-.033 0-.068 0-.102 0-10.764-8.726-19.488-19.489-19.488z" fill="#e56353"/><path d="m303.951 198.794c-5.998 0-10.861 4.862-10.861 10.861s4.862 10.861 10.861 10.861c5.998 0 10.861-4.862 10.861-10.861.001-5.999-4.862-10.861-10.861-10.861z" fill="#27a2db"/><path d="m111.146 234.928c-9.95 0-18.017 8.067-18.017 18.017s8.067 18.017 18.017 18.017 18.017-8.067 18.017-18.017c0-.017 0-.034 0-.051 0-9.922-8.044-17.966-17.966-17.966-.017 0-.034 0-.051 0z" fill="#27a2db"/></g><g transform="matrix(0.31391918659210205 0 0 0.31391918659210205 147 234)" id="L1_6"><path d="m133.456 0h-102.302c-6.114 0-11.069 4.955-11.069 11.069v168.993c0 6.114 4.955 11.069 11.069 11.069h128.823c6.114 0 11.069-4.955 11.069-11.069v-142.472z" fill="#e1e6e9"/><path d="m144.525 37.59h26.521l-37.565-37.565v26.496c0 6.104 4.941 11.055 11.044 11.069z" fill="#ebf0f3"/><g fill="#3a556a"><path d="m42.599 60.73h5.635v1.427h-5.635z"/><path d="m42.599 72.15h5.635v1.427h-5.635z"/><path d="m42.599 83.595h5.635v1.427h-5.635z"/><path d="m42.599 95.015h5.635v1.427h-5.635z"/><path d="m42.599 106.46h5.635v1.427h-5.635z"/><path d="m42.573 117.904h5.635v1.427h-5.635z"/><path d="m42.573 129.349h5.635v1.427h-5.635z"/><path d="m42.573 140.77h5.635v1.427h-5.635z"/><path d="m42.573 152.215h5.635v1.427h-5.635z"/></g><path d="m52.29 60.73h96.267v1.427h-96.267z" fill="#d5d6db"/><path d="m52.29 72.15h96.267v1.427h-96.267z" fill="#d5d6db"/><path d="m52.29 83.595h96.267v1.427h-96.267z" fill="#d5d6db"/><path d="m52.29 95.015h96.267v1.427h-96.267z" fill="#d5d6db"/><path d="m52.29 106.46h96.267v1.427h-96.267z" fill="#d5d6db"/><path d="m51.865 117.904h96.267v1.427h-96.267z" fill="#d5d6db"/><path d="m51.865 129.349h96.267v1.427h-96.267z" fill="#d5d6db"/><path d="m51.865 140.77h96.267v1.427h-96.267z" fill="#d5d6db"/><path d="m51.865 152.215h96.267v1.427h-96.267z" fill="#d5d6db"/><path d="m56.698 149.334-1.803-1.453 23.189-29.125 27.649 5.158 29.602-22.112 1.377 1.852-30.403 22.716-27.273-5.084z" fill="#e56353"/><path d="m56.872 134.033-2.177-.777 13.673-37.89 30.128-3.106 4.558-19.509 29.876-13.072.926 2.104-28.825 12.621-4.657 19.984-30.329 3.131z" fill="#27a2db"/><path d="m104.58 67.217c-3.527-.014-6.398 2.834-6.411 6.361-.014 3.527 2.834 6.398 6.361 6.411 3.527.014 6.398-2.834 6.411-6.361 0-.017 0-.033 0-.05.001-3.513-2.847-6.361-6.361-6.361z" fill="#3a556a"/><path d="m98.921 86.775c-3.527-.014-6.397 2.835-6.411 6.362s2.835 6.397 6.362 6.411 6.397-2.835 6.411-6.362c0-.042 0-.083-.001-.125-.055-3.478-2.882-6.272-6.361-6.286z" fill="#3a556a"/><path d="m69.144 90.082c-3.513.014-6.349 2.873-6.335 6.386s2.873 6.349 6.386 6.335c3.503-.014 6.335-2.858 6.335-6.361-.013-3.516-2.869-6.36-6.386-6.36z" fill="#3a556a"/><path d="m78.561 114.549c-3.513 0-6.361 2.848-6.361 6.361s2.848 6.361 6.361 6.361 6.361-2.848 6.361-6.361-2.848-6.361-6.361-6.361z" fill="#3a556a"/><path d="m78.561 117.229c-2.034-.014-3.693 1.623-3.707 3.656-.014 2.034 1.623 3.693 3.656 3.707 2.034.014 3.693-1.623 3.707-3.656 0-.009 0-.017 0-.025 0-2.025-1.633-3.668-3.656-3.682z" fill="#e56353"/><path d="m105.809 119.281c-3.527-.014-6.397 2.834-6.411 6.361s2.834 6.397 6.361 6.411 6.397-2.834 6.411-6.361c0-.025 0-.05 0-.075-.029-3.497-2.864-6.322-6.361-6.336z" fill="#3a556a"/><path d="m136.01 96.342c-3.527 0-6.386 2.859-6.386 6.386s2.859 6.386 6.386 6.386 6.386-2.859 6.386-6.386-2.859-6.386-6.386-6.386z" fill="#3a556a"/><path d="m132.204 55.07c-3.527-.014-6.398 2.834-6.411 6.361-.014 3.527 2.834 6.398 6.361 6.411 3.527.014 6.398-2.834 6.411-6.361 0-.017 0-.033 0-.05-.014-3.507-2.853-6.347-6.361-6.361z" fill="#3a556a"/><path d="m105.809 121.886c-2.034 0-3.681 1.649-3.681 3.681 0 2.034 1.649 3.681 3.681 3.681 2.013 0 3.653-1.618 3.681-3.631.028-2.032-1.598-3.703-3.631-3.731-.017.001-.034 0-.05 0z" fill="#e56353"/><path d="m136.01 99.148c-2.026.167-3.533 1.946-3.365 3.972.148 1.794 1.572 3.217 3.365 3.365 2.026.167 3.805-1.339 3.972-3.365.168-2.026-1.339-3.805-3.365-3.972-.202-.018-.405-.018-.607 0z" fill="#e56353"/><circle cx="132" cy="61" r="3" fill="#27a2db"/><path d="m104.58 69.921c-2.034 0-3.681 1.649-3.681 3.681 0 2.034 1.649 3.681 3.681 3.681 2.034 0 3.681-1.649 3.681-3.681 0-.009 0-.017 0-.025 0-2.02-1.637-3.657-3.656-3.657-.007.001-.016.001-.025.001z" fill="#27a2db"/><circle cx="98" cy="93" r="3" fill="#27a2db"/><circle cx="69" cy="96" r="3" fill="#27a2db"/><path d="m148.557 160.303h-98.22v-102.628h2.078v100.55h96.142z" fill="#3a556a"/></g><g transform="matrix(0.31391918659210205 0 0 0.31391918659210205 17 160)" id="L1_7"><path d="m133.456 0h-102.302c-6.114 0-11.069 4.955-11.069 11.069v168.993c0 6.114 4.955 11.069 11.069 11.069h128.823c6.114 0 11.069-4.955 11.069-11.069v-142.472z" fill="#e1e6e9"/><path d="m144.525 37.59h26.521l-37.565-37.565v26.496c0 6.104 4.941 11.055 11.044 11.069z" fill="#ebf0f3"/><g fill="#3a556a"><path d="m42.599 60.73h5.635v1.427h-5.635z"/><path d="m42.599 72.15h5.635v1.427h-5.635z"/><path d="m42.599 83.595h5.635v1.427h-5.635z"/><path d="m42.599 95.015h5.635v1.427h-5.635z"/><path d="m42.599 106.46h5.635v1.427h-5.635z"/><path d="m42.573 117.904h5.635v1.427h-5.635z"/><path d="m42.573 129.349h5.635v1.427h-5.635z"/><path d="m42.573 140.77h5.635v1.427h-5.635z"/><path d="m42.573 152.215h5.635v1.427h-5.635z"/></g><path d="m52.29 60.73h96.267v1.427h-96.267z" fill="#d5d6db"/><path d="m52.29 72.15h96.267v1.427h-96.267z" fill="#d5d6db"/><path d="m52.29 83.595h96.267v1.427h-96.267z" fill="#d5d6db"/><path d="m52.29 95.015h96.267v1.427h-96.267z" fill="#d5d6db"/><path d="m52.29 106.46h96.267v1.427h-96.267z" fill="#d5d6db"/><path d="m51.865 117.904h96.267v1.427h-96.267z" fill="#d5d6db"/><path d="m51.865 129.349h96.267v1.427h-96.267z" fill="#d5d6db"/><path d="m51.865 140.77h96.267v1.427h-96.267z" fill="#d5d6db"/><path d="m51.865 152.215h96.267v1.427h-96.267z" fill="#d5d6db"/><path d="m56.698 149.334-1.803-1.453 23.189-29.125 27.649 5.158 29.602-22.112 1.377 1.852-30.403 22.716-27.273-5.084z" fill="#e56353"/><path d="m56.872 134.033-2.177-.777 13.673-37.89 30.128-3.106 4.558-19.509 29.876-13.072.926 2.104-28.825 12.621-4.657 19.984-30.329 3.131z" fill="#27a2db"/><path d="m104.58 67.217c-3.527-.014-6.398 2.834-6.411 6.361-.014 3.527 2.834 6.398 6.361 6.411 3.527.014 6.398-2.834 6.411-6.361 0-.017 0-.033 0-.05.001-3.513-2.847-6.361-6.361-6.361z" fill="#3a556a"/><path d="m98.921 86.775c-3.527-.014-6.397 2.835-6.411 6.362s2.835 6.397 6.362 6.411 6.397-2.835 6.411-6.362c0-.042 0-.083-.001-.125-.055-3.478-2.882-6.272-6.361-6.286z" fill="#3a556a"/><path d="m69.144 90.082c-3.513.014-6.349 2.873-6.335 6.386s2.873 6.349 6.386 6.335c3.503-.014 6.335-2.858 6.335-6.361-.013-3.516-2.869-6.36-6.386-6.36z" fill="#3a556a"/><path d="m78.561 114.549c-3.513 0-6.361 2.848-6.361 6.361s2.848 6.361 6.361 6.361 6.361-2.848 6.361-6.361-2.848-6.361-6.361-6.361z" fill="#3a556a"/><path d="m78.561 117.229c-2.034-.014-3.693 1.623-3.707 3.656-.014 2.034 1.623 3.693 3.656 3.707 2.034.014 3.693-1.623 3.707-3.656 0-.009 0-.017 0-.025 0-2.025-1.633-3.668-3.656-3.682z" fill="#e56353"/><path d="m105.809 119.281c-3.527-.014-6.397 2.834-6.411 6.361s2.834 6.397 6.361 6.411 6.397-2.834 6.411-6.361c0-.025 0-.05 0-.075-.029-3.497-2.864-6.322-6.361-6.336z" fill="#3a556a"/><path d="m136.01 96.342c-3.527 0-6.386 2.859-6.386 6.386s2.859 6.386 6.386 6.386 6.386-2.859 6.386-6.386-2.859-6.386-6.386-6.386z" fill="#3a556a"/><path d="m132.204 55.07c-3.527-.014-6.398 2.834-6.411 6.361-.014 3.527 2.834 6.398 6.361 6.411 3.527.014 6.398-2.834 6.411-6.361 0-.017 0-.033 0-.05-.014-3.507-2.853-6.347-6.361-6.361z" fill="#3a556a"/><path d="m105.809 121.886c-2.034 0-3.681 1.649-3.681 3.681 0 2.034 1.649 3.681 3.681 3.681 2.013 0 3.653-1.618 3.681-3.631.028-2.032-1.598-3.703-3.631-3.731-.017.001-.034 0-.05 0z" fill="#e56353"/><path d="m136.01 99.148c-2.026.167-3.533 1.946-3.365 3.972.148 1.794 1.572 3.217 3.365 3.365 2.026.167 3.805-1.339 3.972-3.365.168-2.026-1.339-3.805-3.365-3.972-.202-.018-.405-.018-.607 0z" fill="#e56353"/><circle cx="132" cy="61" r="3" fill="#27a2db"/><path d="m104.58 69.921c-2.034 0-3.681 1.649-3.681 3.681 0 2.034 1.649 3.681 3.681 3.681 2.034 0 3.681-1.649 3.681-3.681 0-.009 0-.017 0-.025 0-2.02-1.637-3.657-3.656-3.657-.007.001-.016.001-.025.001z" fill="#27a2db"/><circle cx="98" cy="93" r="3" fill="#27a2db"/><circle cx="69" cy="96" r="3" fill="#27a2db"/><path d="m148.557 160.303h-98.22v-102.628h2.078v100.55h96.142z" fill="#3a556a"/></g></defs><g fi:class="KUsePattern" opacity="0.93"><pattern id="pattern_L1_3" width="350" height="350" patternUnits="userSpaceOnUse"><use xlink:href="#L1_3" x="-350" y="-350"/><use xlink:href="#L1_3" x="0" y="-350"/><use xlink:href="#L1_3" x="350" y="-350"/><use xlink:href="#L1_3" x="-350" y="0"/><use xlink:href="#L1_3" x="0" y="0"/><use xlink:href="#L1_3" x="350" y="0"/><use xlink:href="#L1_3" x="-350" y="350"/><use xlink:href="#L1_3" x="0" y="350"/><use xlink:href="#L1_3" x="350" y="350"/></pattern><rect x="0" y="0" width="100%" height="100%" fill="url(#pattern_L1_3)"/></g><g fi:class="KUsePattern"><pattern id="pattern_L1_4" width="350" height="350" patternUnits="userSpaceOnUse"><use xlink:href="#L1_4" x="-350" y="-350"/><use xlink:href="#L1_4" x="0" y="-350"/><use xlink:href="#L1_4" x="350" y="-350"/><use xlink:href="#L1_4" x="-350" y="0"/><use xlink:href="#L1_4" x="0" y="0"/><use xlink:href="#L1_4" x="350" y="0"/><use xlink:href="#L1_4" x="-350" y="350"/><use xlink:href="#L1_4" x="0" y="350"/><use xlink:href="#L1_4" x="350" y="350"/></pattern><rect x="0" y="0" width="100%" height="100%" fill="url(#pattern_L1_4)"/></g><g fi:class="KUsePattern"><pattern id="pattern_L1_5" width="350" height="350" patternUnits="userSpaceOnUse"><use xlink:href="#L1_5" x="-350" y="-350"/><use xlink:href="#L1_5" x="0" y="-350"/><use xlink:href="#L1_5" x="350" y="-350"/><use xlink:href="#L1_5" x="-350" y="0"/><use xlink:href="#L1_5" x="0" y="0"/><use xlink:href="#L1_5" x="350" y="0"/><use xlink:href="#L1_5" x="-350" y="350"/><use xlink:href="#L1_5" x="0" y="350"/><use xlink:href="#L1_5" x="350" y="350"/></pattern><rect x="0" y="0" width="100%" height="100%" fill="url(#pattern_L1_5)"/></g><g fi:class="KUsePattern"><pattern id="pattern_L1_6" width="350" height="350" patternUnits="userSpaceOnUse"><use xlink:href="#L1_6" x="-350" y="-350"/><use xlink:href="#L1_6" x="0" y="-350"/><use xlink:href="#L1_6" x="350" y="-350"/><use xlink:href="#L1_6" x="-350" y="0"/><use xlink:href="#L1_6" x="0" y="0"/><use xlink:href="#L1_6" x="350" y="0"/><use xlink:href="#L1_6" x="-350" y="350"/><use xlink:href="#L1_6" x="0" y="350"/><use xlink:href="#L1_6" x="350" y="350"/></pattern><rect x="0" y="0" width="100%" height="100%" fill="url(#pattern_L1_6)"/></g><g fi:class="KUsePattern"><pattern id="pattern_L1_7" width="350" height="350" patternUnits="userSpaceOnUse"><use xlink:href="#L1_7" x="-350" y="-350"/><use xlink:href="#L1_7" x="0" y="-350"/><use xlink:href="#L1_7" x="350" y="-350"/><use xlink:href="#L1_7" x="-350" y="0"/><use xlink:href="#L1_7" x="0" y="0"/><use xlink:href="#L1_7" x="350" y="0"/><use xlink:href="#L1_7" x="-350" y="350"/><use xlink:href="#L1_7" x="0" y="350"/><use xlink:href="#L1_7" x="350" y="350"/></pattern><rect x="0" y="0" width="100%" height="100%" fill="url(#pattern_L1_7)"/></g></svg>