<svg id="Layer_1" data-name="Layer 1" xmlns="http://www.w3.org/2000/svg" xmlns:xlink="http://www.w3.org/1999/xlink" viewBox="0 0 666.83 459.11"><defs><linearGradient id="linear-gradient" x1="354.62" y1="-12.63" x2="697.88" y2="711.5" gradientUnits="userSpaceOnUse"><stop offset="0" stop-color="#fff" stop-opacity="0"/><stop offset="0.95" stop-color="#fff"/></linearGradient><linearGradient id="linear-gradient-2" x1="348.74" y1="-32.92" x2="746.83" y2="806.87" xlink:href="#linear-gradient"/><linearGradient id="linear-gradient-3" x1="115.49" y1="128.19" x2="499.88" y2="467.61" gradientTransform="matrix(1, 0, 0.28, 1.01, -65.15, -2.35)" gradientUnits="userSpaceOnUse"><stop offset="0" stop-color="#010101" stop-opacity="0"/><stop offset="0.95" stop-color="#010101"/></linearGradient><linearGradient id="linear-gradient-4" x1="131.34" y1="137.37" x2="489.43" y2="453.57" gradientTransform="matrix(0.96, 0.26, 0, 1.05, 14.72, -81.65)" xlink:href="#linear-gradient-3"/><linearGradient id="linear-gradient-5" x1="438.56" y1="215.29" x2="414.63" y2="235.42" gradientTransform="matrix(1, 0, 0, 1, 0, 0)" xlink:href="#linear-gradient-3"/><linearGradient id="linear-gradient-6" x1="578.46" y1="414.87" x2="572.4" y2="284.53" gradientTransform="matrix(0.9, 0.03, -0.14, 0.99, 63.59, -11.62)" xlink:href="#linear-gradient-3"/><linearGradient id="linear-gradient-7" x1="555.22" y1="247.99" x2="615.99" y2="582.88" gradientTransform="matrix(0.9, 0.03, -0.14, 0.99, 63.59, -11.62)" xlink:href="#linear-gradient"/><linearGradient id="linear-gradient-8" x1="592.68" y1="307.8" x2="562.02" y2="468.95" gradientTransform="matrix(0.9, 0.03, -0.14, 0.99, 63.59, -11.62)" xlink:href="#linear-gradient"/><linearGradient id="linear-gradient-9" x1="569.81" y1="382.25" x2="563.76" y2="251.91" gradientTransform="matrix(0.9, 0.03, -0.14, 0.99, 63.59, -11.62)" xlink:href="#linear-gradient-3"/><linearGradient id="linear-gradient-10" x1="546.58" y1="215.38" x2="607.35" y2="550.26" gradientTransform="matrix(0.9, 0.03, -0.14, 0.99, 63.59, -11.62)" xlink:href="#linear-gradient"/><linearGradient id="linear-gradient-11" x1="584.03" y1="275.18" x2="553.37" y2="436.34" gradientTransform="matrix(0.9, 0.03, -0.14, 0.99, 63.59, -11.62)" xlink:href="#linear-gradient"/><linearGradient id="linear-gradient-12" x1="537.99" y1="372.14" x2="531.93" y2="241.8" gradientTransform="matrix(0.9, 0.03, -0.14, 0.99, 63.59, -11.62)" xlink:href="#linear-gradient-3"/><linearGradient id="linear-gradient-13" x1="514.75" y1="205.27" x2="575.52" y2="540.15" gradientTransform="matrix(0.9, 0.03, -0.14, 0.99, 63.59, -11.62)" xlink:href="#linear-gradient"/><linearGradient id="linear-gradient-14" x1="552.2" y1="265.07" x2="521.55" y2="426.22" gradientTransform="matrix(0.9, 0.03, -0.14, 0.99, 63.59, -11.62)" xlink:href="#linear-gradient"/><linearGradient id="linear-gradient-15" x1="398.62" y1="260.6" x2="411.13" y2="273.11" gradientTransform="matrix(1, 0, 0, 1, 0, 0)" xlink:href="#linear-gradient-3"/><linearGradient id="linear-gradient-16" x1="408.68" y1="363.67" x2="384.02" y2="360.4" gradientTransform="matrix(1, 0, 0, 1, 0, 0)" xlink:href="#linear-gradient-3"/><linearGradient id="linear-gradient-17" x1="401.22" y1="363.37" x2="429.64" y2="363.37" gradientTransform="matrix(1, 0, 0, 1, 0, 0)" xlink:href="#linear-gradient-3"/><linearGradient id="linear-gradient-18" x1="383.19" y1="269.99" x2="514.01" y2="335.26" gradientTransform="matrix(1, 0, 0, 1, 0, 0)" xlink:href="#linear-gradient-3"/><linearGradient id="linear-gradient-19" x1="401.43" y1="220.12" x2="422.68" y2="220.12" gradientUnits="userSpaceOnUse"><stop offset="0" stop-color="#e5c6d6"/><stop offset="0.42" stop-color="#ead4d0"/><stop offset="1" stop-color="#f0e9cb"/></linearGradient><linearGradient id="linear-gradient-20" x1="250.67" y1="157.86" x2="283.3" y2="290.58" gradientTransform="matrix(1, 0, 0, 1, 0, 0)" xlink:href="#linear-gradient-3"/><clipPath id="clip-path" transform="translate(-2.83 -19.17)"><path d="M172.6,270l192-54.93,43.51,9.24,12.51,51.13L312.39,325.5H187.28C185.65,325.5,172.6,270,172.6,270Z" fill="none"/></clipPath><linearGradient id="linear-gradient-21" x1="306.13" y1="324.43" x2="300.08" y2="194.09" gradientTransform="matrix(0.9, -0.1, 0, 1, 15.24, 15.08)" xlink:href="#linear-gradient-3"/><linearGradient id="linear-gradient-22" x1="282.9" y1="157.56" x2="343.67" y2="492.44" gradientTransform="matrix(0.9, -0.1, 0, 1, 15.24, 15.08)" xlink:href="#linear-gradient"/><linearGradient id="linear-gradient-23" x1="320.35" y1="217.36" x2="289.69" y2="378.52" gradientTransform="matrix(0.9, -0.1, 0, 1, 15.24, 15.08)" xlink:href="#linear-gradient"/><linearGradient id="linear-gradient-24" x1="245.18" y1="470.49" x2="239.13" y2="340.15" gradientTransform="matrix(0.9, 0.03, -0.14, 0.99, 63.59, -11.62)" xlink:href="#linear-gradient-3"/><linearGradient id="linear-gradient-25" x1="221.94" y1="303.62" x2="282.72" y2="638.5" gradientTransform="matrix(0.9, 0.03, -0.14, 0.99, 63.59, -11.62)" xlink:href="#linear-gradient"/><linearGradient id="linear-gradient-26" x1="259.4" y1="363.42" x2="228.74" y2="524.57" gradientTransform="matrix(0.9, 0.03, -0.14, 0.99, 63.59, -11.62)" xlink:href="#linear-gradient"/></defs><title>Bitcoin 3</title><path d="M228.15,88.79C191.87,94,156.81,105.71,122,117.38c-26.4,8.85-53.41,18-75.22,35.8S9.07,199.38,13.4,227.77c3.18,20.77,16.52,38.89,18.81,59.79,4.22,38.6-29.81,72.29-29.38,111.12.4,36.75,32.77,66.23,67.18,75.19s70.55,2.37,105.64-3.11a1640.68,1640.68,0,0,1,325.53-18.05c29.25,1.3,58.52,3.38,87.77,2.21,22.07-.88,45.69-4.33,62-19.79,22.17-21,23.07-58.21,11-86.71s-34.38-50.73-55-73.4-40.71-48-46.51-78.53c-3.82-20.11-1.1-41-3.88-61.27-5.7-41.53-35-77.31-71.6-95.36-33.46-16.52-94.45-28-131.36-15.25-19.87,6.85-30.7,24.12-45.94,37.52C284.3,82.63,257.33,84.62,228.15,88.79Z" transform="translate(-2.83 -19.17)" fill="#f7ac3a" opacity="0.24" style="isolation:isolate"/><circle cx="465.42" cy="219.84" r="102.27" fill="#fdcd01"/><circle cx="464.71" cy="219.63" r="86.28" fill="url(#linear-gradient)"/><path d="M397.87,166.55,519.3,326.87s22-12.54,30.57-31.35l-116-149.68" transform="translate(-2.83 -19.17)" fill="url(#linear-gradient-2)"/><path d="M497.77,266.06a21.93,21.93,0,0,1-3.47,6.11,24.42,24.42,0,0,1-4.79,4.49,22.47,22.47,0,0,1-5.26,2.81,36,36,0,0,1-10.18,2q-5.62.36-10.89.36H421.89v-1.2a25.86,25.86,0,0,0,5.68-1.55,11.3,11.3,0,0,0,4.37-3,5.41,5.41,0,0,0,1-2.1c.24-.92.46-2,.66-3.17s.34-2.45.42-3.77.12-2.61.12-3.89c0-1.11,0-2.63.06-4.55s.07-4,.11-6.28.07-4.61.07-7V226.8c0-1.75,0-3.54-.07-5.38s0-3.95,0-6.34c0-1.44-.05-2.89-.12-4.37s-.23-2.89-.42-4.25a34.2,34.2,0,0,0-.72-3.65,5.1,5.1,0,0,0-1.14-2.34,9.61,9.61,0,0,0-3.59-2.57,22.38,22.38,0,0,0-5-1v-1.19h40.34a69,69,0,0,1,8.68.53,35.82,35.82,0,0,1,8,2,23.77,23.77,0,0,1,10.05,6.94A17.72,17.72,0,0,1,494.18,217q0,7.9-5.09,12.75a26.35,26.35,0,0,1-13.22,6.52v.48a34,34,0,0,1,8.5,2.1,26.38,26.38,0,0,1,7.48,4.36,21.29,21.29,0,0,1,5.26,6.53,18.09,18.09,0,0,1,2,8.55A21.7,21.7,0,0,1,497.77,266.06Zm-20.41-59.72a17.56,17.56,0,0,0-7.6-6.7q-5.38-2.4-13.76-2.4a39.11,39.11,0,0,0-4.55.24,16.42,16.42,0,0,0-3.11.6q-.12.72-.24,1.32a11.69,11.69,0,0,0-.18,1.49q-.06.9-.12,2.22c0,.88-.1,2-.18,3.47q-.12,4.18-.18,9.21t-.06,9.58v11.49h6.7c1.84,0,3.31,0,4.43-.12q10.77-.6,16.34-6.1A18.43,18.43,0,0,0,480.41,217,19,19,0,0,0,477.36,206.34ZM484,253.08a21.53,21.53,0,0,0-3.12-5.63,20.65,20.65,0,0,0-4.66-4.43,23.76,23.76,0,0,0-5.93-2.93A27.59,27.59,0,0,0,465,239a53.4,53.4,0,0,0-6.05-.29H447.38v15q0,3.34.06,6.16c0,1.88.06,3.49.06,4.85q.12,4.55.42,7.48a9.48,9.48,0,0,0,1.74,4.84,8,8,0,0,0,3.23,2.22,16.76,16.76,0,0,0,6.22.9,64.67,64.67,0,0,0,7.54-.48,22.42,22.42,0,0,0,7.9-2.51,19.86,19.86,0,0,0,7.78-7,19.18,19.18,0,0,0,2.75-10.47A18.69,18.69,0,0,0,484,253.08Z" transform="translate(-2.83 -19.17)" fill="#fdcd01"/><rect x="443.59" y="161.15" width="7.35" height="17.08" fill="#fdcd01"/><rect x="458.58" y="161.15" width="7.35" height="17.08" fill="#fdcd01"/><rect x="443.59" y="262.34" width="7.35" height="17.08" fill="#fdcd01"/><rect x="458.58" y="262.34" width="7.35" height="17.08" fill="#fdcd01"/><path d="M434.41,347.23,161.84,422.18c-12.52,3.45-25.91-5.55-29.9-20.1L75,194.36c-4-14.55,2.94-29.13,15.47-32.58L363,86.83c12.53-3.45,25.92,5.55,29.91,20.1l56.94,207.72C453.86,329.2,446.94,343.79,434.41,347.23Z" transform="translate(-2.83 -19.17)" fill="#f7ac3a"/><path d="M435.32,347.05,162.75,422c-12.53,3.45-25.92-5.55-29.9-20.1L75.9,194.18c-4-14.55,2.94-29.14,15.46-32.58L363.93,86.65c12.53-3.45,25.92,5.55,29.9,20.1l56.95,207.72C454.77,329,447.84,343.6,435.32,347.05Z" transform="translate(-2.83 -19.17)" fill="url(#linear-gradient-3)"/><path d="M441.35,349,168.79,423.9c-12.53,3.45-25.92-5.55-29.91-20.1L81.94,196.08c-4-14.55,2.93-29.14,15.46-32.58L370,88.55c12.53-3.45,25.92,5.55,29.91,20.1l56.95,207.72C460.8,330.92,453.88,345.5,441.35,349Z" transform="translate(-2.83 -19.17)" fill="#f7ac3a"/><rect x="117.8" y="140.96" width="303.56" height="227.86" transform="translate(-60.59 61.12) rotate(-15.32)" fill="url(#linear-gradient-4)"/><path d="M413.36,212.22c1.08,1.9,1.2,4.19,1.76,6.3a58.56,58.56,0,0,0,2.25,5.81c2.69,6.9,2.93,14.86,7.28,20.85a35.26,35.26,0,0,0,6,5.93,4.76,4.76,0,0,1,1.54,1.83,4.35,4.35,0,0,1,.19,1.53A36.06,36.06,0,0,1,430.76,265c5.31-2.53,11-4.48,15.64-8.11s8.12-9.52,6.84-15.27c-1.86-8.38-12.53-12.54-14.33-20.93-.72-3.34.13-6.87-.58-10.22a11.28,11.28,0,0,0-5.53-7.44c-1.33-.73-2.78-1.18-4.11-1.9a15.88,15.88,0,0,1-5.48-5.24c-1-1.46-1.88-3.09-3.41-4-4.3-2.44-13.76-.22-15.27,5a9.19,9.19,0,0,0,2,8.94C408.67,208.16,411.79,209.42,413.36,212.22Z" transform="translate(-2.83 -19.17)" fill="#606161"/><path d="M413.36,212.22c1.08,1.9,1.2,4.19,1.76,6.3a58.56,58.56,0,0,0,2.25,5.81c2.69,6.9,2.93,14.86,7.28,20.85a35.26,35.26,0,0,0,6,5.93,4.76,4.76,0,0,1,1.54,1.83,4.35,4.35,0,0,1,.19,1.53A36.06,36.06,0,0,1,430.76,265c5.31-2.53,11-4.48,15.64-8.11s8.12-9.52,6.84-15.27c-1.86-8.38-12.53-12.54-14.33-20.93-.72-3.34.13-6.87-.58-10.22a11.28,11.28,0,0,0-5.53-7.44c-1.33-.73-2.78-1.18-4.11-1.9a15.88,15.88,0,0,1-5.48-5.24c-1-1.46-1.88-3.09-3.41-4-4.3-2.44-13.76-.22-15.27,5a9.19,9.19,0,0,0,2,8.94C408.67,208.16,411.79,209.42,413.36,212.22Z" transform="translate(-2.83 -19.17)" fill="url(#linear-gradient-5)"/><path d="M640.87,385.74c-2.61,17.86-54.44,31.85-115.75,31.22s-108.88-15.62-106.27-33.48c.34-2.3,1.34-10.93,3.08-20.26.2-1.12.4-2.19.6-3.32,3.34-9.31,20.17-17.42,44.49-22.69,19.28,5.71,42.82,14.85,67.57,15.1,24.34.25,49.62-8.23,70.15-14.11,23.53,5.76,38.57,14.3,39.34,23.81-.15,1.28-.29,2.55-.44,3.78v.1C642.59,375.28,641.18,383.65,640.87,385.74Z" transform="translate(-2.83 -19.17)" fill="#fdcd01"/><path d="M640.87,385.74c-2.61,17.86-54.44,31.85-115.75,31.22s-108.88-15.62-106.27-33.48c.34-2.3,1.34-10.93,3.08-20.26.2-1.12.4-2.19.6-3.32,3.34-9.31,20.17-17.42,44.49-22.69,19.28,5.71,42.82,14.85,67.57,15.1,24.34.25,49.62-8.23,70.15-14.11,23.53,5.76,38.57,14.3,39.34,23.81-.15,1.28-.29,2.55-.44,3.78v.1C642.59,375.28,641.18,383.65,640.87,385.74Z" transform="translate(-2.83 -19.17)" fill="url(#linear-gradient-6)"/><path d="M644,364.21a8.46,8.46,0,0,1-.39,1.58v.1c-5.45,17-56,30.09-115.34,29.49-59.87-.61-106.65-14.89-106.36-32.16a7.86,7.86,0,0,1,.08-1.28,9.71,9.71,0,0,1,.52-2c3.34-9.31,20.17-17.42,44.49-22.69,19.69-4.3,44.31-6.76,70.73-6.49,25.63.27,48.84,3.06,67,7.48,23.53,5.76,38.57,14.3,39.34,23.81A8.53,8.53,0,0,1,644,364.21Z" transform="translate(-2.83 -19.17)" fill="#fdcd01"/><path d="M623,362a6.74,6.74,0,0,1-.32,1.29v.09c-4.46,13.93-45.84,24.64-94.46,24.14-49-.5-87.33-12.19-87.1-26.33a6.17,6.17,0,0,1,.06-1,8.74,8.74,0,0,1,.43-1.67c2.74-7.63,16.52-14.27,36.43-18.58,16.13-3.52,36.29-5.54,57.94-5.31,21,.21,40,2.5,54.85,6.12,19.28,4.72,31.59,11.71,32.22,19.5A7.23,7.23,0,0,1,623,362Z" transform="translate(-2.83 -19.17)" fill="url(#linear-gradient-7)"/><path d="M508.23,376.94a62.54,62.54,0,0,1-7.5-.49,47.9,47.9,0,0,1-6.1-1.15,27.07,27.07,0,0,1-4.41-1.53,16,16,0,0,1-4.83-3.38,38.88,38.88,0,0,1-3.2-3.83l-10.68-14.71,1.3-.15a15,15,0,0,0,3.15,1.84,15,15,0,0,0,6.88,1.27q1.57,0,3.6-.15c1.35-.08,2.74-.18,4.19-.32s2.85-.27,4.24-.43l4.93-.54,6.83-.72,7.59-.84,7.51-.85,6.87-.78,5.7-.64,5.8-.68q3-.36,6.85-.8c1.56-.18,3.12-.37,4.7-.58s3.07-.43,4.49-.67,2.67-.47,3.76-.7a9.26,9.26,0,0,0,2.23-.69c1.07-.59,1.69-1.12,1.86-1.6a2.92,2.92,0,0,0-.2-1.91l1.29-.15,10.43,14.37a11.24,11.24,0,0,1,1.67,3.15,4.72,4.72,0,0,1-.08,3.08c-.59,1.64-2.23,3.11-4.91,4.43s-6.62,2.27-11.8,2.86a51.45,51.45,0,0,1-15.11-.25,27.28,27.28,0,0,1-10.48-3.91l-.51.06a4.44,4.44,0,0,1-.07,3.28,7.57,7.57,0,0,1-2.79,3.2,21.38,21.38,0,0,1-5.7,2.68,45.22,45.22,0,0,1-8.75,1.75A71.47,71.47,0,0,1,508.23,376.94Zm59.33-14.58c2.85-1.11,4.6-2.29,5.29-3.53.8-1.48.47-3.21-1-5.2a9.52,9.52,0,0,0-1.43-1.59,7.07,7.07,0,0,0-1.46-1l-1.48.07c-.46,0-1,.06-1.67.12l-2.42.23-3.8.36q-4.57.46-10,1.07c-3.64.39-7.1.78-10.38,1.15l-8.29.94-4.14.47,1.74,2.38a13.5,13.5,0,0,0,1.27,1.57c2.29,2.5,5.9,4.2,10.83,5.07a56.73,56.73,0,0,0,16.2.31A43.85,43.85,0,0,0,567.56,362.36Zm-48.86,8.07a33.12,33.12,0,0,0,5.28-1.8,13.52,13.52,0,0,0,3.59-2.21,5.13,5.13,0,0,0,1.64-2.47,3.54,3.54,0,0,0-.12-2,9.19,9.19,0,0,0-1.24-2.19l-3-4.13-8.29.93-7.9.9-6.65.77c-2,.25-3.76.45-5.23.62q-4.89.6-8,1.07a19.5,19.5,0,0,0-4.79,1.21,3,3,0,0,0-1.56,1.42c-.28.59-.07,1.36.64,2.33a17.11,17.11,0,0,0,2.47,2.63,14.37,14.37,0,0,0,4.76,2.5,37.69,37.69,0,0,0,9.59,1.91,62,62,0,0,0,12-.3A48.48,48.48,0,0,0,518.7,370.43Z" transform="translate(-2.83 -19.17)" fill="#fdcd01"/><polygon points="568.31 333.69 566.4 331.07 584.88 328.98 586.79 331.6 568.31 333.69" fill="#fdcd01"/><polygon points="572.18 339.03 570.28 336.41 588.76 334.32 590.66 336.94 572.18 339.03" fill="#fdcd01"/><polygon points="458.84 346.09 456.94 343.47 475.42 341.38 477.32 344 458.84 346.09" fill="#fdcd01"/><polygon points="462.71 351.43 460.81 348.81 479.29 346.72 481.19 349.34 462.71 351.43" fill="#fdcd01"/><path d="M450,342.07l139,47.47s32.66-4,41-13.25L493.14,332.44S453.66,339.23,450,342.07Z" transform="translate(-2.83 -19.17)" fill="url(#linear-gradient-8)"/><path d="M637.78,353.19C635.16,371.05,583.34,385,522,384.41s-108.89-15.62-106.27-33.48c.33-2.3,1.33-10.93,3.08-20.26.2-1.12.4-2.19.6-3.32,3.34-9.31,20.17-17.42,44.48-22.69,19.29,5.71,42.82,14.85,67.58,15.1,24.34.25,49.62-8.23,70.15-14.11,23.53,5.76,38.57,14.3,39.34,23.81-.15,1.28-.3,2.55-.44,3.78v.1C639.5,342.73,638.09,351.1,637.78,353.19Z" transform="translate(-2.83 -19.17)" fill="#fdcd01"/><path d="M637.78,353.19C635.16,371.05,583.34,385,522,384.41s-108.89-15.62-106.27-33.48c.33-2.3,1.33-10.93,3.08-20.26.2-1.12.4-2.19.6-3.32,3.34-9.31,20.17-17.42,44.48-22.69,19.29,5.71,42.82,14.85,67.58,15.1,24.34.25,49.62-8.23,70.15-14.11,23.53,5.76,38.57,14.3,39.34,23.81-.15,1.28-.3,2.55-.44,3.78v.1C639.5,342.73,638.09,351.1,637.78,353.19Z" transform="translate(-2.83 -19.17)" fill="url(#linear-gradient-9)"/><path d="M640.93,331.66a7.69,7.69,0,0,1-.38,1.58v.1c-5.46,17-56,30.09-115.35,29.49-59.86-.61-106.64-14.89-106.35-32.16a6.87,6.87,0,0,1,.07-1.28,10.4,10.4,0,0,1,.53-2c3.34-9.31,20.17-17.42,44.48-22.69,19.69-4.3,44.32-6.76,70.74-6.49,25.63.26,48.84,3.06,67,7.48,23.53,5.76,38.57,14.3,39.34,23.81A8.54,8.54,0,0,1,640.93,331.66Z" transform="translate(-2.83 -19.17)" fill="#fdcd01"/><path d="M619.89,329.41a6.68,6.68,0,0,1-.31,1.29v.09c-4.47,13.93-45.84,24.64-94.46,24.14-49-.5-87.34-12.19-87.1-26.33a6.17,6.17,0,0,1,.06-1.05,8.55,8.55,0,0,1,.43-1.67c2.73-7.63,16.52-14.27,36.43-18.59,16.13-3.51,36.29-5.53,57.93-5.31,21,.22,40,2.51,54.86,6.13,19.27,4.72,31.59,11.71,32.22,19.5A6.8,6.8,0,0,1,619.89,329.41Z" transform="translate(-2.83 -19.17)" fill="url(#linear-gradient-10)"/><path d="M505.13,344.39a62.82,62.82,0,0,1-7.5-.49,48.06,48.06,0,0,1-6.09-1.15,26.73,26.73,0,0,1-4.41-1.53,16,16,0,0,1-4.83-3.38,40.25,40.25,0,0,1-3.21-3.83L468.42,319.3l1.29-.15a15.48,15.48,0,0,0,3.15,1.84,16.63,16.63,0,0,0,4.37,1.18,15.39,15.39,0,0,0,2.52.09q1.58,0,3.6-.15c1.34-.08,2.74-.18,4.18-.32s2.86-.28,4.24-.43l4.94-.54,6.83-.72,7.59-.84,7.51-.85,6.86-.78,5.7-.64,5.81-.69,6.85-.79c1.56-.18,3.12-.37,4.7-.58s3.07-.43,4.48-.67,2.67-.47,3.77-.71a8.55,8.55,0,0,0,2.23-.69c1.07-.58,1.69-1.11,1.85-1.59a2.85,2.85,0,0,0-.2-1.91l1.3-.15,10.43,14.37a11.06,11.06,0,0,1,1.66,3.15,4.59,4.59,0,0,1-.08,3.08c-.59,1.63-2.22,3.11-4.91,4.43s-6.61,2.27-11.79,2.86a51.78,51.78,0,0,1-15.11-.25,27.28,27.28,0,0,1-10.48-3.91l-.52.06a4.39,4.39,0,0,1-.07,3.28,7.43,7.43,0,0,1-2.79,3.2,21.3,21.3,0,0,1-5.69,2.68,45.37,45.37,0,0,1-8.75,1.75A71.52,71.52,0,0,1,505.13,344.39Zm59.34-14.59c2.84-1.1,4.6-2.28,5.29-3.52q1.18-2.22-1-5.2a9.57,9.57,0,0,0-1.44-1.59,7.25,7.25,0,0,0-1.45-1l-1.49.08c-.45,0-1,.06-1.66.12l-2.43.23-3.8.36c-3,.31-6.38.67-10,1.06l-10.37,1.16-8.29.94-4.14.46,1.73,2.39a13.41,13.41,0,0,0,1.28,1.56q3.42,3.76,10.82,5.08a56.8,56.8,0,0,0,16.21.31A43.36,43.36,0,0,0,564.47,329.8Zm-48.86,8.08a33.82,33.82,0,0,0,5.28-1.8,13.71,13.71,0,0,0,3.58-2.21,5.06,5.06,0,0,0,1.64-2.47,3.62,3.62,0,0,0-.11-2,9.35,9.35,0,0,0-1.24-2.19l-3-4.14-8.28.94-7.9.9-6.66.77c-2,.25-3.76.45-5.22.62-3.27.4-5.92.75-8,1.07a19.5,19.5,0,0,0-4.79,1.21,3.07,3.07,0,0,0-1.57,1.42c-.27.58-.06,1.36.64,2.33a16.64,16.64,0,0,0,2.47,2.62,14.29,14.29,0,0,0,4.76,2.51,37.87,37.87,0,0,0,9.59,1.91,61.94,61.94,0,0,0,12-.3A48.91,48.91,0,0,0,515.61,337.88Z" transform="translate(-2.83 -19.17)" fill="#fdcd01"/><polygon points="565.21 301.14 563.31 298.52 581.79 296.43 583.69 299.05 565.21 301.14" fill="#fdcd01"/><polygon points="569.09 306.48 567.19 303.86 585.67 301.77 587.57 304.39 569.09 306.48" fill="#fdcd01"/><polygon points="455.74 313.54 453.84 310.92 472.32 308.83 474.22 311.45 455.74 313.54" fill="#fdcd01"/><polygon points="459.62 318.88 457.72 316.26 476.2 314.17 478.1 316.78 459.62 318.88" fill="#fdcd01"/><path d="M446.94,309.52l139,47.47s32.66-4,41-13.26L490.05,299.89S450.57,306.68,446.94,309.52Z" transform="translate(-2.83 -19.17)" fill="url(#linear-gradient-11)"/><path d="M610.45,342.16C607.83,360,556,374,494.7,373.38s-108.89-15.63-106.27-33.49c.33-2.3,1.33-10.92,3.08-20.26.2-1.12.4-2.19.6-3.31,3.34-9.32,20.17-17.43,44.48-22.7,19.29,5.72,42.82,14.85,67.58,15.1,24.34.25,49.62-8.23,70.15-14.1,23.53,5.76,38.57,14.29,39.34,23.81-.15,1.27-.3,2.55-.44,3.77v.1C612.17,331.7,610.76,340.06,610.45,342.16Z" transform="translate(-2.83 -19.17)" fill="#fdcd01"/><path d="M610.45,342.16C607.83,360,556,374,494.7,373.38s-108.89-15.63-106.27-33.49c.33-2.3,1.33-10.92,3.08-20.26.2-1.12.4-2.19.6-3.31,3.34-9.32,20.17-17.43,44.48-22.7,19.29,5.72,42.82,14.85,67.58,15.1,24.34.25,49.62-8.23,70.15-14.1,23.53,5.76,38.57,14.29,39.34,23.81-.15,1.27-.3,2.55-.44,3.77v.1C612.17,331.7,610.76,340.06,610.45,342.16Z" transform="translate(-2.83 -19.17)" fill="url(#linear-gradient-12)"/><path d="M613.6,320.62a7.69,7.69,0,0,1-.38,1.58v.1c-5.46,17-56,30.1-115.35,29.49-59.86-.61-106.64-14.89-106.35-32.16a6.77,6.77,0,0,1,.07-1.27,10.05,10.05,0,0,1,.53-2c3.34-9.32,20.17-17.43,44.48-22.7,19.69-4.29,44.32-6.75,70.74-6.48,25.63.26,48.84,3.05,67,7.48,23.53,5.76,38.57,14.29,39.34,23.81A8,8,0,0,1,613.6,320.62Z" transform="translate(-2.83 -19.17)" fill="#fdcd01"/><path d="M592.57,318.37a7.68,7.68,0,0,1-.32,1.3v.08c-4.47,13.93-45.84,24.64-94.46,24.15-49-.5-87.34-12.19-87.1-26.34a6.05,6.05,0,0,1,.06-1,8.37,8.37,0,0,1,.43-1.67c2.74-7.63,16.52-14.27,36.43-18.59,16.13-3.52,36.29-5.53,57.93-5.31,21,.21,40,2.5,54.86,6.13,19.27,4.71,31.59,11.7,32.22,19.49A7.22,7.22,0,0,1,592.57,318.37Z" transform="translate(-2.83 -19.17)" fill="url(#linear-gradient-13)"/><path d="M477.8,333.36a65,65,0,0,1-7.5-.49,48,48,0,0,1-6.09-1.16,25,25,0,0,1-4.41-1.53,15.93,15.93,0,0,1-4.83-3.37,38.7,38.7,0,0,1-3.2-3.84l-10.68-14.71,1.29-.14a15,15,0,0,0,3.15,1.83,15.1,15.1,0,0,0,6.89,1.27q1.57,0,3.6-.15c1.34-.08,2.74-.18,4.18-.31s2.86-.28,4.24-.44l4.94-.53,6.83-.73q3.71-.39,7.59-.84l7.51-.85,6.86-.77,5.7-.65q2.85-.31,5.81-.68t6.85-.8c1.56-.18,3.12-.37,4.7-.58s3.07-.43,4.49-.67,2.66-.47,3.76-.7a8.55,8.55,0,0,0,2.23-.69c1.07-.58,1.69-1.12,1.86-1.6a2.87,2.87,0,0,0-.21-1.91l1.3-.15,10.43,14.37a10.85,10.85,0,0,1,1.66,3.16,4.56,4.56,0,0,1-.08,3.07c-.59,1.64-2.22,3.12-4.91,4.44s-6.61,2.27-11.79,2.85a51.1,51.1,0,0,1-15.11-.25,27.12,27.12,0,0,1-10.48-3.91l-.52.06a4.39,4.39,0,0,1-.07,3.28,7.38,7.38,0,0,1-2.79,3.2,21.3,21.3,0,0,1-5.69,2.68,44.63,44.63,0,0,1-8.75,1.75A71.62,71.62,0,0,1,477.8,333.36Zm59.34-14.59c2.84-1.11,4.6-2.28,5.29-3.53.79-1.47.47-3.21-1-5.2a10.44,10.44,0,0,0-1.44-1.59,6.78,6.78,0,0,0-1.45-1l-1.49.07c-.45,0-1,.06-1.66.12l-2.43.23-3.8.36c-3,.32-6.38.67-10,1.07l-10.37,1.15-8.29.94-4.14.47,1.73,2.39a15.36,15.36,0,0,0,1.28,1.56q3.44,3.77,10.82,5.07a56.44,56.44,0,0,0,16.21.31A43.85,43.85,0,0,0,537.14,318.77Zm-48.86,8.07a33.82,33.82,0,0,0,5.28-1.8,13.7,13.7,0,0,0,3.58-2.2,5.1,5.1,0,0,0,1.64-2.47,3.57,3.57,0,0,0-.11-2,9.39,9.39,0,0,0-1.24-2.19l-3-4.13-8.28.94-7.9.89c-2.42.28-4.64.53-6.65.78s-3.76.45-5.23.61c-3.27.4-5.92.76-8,1.07a19.5,19.5,0,0,0-4.79,1.21A3.16,3.16,0,0,0,452,319c-.27.59-.06,1.37.64,2.33a16.66,16.66,0,0,0,2.47,2.63,14.29,14.29,0,0,0,4.76,2.5,38.3,38.3,0,0,0,9.59,1.92,62.8,62.8,0,0,0,12-.31A48.64,48.64,0,0,0,488.28,326.84Z" transform="translate(-2.83 -19.17)" fill="#fdcd01"/><polygon points="537.88 290.11 535.98 287.49 554.46 285.39 556.36 288.01 537.88 290.11" fill="#fdcd01"/><polygon points="541.76 295.44 539.86 292.82 558.34 290.73 560.24 293.35 541.76 295.44" fill="#fdcd01"/><polygon points="428.41 302.5 426.51 299.88 444.99 297.79 446.89 300.41 428.41 302.5" fill="#fdcd01"/><polygon points="432.29 307.84 430.39 305.22 448.87 303.13 450.77 305.75 432.29 307.84" fill="#fdcd01"/><path d="M419.61,298.49l139,47.46s32.66-4,41-13.25L462.72,288.86S423.24,295.65,419.61,298.49Z" transform="translate(-2.83 -19.17)" fill="url(#linear-gradient-14)"/><path d="M412,230.85s-6.35,7.22-8.63,13.13-14.48,25.73-14.48,25.73l-18.41-5.33a11.38,11.38,0,0,0-3.27,8S387,283.79,391.8,283s16.3-14.38,16.3-14.38" transform="translate(-2.83 -19.17)" fill="#f7ac3a"/><path d="M412,230.85s-6.35,7.22-8.63,13.13-14.48,25.73-14.48,25.73l-18.41-5.33a11.38,11.38,0,0,0-3.27,8S387,283.79,391.8,283s16.3-14.38,16.3-14.38" transform="translate(-2.83 -19.17)" fill="url(#linear-gradient-15)"/><path d="M428.87,417.58l.6,8.37a8.13,8.13,0,0,1-4.81,1.12c-2.55-.32-7.64-5.55-8.87-5.29l0-2.49" transform="translate(-2.83 -19.17)" fill="#c58067"/><path d="M399.1,411.61l.6,8.37a8.13,8.13,0,0,1-4.81,1.12c-2.55-.33-7.64-5.55-8.86-5.3l0-2.49" transform="translate(-2.83 -19.17)" fill="#c58067"/><path d="M391.8,307.15s-9,50.07-8.63,51.11,2.5,56,2.5,56,5.73,3.86,13.79,0l1.27-55.13,8.1-43.75S395.87,305.71,391.8,307.15Z" transform="translate(-2.83 -19.17)" fill="#606161"/><path d="M391.8,307.15s-9,50.07-8.63,51.11,2.5,56,2.5,56,5.73,3.86,13.79,0l1.27-55.13,8.1-43.75S395.87,305.71,391.8,307.15Z" transform="translate(-2.83 -19.17)" fill="url(#linear-gradient-16)"/><path d="M401.22,305.33s4.47,59.58,5,60.56,9.59,54.21,9.59,54.21,6.36,4.07,13.85-.81l-5.92-54.84,2.75-52.29S405.06,303.38,401.22,305.33Z" transform="translate(-2.83 -19.17)" fill="#606161"/><path d="M401.22,305.33s4.47,59.58,5,60.56,9.59,54.21,9.59,54.21,6.36,4.07,13.85-.81l-5.92-54.84,2.75-52.29S405.06,303.38,401.22,305.33Z" transform="translate(-2.83 -19.17)" fill="url(#linear-gradient-17)"/><path d="M430.75,252.71C429.56,244,434,242,433,241.14c-.1-.14-4.72-3.45-4.9-3.54,0,0-8-7-11.9-6.52s-7.82,3.91-9.28,8.79-3.79,8.09-5.74,13.46,0,14.65-2.56,25.61c-2,8.58-6.86,28.21-6.86,28.21s16.54,12.76,22,13.31a77.89,77.89,0,0,0,15.84.2S428,303,427.06,295.2,432.21,263.46,430.75,252.71Z" transform="translate(-2.83 -19.17)" fill="#f7ac3a"/><path d="M402.22,297.91c1.43-5.16,4.8-10.07,9.8-12,1.05-.4,2.26-.75,2.76-1.74a4.51,4.51,0,0,0,.3-2c.08-4.74,2.3-9.14,4-13.56s3-9.46,1.12-13.83c-4,1.6-6.3,5.82-9.78,8.38a4.35,4.35,0,0,1-2.51,1c-2.09,0-3.27-2.32-4-4.27s-2.13-4.22-4.21-4c-.82,2.62,0,5.42.43,8.13,1.93,12.52-4.94,24.51-7.63,36.88-.4,1.84-.69,3.86.15,5.54.76,1.52,6.46,6.11,8.21,5.06C401.86,311,401.68,299.86,402.22,297.91Z" transform="translate(-2.83 -19.17)" fill="url(#linear-gradient-18)"/><path d="M431.76,267.6c-1.35,4.71-3.32,9.42-6.76,12.9-4.29,4.4-10.43,6.45-16.5,7.5a124.83,124.83,0,0,1-17.85,1.31c-6.61.15-13.21.35-19.82.5-1,0-2.28-.08-2.71-1a2.07,2.07,0,0,1,1.16-2.4c.89-.5,1.9-.66,2.71-1.2,1.5-1,2.05-2.93,3.4-4.13,1.58-1.35,5.87-3.59,8-3.59a121,121,0,0,0,16.34-1.28,13.06,13.06,0,0,0,5.26-1.39c1.73-1,2.62-.39,3.71-2.09a60.89,60.89,0,0,0,5-9.73c2.28-5.64,6.1-24.61,14.45-24.38C438.64,238.93,433.34,262.22,431.76,267.6Z" transform="translate(-2.83 -19.17)" fill="#f7ac3a"/><path d="M405.39,203.52c-1,2.5-.7,4-1.36,6.63a8.5,8.5,0,0,1-2,3.92c-1.09,1.13-.1,3,.09,4.4.32,2.47-3,7.64,2.37,8.48s8.9,5.69,9.59,10.14a6.86,6.86,0,0,0,7.65-1.81c3.18-3.7-2.79-12.26-3.3-19.14s-1.37-12.9-4.54-11.81C408.65,206.14,406.56,200.66,405.39,203.52Z" transform="translate(-2.83 -19.17)" fill="url(#linear-gradient-19)"/><path d="M401.22,200.32" transform="translate(-2.83 -19.17)" fill="#2a2d6b"/><path d="M428.48,237" transform="translate(-2.83 -19.17)" fill="#2a2d6b"/><path d="M370.86,265.48s-2.38-2.91-4.67-3.2-10-1.44-9.61.43-1.08,4.52,0,6.05,4.78,1.87,6.11,2.08,5.33.87,5.33.87" transform="translate(-2.83 -19.17)" fill="#c58067"/><rect x="358.67" y="256.28" width="7.62" height="16.19" rx="1.38" transform="translate(25.07 -53.69) rotate(5.67)" fill="#fff"/><path d="M376.25,423.46a1.5,1.5,0,0,0,.47,1.42,1.35,1.35,0,0,0,.71.16,100.23,100.23,0,0,0,18-1,5.17,5.17,0,0,0,3.42-1.45c.94-1.13.95-2.82.86-4.34a1.71,1.71,0,0,0-.15-.75,1.48,1.48,0,0,0-1.34-.56l-7.76-.36c-1.88-.1-3.89-.9-5.73-.84C381.47,415.85,376.56,419.81,376.25,423.46Z" transform="translate(-2.83 -19.17)" fill="#606161"/><path d="M406.58,428.76a1.52,1.52,0,0,0,.46,1.43,1.46,1.46,0,0,0,.72.15,101,101,0,0,0,18-1,5.24,5.24,0,0,0,3.43-1.45c.94-1.13.94-2.82.86-4.34a1.65,1.65,0,0,0-.16-.76,1.49,1.49,0,0,0-1.34-.56c-2.58-.12-5.17-.22-7.75-.36-1.89-.1-3.89-.9-5.73-.84C411.8,421.15,406.88,425.11,406.58,428.76Z" transform="translate(-2.83 -19.17)" fill="#606161"/><polygon points="150.19 256.83 380.82 189.38 389.52 214.95 158.35 280.49 150.19 256.83" fill="url(#linear-gradient-20)"/><g clip-path="url(#clip-path)"><path d="M399,261.14c0,18.05-49.26,39.4-110,47.67s-110,.32-110-17.73c0-2.32-.26-11,.11-20.49,0-1.14.08-2.23.12-3.37,1.95-9.7,17.43-20.16,40.72-28.9,19.91,2.86,44.52,8.48,69,5.15,24.12-3.29,47.9-15.34,67.37-24.13,24.12,2.29,40.23,8.56,42.37,17.86,0,1.28.08,2.57.12,3.8v.1C399.14,250.55,399,259,399,261.14Z" transform="translate(-2.83 -19.17)" fill="#fdcd01"/><path d="M399,261.14c0,18.05-49.26,39.4-110,47.67s-110,.32-110-17.73c0-2.32-.26-11,.11-20.49,0-1.14.08-2.23.12-3.37,1.95-9.7,17.43-20.16,40.72-28.9,19.91,2.86,44.52,8.48,69,5.15,24.12-3.29,47.9-15.34,67.37-24.13,24.12,2.29,40.23,8.56,42.37,17.86,0,1.28.08,2.57.12,3.8v.1C399.14,250.55,399,259,399,261.14Z" transform="translate(-2.83 -19.17)" fill="url(#linear-gradient-21)"/><path d="M399,239.38a8.49,8.49,0,0,1-.15,1.62v.1C395.88,258.73,347.79,279,289,287c-59.32,8.07-107.67.73-109.89-16.4a7.71,7.71,0,0,1-.11-1.28,10.06,10.06,0,0,1,.23-2.09c1.95-9.7,17.43-20.16,40.72-28.9,18.86-7.11,42.87-13.11,69-16.67,25.4-3.46,48.77-4.06,67.37-2.31,24.12,2.29,40.23,8.56,42.37,17.86A8.46,8.46,0,0,1,399,239.38Z" transform="translate(-2.83 -19.17)" fill="#fdcd01"/><path d="M377.81,240.2a7,7,0,0,1-.12,1.33v.08c-2.4,14.44-41.78,31-90,37.59-48.59,6.61-88.18.59-90-13.44a6.09,6.09,0,0,1-.09-1,8.52,8.52,0,0,1,.18-1.72c1.6-7.94,14.28-16.51,33.36-23.67,15.44-5.82,35.1-10.73,56.55-13.65,20.8-2.83,39.93-3.32,55.16-1.89,19.76,1.88,32.95,7,34.71,14.63A7.11,7.11,0,0,1,377.81,240.2Z" transform="translate(-2.83 -19.17)" fill="url(#linear-gradient-22)"/><path d="M266.43,271.66a61.41,61.41,0,0,1-7.49.6,47.7,47.7,0,0,1-6.2-.26,25.46,25.46,0,0,1-4.58-.87,16.07,16.07,0,0,1-5.27-2.64,41.83,41.83,0,0,1-3.72-3.33l-12.7-13,1.26-.33a15.35,15.35,0,0,0,3.38,1.36,15.3,15.3,0,0,0,7,.26c1-.18,2.22-.4,3.54-.67s2.68-.58,4.1-.92,2.78-.69,4.13-1l4.81-1.25,6.65-1.71c2.4-.62,4.87-1.26,7.39-1.93L276,244l6.68-1.76,5.55-1.46,5.65-1.52c1.91-.52,4.14-1.12,6.66-1.78q2.26-.6,4.56-1.26c1.53-.43,3-.87,4.34-1.31s2.58-.85,3.62-1.24a8.24,8.24,0,0,0,2.11-1c1-.73,1.51-1.34,1.61-1.84a2.9,2.9,0,0,0-.48-1.87l1.26-.33L330,241.31a11.29,11.29,0,0,1,2.1,2.89,4.57,4.57,0,0,1,.36,3.05q-.51,2.55-4.21,5.1T317,256.89a51.62,51.62,0,0,1-15,1.94,27.38,27.38,0,0,1-10.94-2.35l-.5.13a4.45,4.45,0,0,1,.41,3.26,7.48,7.48,0,0,1-2.3,3.57,21.39,21.39,0,0,1-5.25,3.47,45.22,45.22,0,0,1-8.4,3A71.79,71.79,0,0,1,266.43,271.66Zm56.6-23c2.66-1.51,4.22-2.93,4.72-4.26q.87-2.35-1.71-5a10.52,10.52,0,0,0-1.65-1.37,7.24,7.24,0,0,0-1.59-.81l-1.46.29-1.63.36-2.36.58-3.71.91q-4.45,1.13-9.76,2.5t-10.1,2.65l-8.06,2.13-4,1.06,2.06,2.11a13.89,13.89,0,0,0,1.48,1.36q3.94,3.23,11.45,3.45a56.38,56.38,0,0,0,16.08-2A43.75,43.75,0,0,0,323,248.63ZM275.85,263.7a34.17,34.17,0,0,0,5-2.55,13.85,13.85,0,0,0,3.23-2.7,5.08,5.08,0,0,0,1.26-2.68,3.63,3.63,0,0,0-.4-2,9.23,9.23,0,0,0-1.55-2l-3.57-3.66-8.06,2.13-7.69,2-6.47,1.73c-2,.54-3.65,1-5.08,1.37-3.17.87-5.75,1.6-7.75,2.21a20,20,0,0,0-4.56,1.89,3.1,3.1,0,0,0-1.35,1.64c-.18.62.14,1.35,1,2.21a17.45,17.45,0,0,0,2.83,2.24,14.57,14.57,0,0,0,5.07,1.79,38.12,38.12,0,0,0,9.77.5,62.36,62.36,0,0,0,11.87-2A50.58,50.58,0,0,0,275.85,263.7Z" transform="translate(-2.83 -19.17)" fill="#fdcd01"/><polygon points="322.36 219.55 320.1 217.23 338.08 212.48 340.34 214.8 322.36 219.55" fill="#fdcd01"/><polygon points="326.97 224.27 324.71 221.95 342.69 217.2 344.95 219.52 326.97 224.27" fill="#fdcd01"/><polygon points="215.84 247.68 213.58 245.36 231.56 240.61 233.83 242.93 215.84 247.68" fill="#fdcd01"/><polygon points="220.45 252.4 218.19 250.08 236.17 245.33 238.44 247.65 220.45 252.4" fill="#fdcd01"/><path d="M203.81,245.59,348.2,272.41s31.73-8.67,38.61-19L245.06,229.82S207,242.26,203.81,245.59Z" transform="translate(-2.83 -19.17)" fill="url(#linear-gradient-23)"/></g><path d="M331.29,430c-2.61,17.86-54.44,31.84-115.75,31.22s-108.89-15.63-106.27-33.49c.34-2.29,1.33-10.92,3.08-20.25.2-1.13.4-2.2.6-3.32,3.34-9.32,20.17-17.42,44.48-22.7,19.29,5.72,42.82,14.85,67.58,15.11,24.34.24,49.62-8.24,70.15-14.11,23.53,5.76,38.57,14.29,39.34,23.81-.15,1.27-.3,2.55-.44,3.78v.1C333,419.54,331.6,427.91,331.29,430Z" transform="translate(-2.83 -19.17)" fill="#fdcd01"/><path d="M331.29,430c-2.61,17.86-54.44,31.84-115.75,31.22s-108.89-15.63-106.27-33.49c.34-2.29,1.33-10.92,3.08-20.25.2-1.13.4-2.2.6-3.32,3.34-9.32,20.17-17.42,44.48-22.7,19.29,5.72,42.82,14.85,67.58,15.11,24.34.24,49.62-8.24,70.15-14.11,23.53,5.76,38.57,14.29,39.34,23.81-.15,1.27-.3,2.55-.44,3.78v.1C333,419.54,331.6,427.91,331.29,430Z" transform="translate(-2.83 -19.17)" fill="url(#linear-gradient-24)"/><path d="M334.45,408.47a8.46,8.46,0,0,1-.39,1.58v.1c-5.46,17-56,30.09-115.35,29.48-59.86-.61-106.64-14.88-106.35-32.15a7.85,7.85,0,0,1,.07-1.28,10.23,10.23,0,0,1,.53-2c3.34-9.32,20.17-17.42,44.48-22.7,19.7-4.29,44.32-6.75,70.74-6.48,25.63.26,48.84,3,67,7.48,23.53,5.76,38.57,14.29,39.34,23.81A8.54,8.54,0,0,1,334.45,408.47Z" transform="translate(-2.83 -19.17)" fill="#fdcd01"/><path d="M313.41,406.22a6.93,6.93,0,0,1-.32,1.29v.08c-4.47,13.94-45.84,24.65-94.46,24.15-49-.5-87.34-12.19-87.1-26.33a6.11,6.11,0,0,1,.06-1.05,8.55,8.55,0,0,1,.43-1.67c2.74-7.63,16.52-14.27,36.43-18.59,16.13-3.52,36.29-5.53,57.93-5.31,21,.22,40,2.5,54.86,6.13,19.28,4.72,31.59,11.7,32.22,19.5A7.24,7.24,0,0,1,313.41,406.22Z" transform="translate(-2.83 -19.17)" fill="url(#linear-gradient-25)"/><path d="M198.65,421.2a62.86,62.86,0,0,1-7.51-.49,48,48,0,0,1-6.09-1.16,25,25,0,0,1-4.41-1.53,15.76,15.76,0,0,1-4.83-3.37,40.14,40.14,0,0,1-3.2-3.84l-10.68-14.7,1.3-.15a15,15,0,0,0,3.15,1.83,15.3,15.3,0,0,0,6.88,1.28c1.05,0,2.25-.08,3.6-.16s2.74-.18,4.19-.31,2.85-.28,4.23-.43l4.94-.54,6.83-.73q3.7-.39,7.59-.83l7.51-.85,6.87-.78,5.7-.65c1.89-.21,3.83-.44,5.8-.68l6.85-.8c1.56-.17,3.12-.36,4.7-.57s3.07-.44,4.49-.67,2.67-.48,3.76-.71a8.42,8.42,0,0,0,2.23-.69q1.6-.87,1.86-1.59a3,3,0,0,0-.2-1.92l1.29-.14,10.43,14.36a11.15,11.15,0,0,1,1.67,3.16,4.66,4.66,0,0,1-.09,3.08c-.58,1.63-2.22,3.11-4.9,4.43s-6.62,2.27-11.8,2.86a51.79,51.79,0,0,1-15.11-.25,27.44,27.44,0,0,1-10.48-3.91l-.51.05a4.51,4.51,0,0,1-.07,3.29,7.63,7.63,0,0,1-2.79,3.2,21.54,21.54,0,0,1-5.7,2.67,44.47,44.47,0,0,1-8.75,1.75A69.63,69.63,0,0,1,198.65,421.2ZM258,406.61c2.85-1.1,4.6-2.28,5.29-3.53.8-1.47.47-3.2-1-5.19a9.52,9.52,0,0,0-1.43-1.59,7.16,7.16,0,0,0-1.46-1l-1.48.08c-.46,0-1,.06-1.67.12l-2.42.23-3.8.36c-3,.31-6.39.67-10,1.06l-10.37,1.15-8.29.94-4.14.47,1.74,2.39a14.18,14.18,0,0,0,1.27,1.56q3.43,3.76,10.83,5.07a56,56,0,0,0,16.2.31A42.94,42.94,0,0,0,258,406.61Zm-48.86,8.07a33.15,33.15,0,0,0,5.28-1.79,14,14,0,0,0,3.59-2.21,5.13,5.13,0,0,0,1.64-2.47,3.53,3.53,0,0,0-.12-2,9,9,0,0,0-1.24-2.19l-3-4.14-8.29.94-7.9.9c-2.42.27-4.63.53-6.65.77s-3.76.45-5.23.62q-4.89.6-8,1.06a19.44,19.44,0,0,0-4.79,1.22,3,3,0,0,0-1.56,1.42c-.28.58-.07,1.36.64,2.32a16.21,16.21,0,0,0,2.47,2.63,14.37,14.37,0,0,0,4.76,2.51,38.13,38.13,0,0,0,9.59,1.91,62,62,0,0,0,12-.3A50.21,50.21,0,0,0,209.12,414.68Z" transform="translate(-2.83 -19.17)" fill="#fdcd01"/><polygon points="258.73 377.95 256.82 375.33 275.3 373.24 277.21 375.86 258.73 377.95" fill="#fdcd01"/><polygon points="262.6 383.29 260.7 380.67 279.18 378.57 281.08 381.19 262.6 383.29" fill="#fdcd01"/><polygon points="149.26 390.35 147.35 387.73 165.84 385.63 167.74 388.25 149.26 390.35" fill="#fdcd01"/><polygon points="153.13 395.69 151.23 393.06 169.71 390.97 171.61 393.59 153.13 395.69" fill="#fdcd01"/><path d="M140.45,386.33l139,47.46s32.66-4,41-13.25L183.56,376.7S144.08,383.49,140.45,386.33Z" transform="translate(-2.83 -19.17)" fill="url(#linear-gradient-26)"/></svg>