<?xml version="1.0" encoding="UTF-8"?>
<svg width="527px" height="401px" viewBox="0 0 527 401" version="1.1" xmlns="http://www.w3.org/2000/svg" xmlns:xlink="http://www.w3.org/1999/xlink">
    <!-- Generator: Sketch 57.1 (83088) - https://sketch.com -->
    <title>on demand solution</title>
    <desc>Created with Sketch.</desc>
    <defs>
        <linearGradient x1="50.5204334%" y1="46.5692846%" x2="46.6088233%" y2="65.7772192%" id="linearGradient-1">
            <stop stop-color="#69E3FF" offset="0%"></stop>
            <stop stop-color="#69BBED" offset="100%"></stop>
        </linearGradient>
        <linearGradient x1="32.5999976%" y1="53.4270213%" x2="9.80578358%" y2="57.6215523%" id="linearGradient-2">
            <stop stop-color="#69E3FF" offset="0%"></stop>
            <stop stop-color="#69BBED" offset="100%"></stop>
        </linearGradient>
        <linearGradient x1="9.95829801%" y1="38.3733355%" x2="45.1680193%" y2="48.5496518%" id="linearGradient-3">
            <stop stop-color="#69E3FF" offset="0%"></stop>
            <stop stop-color="#69BBED" offset="100%"></stop>
        </linearGradient>
        <linearGradient x1="-2.84917881%" y1="50.220782%" x2="96.3447994%" y2="49.4509758%" id="linearGradient-4">
            <stop stop-color="#69E3FF" offset="0%"></stop>
            <stop stop-color="#69BBED" offset="100%"></stop>
        </linearGradient>
        <linearGradient x1="-16.6726533%" y1="51.677996%" x2="79.9090038%" y2="49.399569%" id="linearGradient-5">
            <stop stop-color="#69E3FF" offset="0%"></stop>
            <stop stop-color="#69BBED" offset="100%"></stop>
        </linearGradient>
        <linearGradient x1="76.7124771%" y1="38.2908148%" x2="24.1794095%" y2="73.6831096%" id="linearGradient-6">
            <stop stop-color="#ECC4D7" offset="0%"></stop>
            <stop stop-color="#EFD4D1" offset="42%"></stop>
            <stop stop-color="#F2EAC9" offset="100%"></stop>
        </linearGradient>
        <linearGradient x1="78.7632745%" y1="33.3399801%" x2="18.4829238%" y2="60.8688542%" id="linearGradient-7">
            <stop stop-color="#183866" offset="0%"></stop>
            <stop stop-color="#1A7FC3" offset="100%"></stop>
        </linearGradient>
        <linearGradient x1="99.9241191%" y1="49.9865887%" x2="0.102797182%" y2="49.9865887%" id="linearGradient-8">
            <stop stop-color="#183866" offset="0%"></stop>
            <stop stop-color="#1A7FC3" offset="100%"></stop>
        </linearGradient>
        <linearGradient x1="52.1761026%" y1="21.1201199%" x2="40.311985%" y2="146.129252%" id="linearGradient-9">
            <stop stop-color="#EFD4D1" offset="42%"></stop>
            <stop stop-color="#ECC4D7" offset="65%"></stop>
            <stop stop-color="#F2EAC9" offset="100%"></stop>
        </linearGradient>
        <linearGradient x1="-78.1232255%" y1="-9.44970622%" x2="75.2601071%" y2="52.7387769%" id="linearGradient-10">
            <stop stop-color="#ECC4D7" offset="0%"></stop>
            <stop stop-color="#785757" offset="42%"></stop>
            <stop stop-color="#927771" offset="55%"></stop>
            <stop stop-color="#F2EAC9" offset="100%"></stop>
        </linearGradient>
        <linearGradient x1="29.6106071%" y1="48.4908038%" x2="92.7412227%" y2="52.5013709%" id="linearGradient-11">
            <stop stop-color="#ECC4D7" offset="0%"></stop>
            <stop stop-color="#EFD4D1" offset="42%"></stop>
            <stop stop-color="#F2EAC9" offset="100%"></stop>
        </linearGradient>
        <linearGradient x1="45.5832303%" y1="89.2067819%" x2="54.5216906%" y2="10.107596%" id="linearGradient-12">
            <stop stop-color="#69E3FF" offset="0%"></stop>
            <stop stop-color="#69BBED" offset="100%"></stop>
        </linearGradient>
        <linearGradient x1="46.2384809%" y1="49.7369913%" x2="51.7984507%" y2="50.1481097%" id="linearGradient-13">
            <stop stop-color="#85DEF8" offset="0%"></stop>
            <stop stop-color="#7AB7E5" offset="100%"></stop>
        </linearGradient>
        <linearGradient x1="-22630.316%" y1="4305.12803%" x2="-22543.6095%" y2="4305.12803%" id="linearGradient-14">
            <stop stop-color="#ECC4D7" offset="0%"></stop>
            <stop stop-color="#EFD4D1" offset="42%"></stop>
            <stop stop-color="#F2EAC9" offset="100%"></stop>
        </linearGradient>
        <linearGradient x1="17.9617596%" y1="45.9644711%" x2="111.328145%" y2="61.8967184%" id="linearGradient-15">
            <stop stop-color="#69E3FF" offset="0%"></stop>
            <stop stop-color="#69BBED" offset="100%"></stop>
        </linearGradient>
        <linearGradient x1="71.8283222%" y1="42.3521463%" x2="-0.942578507%" y2="58.5191505%" id="linearGradient-16">
            <stop stop-color="#ECC4D7" offset="0%"></stop>
            <stop stop-color="#EFD4D1" offset="42%"></stop>
            <stop stop-color="#F2EAC9" offset="100%"></stop>
        </linearGradient>
        <linearGradient x1="37.314035%" y1="21.006326%" x2="5.87456279%" y2="76.6207969%" id="linearGradient-17">
            <stop stop-color="#183866" offset="0%"></stop>
            <stop stop-color="#1A7FC3" offset="100%"></stop>
        </linearGradient>
        <linearGradient x1="-6.23504057%" y1="8.03181324%" x2="101.170465%" y2="88.2167612%" id="linearGradient-18">
            <stop stop-color="#69E3FF" offset="0%"></stop>
            <stop stop-color="#69BBED" offset="100%"></stop>
        </linearGradient>
        <linearGradient x1="0%" y1="50%" x2="100%" y2="50%" id="linearGradient-19">
            <stop stop-color="#69E3FF" offset="0%"></stop>
            <stop stop-color="#69BBED" offset="100%"></stop>
        </linearGradient>
        <linearGradient x1="0%" y1="49.9962572%" x2="100%" y2="49.9962572%" id="linearGradient-20">
            <stop stop-color="#69E3FF" offset="0%"></stop>
            <stop stop-color="#69BBED" offset="100%"></stop>
        </linearGradient>
        <linearGradient x1="25.5581731%" y1="4.50414752%" x2="43.2288572%" y2="32.514136%" id="linearGradient-21">
            <stop stop-color="#C79DBD" offset="0%"></stop>
            <stop stop-color="#C395B7" offset="21%"></stop>
            <stop stop-color="#B781A6" offset="54%"></stop>
            <stop stop-color="#A4608A" offset="95%"></stop>
            <stop stop-color="#A35F89" offset="96%"></stop>
        </linearGradient>
        <linearGradient x1="19.0110182%" y1="33.4341289%" x2="83.4262578%" y2="62.8017415%" id="linearGradient-22">
            <stop stop-color="#C79DBD" offset="0%"></stop>
            <stop stop-color="#C395B7" offset="21%"></stop>
            <stop stop-color="#B781A6" offset="54%"></stop>
            <stop stop-color="#A4608A" offset="95%"></stop>
            <stop stop-color="#A35F89" offset="96%"></stop>
        </linearGradient>
        <linearGradient x1="-1.29533679%" y1="49.9921663%" x2="101.273748%" y2="49.9921663%" id="linearGradient-23">
            <stop stop-color="#69E3FF" offset="0%"></stop>
            <stop stop-color="#69BBED" offset="100%"></stop>
        </linearGradient>
        <linearGradient x1="-0.193406957%" y1="49.9811649%" x2="99.94734%" y2="49.9811649%" id="linearGradient-24">
            <stop stop-color="#69E3FF" offset="0%"></stop>
            <stop stop-color="#69BBED" offset="100%"></stop>
        </linearGradient>
        <linearGradient x1="0%" y1="49.9714775%" x2="99.7891185%" y2="49.9714775%" id="linearGradient-25">
            <stop stop-color="#69E3FF" offset="0%"></stop>
            <stop stop-color="#69BBED" offset="100%"></stop>
        </linearGradient>
    </defs>
    <g id="Page-1" stroke="none" stroke-width="1" fill="none" fill-rule="evenodd">
        <g id="ManyPixels-Home" transform="translate(-129.000000, -1973.000000)">
            <g id="on-demand-solution" transform="translate(129.000000, 1973.000000)">
                <path d="M308.528242,396.579528 L5.57888756,221.370945 C-0.214330144,218.017701 -2.17482057,194.84811 5.57888756,191.734835 L196.799199,95.6969134 C203.040514,92.0871244 210.730132,92.0871244 216.971447,95.6969134 L518.805024,255.686441 C531.08488,262.070866 527.743852,288.334787 518.805024,293.500425 L340.545383,396.579528 C330.64064,402.314155 318.432984,402.314155 308.528242,396.579528 Z" id="Path" fill="url(#linearGradient-1)" fill-rule="nonzero"></path>
                <path d="M308.528242,382.055118 L5.57888756,206.814961 C2.89080242,205.258956 1.23511626,202.384961 1.23511626,199.274898 C1.23511626,196.164834 2.89080242,193.290839 5.57888756,191.734835 L196.799199,81.1409291 C203.040514,77.5311401 210.730132,77.5311401 216.971447,81.1409291 L518.805024,255.686441 C522.953629,258.084149 525.509597,262.517444 525.509597,267.315441 C525.509597,272.113438 522.953629,276.546733 518.805024,278.944441 L340.545383,382.055118 C330.64064,387.789746 318.432984,387.789746 308.528242,382.055118 Z" id="Path" fill="url(#linearGradient-2)" fill-rule="nonzero"></path>
                <path d="M294.483313,353.947228 L28.8274043,200.297921 C26.4661242,198.936623 25.0106916,196.415349 25.0106916,193.686157 C25.0106916,190.956966 26.4661242,188.435692 28.8274043,187.074394 L196.509222,90.0892283 C201.987579,86.9192073 208.738319,86.9192073 214.216675,90.0892283 L478.857667,243.125984 C482.49772,245.227479 484.740798,249.115951 484.740798,253.324646 C484.740798,257.53334 482.49772,261.421812 478.857667,263.523307 L322.560562,353.947228 C313.874129,358.97421 303.169747,358.97421 294.483313,353.947228 Z" id="Path" fill="url(#linearGradient-3)" fill-rule="nonzero"></path>
                <path d="M112.49811,202.91863 L38.9261364,181.23937 C38.9261364,181.23937 11.7188158,190.408693 28.840012,200.304236 C45.9612081,210.19978 56.8227033,216.678929 56.8227033,216.678929 C56.8227033,216.678929 139.308289,216.401071 129.379761,208.639984 C119.451232,200.878898 112.49811,202.91863 112.49811,202.91863 Z" id="Path" fill="url(#linearGradient-4)" fill-rule="nonzero"></path>
                <polygon id="Path" fill="url(#linearGradient-5)" fill-rule="nonzero" points="171.457811 219.343843 94.4817703 232.573685 73.2756938 220.316346 178.574833 210.022961"></polygon>
                <path d="M210.642404,131.104898 L207.175299,129.09674 L207.175299,113.940835 L210.995419,111.774803 C211.095301,111.696794 211.14777,111.572559 211.134103,111.446425 C211.130007,111.273158 211.082305,111.103733 210.995419,110.953858 C210.908184,110.805622 210.787228,110.680125 210.642404,110.587591 C210.53669,110.515846 210.402988,110.499398 210.283086,110.543386 L206.500789,112.734677 L193.325789,105.118835 L193.325789,101.12778 C193.325045,100.956008 193.27706,100.787765 193.187105,100.641528 C193.103504,100.490561 192.981767,100.364253 192.834091,100.27526 L189.858684,98.5575906 C189.759338,98.4767749 189.623631,98.4573538 189.50567,98.5070709 C189.400228,98.5810736 189.344402,98.7075125 189.360682,98.8354488 L189.360682,102.826504 L185.893577,100.818346 C185.793565,100.738285 185.657169,100.721205 185.540562,100.774142 C185.446005,100.824661 185.401878,100.938331 185.401878,101.10252 L185.401878,104.518913 C185.409517,104.868606 185.594971,105.190151 185.893577,105.371433 L189.360682,107.379591 L189.360682,122.75652 C189.364459,122.927845 189.412221,123.095308 189.499366,123.242772 C189.585245,123.395792 189.708985,123.5241 189.858684,123.615354 L203.210191,131.351181 L203.210191,135.335921 C203.22239,135.684319 203.406681,136.003849 203.70189,136.188441 L206.677297,137.912425 C206.778413,137.989823 206.913287,138.006712 207.030311,137.95663 C207.135753,137.882627 207.191579,137.756188 207.175299,137.628252 L207.175299,133.643512 L210.642404,135.645354 C210.742416,135.725416 210.878811,135.742495 210.995419,135.689559 C211.089976,135.639039 211.134103,135.531685 211.134103,135.361181 L211.134103,131.982677 C211.121904,131.634279 210.937613,131.31475 210.642404,131.130157 L210.642404,131.104898 Z M193.300574,109.684551 L202.510467,115.014378 L193.300574,120.27474 L193.300574,109.684551 Z M203.210191,126.804409 L194.000299,121.474583 L203.210191,116.195276 L203.210191,126.804409 Z" id="Shape" fill="#FFFFFF" fill-rule="nonzero"></path>
                <path d="M301.524689,275.521732 C293.426812,276.342745 285.265631,276.317349 277.173002,275.445953 C271.121328,274.814457 264.243852,273.027323 261.634067,267.520677 C258.223696,260.315307 264.269067,252.547906 268.322428,245.689858 C269.375167,243.909039 270.327045,241.989291 270.453122,239.930614 C270.648541,236.829969 268.946507,233.906142 266.891459,231.582236 C259.585323,223.372787 247.797165,220.55 236.803289,220.783654 C225.809414,221.017307 215.017261,223.79589 204.061208,224.724189 C193.105156,225.652488 181.310694,224.458961 172.586196,217.777732" id="Path" stroke="#FFFFFF" stroke-width="0.63"></path>
                <path d="M122.773349,80.1431654 L131.869773,82.1828976 C131.869773,82.1828976 131.541974,57.7755748 135.8664,55.9379213 C140.190825,54.1002677 141.060754,55.4390394 141.432679,56.9862047 C141.804605,58.5333701 143.374258,61.5771811 142.233266,62.9159528 C140.936439,64.1997613 139.527125,65.3642878 138.022309,66.3954961 C138.022309,66.3954961 139.472189,88.4599685 136.559821,90.2723622 C133.647452,92.0847559 120.018577,89.4577323 120.018577,89.4577323 L122.773349,80.1431654 Z" id="Path" fill="url(#linearGradient-6)" fill-rule="nonzero"></path>
                <path d="M114.168624,73.4935118 L127.526435,79.6695433 C128.156818,80.0547559 129.001531,80.8693858 128.843935,81.5956063 L126.486304,90.8028189 C126.305477,91.6745119 125.472841,92.2500455 124.595156,92.1100157 L115.271794,88.2768346 L114.168624,73.4935118 Z" id="Path" fill="url(#linearGradient-7)" fill-rule="nonzero"></path>
                <path d="M119.432321,200.872583 C119.432321,200.872583 128.301806,206.309764 129.367153,208.633669 C130.4325,210.957575 129.505837,213.054142 124.431256,211.829039 C119.356675,210.603937 116.488433,210.08611 114.225359,208.854693 C111.962285,207.623276 108.986878,204.920472 109.850502,202.722866 C110.586262,200.765159 111.97329,199.121428 113.777787,198.06874 C114.824222,197.740362 119.432321,200.872583 119.432321,200.872583 Z" id="Path" fill="#061C3D" fill-rule="nonzero"></path>
                <path d="M121.619749,129.05885 C121.695395,132.784677 122.061017,127.164362 122.376208,130.883874 C123.555024,144.776787 127.608385,156.547874 125.767667,176.250551 C125.452476,179.68589 122.615754,188.918362 121.947548,192.296866 C121.367596,195.100709 120.938935,200.310551 119.154952,202.590252 C117.597907,204.579465 114.32622,204.307921 112.49811,202.91863 C109.882022,200.948362 111.09866,197.292 111.281471,194.488157 L112.838517,170.617606 C112.914138,170.007397 112.914138,169.390162 112.838517,168.779953 C112.598971,167.586425 106.894007,154.691276 107.001172,148.34474 C106.952305,143.955945 106.602671,139.57569 105.954737,135.234882 C105.954737,135.234882 108.570825,128.092661 113.89756,127.524315 C116.571795,127.104088 119.30813,127.647846 121.619749,129.05885 Z" id="Path" fill="#151F5B" fill-rule="nonzero"></path>
                <path d="M80.5692225,197.430929 C80.5692225,197.430929 84.5658493,206.271874 83.7778708,208.381071 C82.9898923,210.490268 78.7348086,209.511449 75.5828947,205.558283 C72.4309809,201.605118 70.5398325,199.527496 69.6005622,197.348835 C68.6612919,195.170173 69.058433,191.501181 71.3593301,190.667606 C73.0754967,189.917364 74.9985873,189.78789 76.7995335,190.301339 C77.9216148,190.711811 80.5692225,197.430929 80.5692225,197.430929 Z" id="Path" fill="#061C3D" fill-rule="nonzero"></path>
                <path d="M80.4557536,195.76378 L103.779916,174.330803 C105.857139,172.560278 107.730479,170.562896 109.365108,168.375795 C112.132488,164.365795 112.220742,160.355795 112.592667,155.689039 C112.920467,151.609575 113.199936,147.5259 113.431077,143.438016 C113.431077,142.869669 114.212751,133.258299 113.840825,133.176205 C109.326041,132.171396 104.762233,131.402041 100.167823,130.870772 C96.8425963,130.850147 93.5508154,131.536787 90.5103589,132.885717 C90.4962543,133.617407 90.5278351,134.349266 90.6049163,135.077008 C90.8885885,140.653118 92.1115311,146.166079 93.4857656,151.559055 C94.0657177,153.845071 94.6961005,156.118457 95.2949641,158.398157 C95.8244856,160.393685 96.6439833,161.852441 95.2949641,163.450126 C93.4983732,165.590898 90.9201077,167.321197 88.9470096,169.341984 C86.9739115,171.362772 85.0008134,173.560378 83.1790072,175.808504 C79.460456,180.398339 76.1984869,185.341178 73.4395933,190.566567 C73.285002,190.749253 73.2302603,190.996545 73.2932707,191.22757 C73.3562811,191.458596 73.5289411,191.643646 73.7547847,191.722205 C76.5410766,193.616693 76.2195813,194.481843 79.0058732,196.370016" id="Path" fill="#222A72" fill-rule="nonzero"></path>
                <path d="M88.638122,91.5669291 C88.9659211,93.6382362 89.2685048,95.760063 89.4639234,97.8818898 C90.0123565,103.281181 90.2645096,108.800457 90.3401555,113.85874 C90.5103589,125.225669 89.8169378,134.268693 89.8169378,134.268693 C89.8169378,134.268693 96.7133254,137.337764 107.65677,136.396835 C118.600215,135.455906 121.663876,129.349339 121.663876,129.349339 C121.663876,129.349339 120.775036,103.906362 120.497667,94.5160157 C120.238733,88.2250405 119.511776,81.962173 118.322847,75.7795276 C112.233349,69.9066142 102.109402,75.1985512 99.0079187,76.998315 C94.8726077,79.3853701 91.9413278,81.4945669 90.2392943,83.9068819 L90.2392943,83.9068819 C88.6654879,86.1260935 88.0853215,88.9016235 88.638122,91.5669291 Z" id="Path" fill="url(#linearGradient-8)" fill-rule="nonzero"></path>
                <polygon id="Path" fill="#FFFFFF" fill-rule="nonzero" opacity="0.34" points="92.080012 135.089638 93.580323 104.342094 90.6490431 105.459843 89.8043301 134.319213"></polygon>
                <path d="M91.6891746,107.354331 C92.8932057,101.03937 86.6019856,91.5669291 93.9522488,82.7259843 C96.1648923,80.1052756 97.5769498,80.0231811 100.716256,78.2171024 C103.987537,76.3411662 107.742436,75.4837746 111.502105,75.7542677 C111.502105,75.7542677 115.744581,74.5733701 118.322847,75.7542677 C111.388636,69.7992598 102.09049,75.2174961 99.0079187,77.0172598 C94.8726077,79.404315 91.9413278,81.5135118 90.2392943,83.9258268 L90.2392943,83.9258268 C89.1370864,85.3606185 88.5011682,87.0998073 88.417488,88.9083307 C88.2977153,92.5899528 91.6324402,107.676394 91.6891746,107.354331 Z" id="Path" fill="#FFFFFF" fill-rule="nonzero" opacity="0.34"></path>
                <path d="M109.43445,80.5536378 C106.187978,82.448126 101.737476,79.5748189 101.044055,78.3118268 C100.761624,77.4645466 100.594124,76.5830901 100.546053,75.6911181 C100.357888,73.2965478 99.9205508,70.9282168 99.2411603,68.6246772 C99.7745909,69.2229115 100.52219,69.5860238 101.321423,69.6350709 C104.372476,69.2814331 108.54561,66.3702362 109.175993,68.7572913 C109.175993,68.8204409 108.936447,73.8092598 108.949055,73.8850394 C109.762249,77.0425197 112.598971,78.6970394 109.43445,80.5536378 Z" id="Path" fill="url(#linearGradient-9)" fill-rule="nonzero"></path>
                <path d="M109.213816,68.7572913 C106.200586,68.4668031 99.6698206,69.8750394 99.6698206,69.8750394 C100.716256,71.5106142 100.602787,75.6911181 100.602787,75.6911181 L100.993624,78.1286929 C101.503571,78.8767143 102.162468,79.5109745 102.9289,79.9916063 C103.910409,80.5270565 104.957199,80.932502 106.04299,81.1977638 C105.929522,81.1977638 103.181053,75.9563465 105.362177,75.703748 L105.362177,75.703748 C105.542091,75.5568409 105.761482,75.4667316 105.99256,75.4448346 C107.625251,75.1543465 109.289462,72.6915118 109.459665,70.3928661 L109.213816,68.7572913 Z" id="Path" fill="url(#linearGradient-10)" fill-rule="nonzero"></path>
                <path d="M113.229354,57.0809291 C113.532446,57.5073771 113.709415,58.0107699 113.739964,58.5333701 C113.802008,60.072835 113.766214,61.6146949 113.632799,63.1496063 C113.81946,64.0443289 113.956255,64.9487676 114.042548,65.8587244 C114.042548,67.2795906 112.611579,74.2386772 108.646471,74.5102205 C105.812317,74.6074342 103.084236,73.4252642 101.214258,71.2895906 C99.9960861,69.8291249 98.8616728,68.3005495 97.8164952,66.7112441 C96.7709942,64.7060067 95.9587853,62.5871439 95.3958254,60.3962835 C95.0112919,58.0850079 96.1522847,53.5129764 97.9173565,53.1214488 L99.7139474,52.7109764 C99.9793603,51.9873656 100.548658,51.4170628 101.270993,51.1511811 C103.326041,50.2607717 104.738098,51.0627717 106.50317,52.2373543 C107.984569,53.247748 109.48488,54.1318425 110.915849,55.1232913 C111.790107,55.6427215 112.571959,56.3043081 113.229354,57.0809291 L113.229354,57.0809291 Z" id="Path" fill="url(#linearGradient-11)" fill-rule="nonzero"></path>
                <path d="M114.282093,55.0854016 C114.187536,55.4074646 114.168624,55.8053071 114.061459,56.0452756 C113.801172,56.6385336 113.359751,57.1337981 112.800694,57.4598268 C112.40593,57.6884887 111.949701,57.7878442 111.495801,57.744 C106.143852,56.4368031 105.26762,58.9501575 104.794833,59.0575118 C103.943816,59.3353701 103.029761,58.5712598 102.178744,58.874378 C101.509075,59.1854496 101.102167,59.8799249 101.157524,60.6173071 C101.157524,61.3245827 101.327727,62.0571181 101.277297,62.7833386 C101.277297,63.042252 101.472715,63.673748 101.277297,63.9326614 C101.277297,63.9326614 100.646914,63.831622 100.596483,63.831622 L100.199342,62.9791024 C100.098387,62.6339696 99.954363,62.3029774 99.7706818,61.9939685 C99.4302751,61.4950866 99.140299,61.1035591 98.7872847,61.0782992 C98.5806965,61.0711609 98.3780089,61.1358677 98.2136364,61.2614331 C97.4004426,61.7729449 97.4508732,63.029622 97.8732297,63.8821417 C98.4163091,64.6947061 98.8927571,65.5500256 99.2978947,66.4397008 C99.4996561,67.0377413 99.4996561,67.6856287 99.2978947,68.2836693 C98.667512,68.4668031 98.0371292,67.8795118 97.6904187,67.3174803 C96.5494258,65.6250709 96.4296531,63.6169134 95.5345096,61.8171496 C94.5448086,59.7647874 92.5969258,59.0006772 92.7293062,56.3610236 C92.8412971,54.9298082 93.4016748,53.5705921 94.3304785,52.4773228 C94.6265812,52.0798673 95.013535,51.7593628 95.4588636,51.5427087 C95.8055742,51.3911496 96.1901077,51.3532598 96.5368182,51.1890709 C96.912829,50.9845463 97.2448665,50.7077174 97.5139115,50.3744409 L99.3041986,48.442063 C99.818145,47.8171354 100.444678,47.2944593 101.15122,46.9012126 C101.862543,46.6110476 102.62118,46.4547706 103.389079,46.4402205 C104.683465,46.3391811 105.97575,46.2676115 107.265933,46.2255118 C108.252235,46.1257276 109.24847,46.2332701 110.190909,46.5412598 C112.63049,47.5263937 113.563457,50.519685 115.233971,52.3068189 C115.556081,52.6004608 115.804461,52.9661157 115.958911,53.3740472 C116.104596,53.7980891 115.926848,54.2658356 115.536555,54.4854803 C115.260751,54.5479426 114.980376,54.5880669 114.698146,54.6054646 C114.483338,54.6787638 114.324436,54.8620656 114.282093,55.0854016 Z" id="Path" fill="#222A72" fill-rule="nonzero"></path>
                <path d="M99.2537679,68.3910236 C98.6233852,68.5741575 97.9425718,67.9868661 97.6462919,67.4185197 C95.8244856,64.6525669 96.5305144,62.7959685 94.3872129,60.2510394 C94.2512838,60.2699719 94.1133933,60.2699719 93.9774641,60.2510394 L93.9774641,60.2510394 C93.9335454,60.1134365 93.9335454,59.9655399 93.9774641,59.827937 C94.0971133,59.7138851 94.260849,59.65844 94.4250359,59.676378 C95.9820813,59.5942835 98.2073325,59.5563937 98.7179426,61.2488031 C98.513162,61.242075 98.3131969,61.3118487 98.1569019,61.4445669 C97.4248067,62.1202519 97.2813864,63.2244102 97.8164952,64.0652756 C98.3599983,64.8996214 98.836389,65.7759547 99.2411603,66.6859843 C99.4186774,67.2397693 99.4230763,67.834665 99.2537679,68.3910236 L99.2537679,68.3910236 Z" id="Path" fill="#151F5B" fill-rule="nonzero"></path>
                <path d="M140.184522,82.612315 L141.628098,82.7070394" id="Path"></path>
                <path d="M125.017512,6.35916535 L175.504868,199.085449 L172.80683,220.316346 L159.751603,199.293843 L109.78116,10.7354331 C109.78116,10.7354331 108.879713,6.5928189 113.128493,1.89448819 C113.860561,1.0253326 114.943618,0.531532298 116.078684,0.548932804 C120.18878,0.536771654 125.017512,6.35916535 125.017512,6.35916535 Z" id="Path" fill="url(#linearGradient-12)" fill-rule="nonzero"></path>
                <path d="M125.017512,6.35916535 L175.504868,199.085449 L172.80683,220.316346 L171.621711,200.272661 L118.934318,4.81831496 L116.078684,0.511511811 C120.18878,0.536771654 125.017512,6.35916535 125.017512,6.35916535 Z" id="Path" fill="url(#linearGradient-13)" fill-rule="nonzero"></path>
                <path d="M135.759234,57.2135433 C135.387896,57.4696234 135.07435,57.8009343 134.838876,58.1860472 C134.758558,58.2893779 134.712296,58.4151674 134.706495,58.546 C134.721344,58.6513937 134.762544,58.7513178 134.826268,58.8364882 C135.6072,60.6315437 136.841197,62.1919987 138.406842,63.364315 C138.546469,63.4646253 138.69405,63.5533303 138.84811,63.6295433 C139.259895,63.7818844 139.716252,63.7567404 140.108876,63.5600787 C140.559494,63.3152756 140.937804,62.9558996 141.205742,62.5181102 C141.389291,62.2569313 141.516005,61.9600277 141.577667,61.6466457 C141.61546,61.3679624 141.61546,61.0854392 141.577667,60.8067559 C141.487489,59.2090407 140.933141,57.672562 139.982799,56.3862835 C139.510012,55.8495118 138.602261,55.2495906 137.940359,55.8305669 C137.659563,56.1044576 137.35587,56.3537568 137.032608,56.5757323 C136.59292,56.7563454 136.167283,56.9695397 135.759234,57.2135433 L135.759234,57.2135433 Z" id="Path" fill="url(#linearGradient-14)" fill-rule="nonzero"></path>
                <path d="M112.907859,22.5380945 C112.907859,22.5380945 116.286711,13.9876378 128.037045,17.8460787 L126.946483,13.6845197 C126.946483,13.6845197 117.251196,9.98395276 111.77317,18.2439213 L112.907859,22.5380945 Z" id="Path" fill="url(#linearGradient-15)" fill-rule="nonzero"></path>
                <path d="M108.829282,100.98885 L118.915407,110.461291 L144.7611,118.948598 C144.7611,118.948598 148.373194,116.662583 149.678086,117.15515 C150.982978,117.647717 148.139952,119.276976 148.606435,120.085291 C149.072919,120.893606 153.176711,120.944126 153.876435,120.653638 C154.57616,120.36315 156.713158,122.990173 153.989904,125.004646 C150.510191,127.58115 147.906711,126.033984 145.794928,125.396173 C143.683146,124.758362 142.088278,124.177386 142.088278,124.177386 C142.088278,124.177386 118.461531,119.706394 115.334833,118.373937 C112.208134,117.04148 101.819426,109.463528 101.819426,109.463528 L108.829282,100.98885 Z" id="Path" fill="url(#linearGradient-16)" fill-rule="nonzero"></path>
                <path d="M101.573577,110.227638 C102.132865,109.978078 102.67793,109.697686 103.206268,109.387748 C105.784927,107.950763 108.041974,105.999224 109.837895,103.653764 C110.237065,103.16719 110.533064,102.604228 110.707823,101.999244 C110.699291,101.958854 110.679638,101.921664 110.651089,101.89189 C110.705025,100.552849 110.205624,99.2507432 109.27055,98.2923622 C106.037425,94.0773982 102.35994,90.2240402 98.30189,86.7991339 C96.9780861,85.6877008 94.3052632,83.5974488 92.4330263,83.6416535 C91.0959269,83.680261 89.8240817,84.2292046 88.8776675,85.176189 L88.8776675,85.176189 C88.5284868,85.5438636 88.286492,86.000316 88.1779426,86.4960157 C87.0810766,91.7626929 90.9201077,97.6734961 94.0405024,102.043449 C96.0488074,105.196182 98.5993226,107.967148 101.573577,110.227638 L101.573577,110.227638 Z" id="Path" fill="url(#linearGradient-17)" fill-rule="nonzero"></path>
                <path d="M408.160239,329.059969 L431.957189,315.293354 C434.705658,313.708299 434.365251,310.929717 431.188122,309.092063 L431.188122,309.092063 C428.036208,307.254409 423.207476,307.052331 420.471615,308.643701 L396.668361,322.410315 C393.919892,324.001685 394.266603,326.780268 397.437428,328.617921 L397.437428,328.617921 C400.60195,330.455575 405.405467,330.651339 408.160239,329.059969 Z" id="Path" fill="url(#linearGradient-18)" fill-rule="nonzero"></path>
                <polygon id="Path" fill="url(#linearGradient-19)" fill-rule="nonzero" opacity="0.57" points="489.322022 208.652614 408.456519 255.421213 339.801531 215.71274 278.42116 180.210031 298.196268 168.767323 359.280359 133.441433"></polygon>
                <polygon id="Path" fill="url(#linearGradient-20)" fill-rule="nonzero" opacity="0.57" points="339.801531 215.71274 303.655383 236.61526 213.712368 184.598929 269.639928 152.253701 298.196268 168.767323 278.42116 180.210031"></polygon>
                <path d="M206.034306,72.2431496 C206.76555,82.763874 210.617189,90.5060157 216.359976,94.7117795 C217.570311,95.602189 227.908589,100.338409 229.276519,100.906756 C235.359713,103.43274 235.366017,97.7492756 243.296232,93.1456693 C261.45756,82.612315 274.916232,55.7484724 273.352883,33.1535433 C272.684677,23.5169134 276.567835,20.2520787 271.606722,15.8568661 C270.59811,14.9664567 260.820873,11.1017008 259.686184,10.4512598 C253.281495,6.8012126 244.947835,7.11064567 236.097261,12.2447087 C217.929629,22.771748 204.470957,49.6355906 206.034306,72.2431496 Z" id="Path" fill="url(#linearGradient-21)" fill-rule="nonzero"></path>
                <ellipse id="Oval" fill="url(#linearGradient-22)" fill-rule="nonzero" transform="translate(249.886506, 56.796251) rotate(-66.501434) translate(-249.886506, -56.796251) " cx="249.886506" cy="56.7962507" rx="47.7092099" ry="29.5285866"></ellipse>
                <polygon id="Path" fill="#FFFFFF" fill-rule="nonzero" points="231.218098 72.7167717 235.990096 63.7053228 246.013182 72.7167717 267.900072 30.0465827 272.754019 34.3091811 245.950144 86.1739528"></polygon>
                <path d="M68.7873684,126.930709 L48.930311,138.417622 C46.3520455,139.907953 44.2591746,138.329213 44.2591746,134.881244 L44.2591746,113.789276 C44.2591746,110.341307 46.3520455,106.337622 48.930311,104.847291 L68.7873684,93.360378 C71.365634,91.8700472 73.4585048,93.4551024 73.4585048,96.8967559 L73.4585048,117.988724 C73.4585048,121.430378 71.365634,125.434063 68.7873684,126.930709 Z" id="Path" stroke="url(#linearGradient-23)" stroke-width="0.7497"></path>
                <path d="M64.1477512,104.001087 L67.2240191,106.817559 C67.6211603,107.183827 67.520299,108.080551 67.0033852,108.844661 L65.7426196,110.669685 C65.2194019,111.421165 64.4818541,111.730598 64.0910167,111.364331 L61.1471292,108.617323 C60.7815072,108.27 60.8382416,107.449055 61.2921172,106.722835 L62.4078947,104.828346 C62.9311124,103.994772 63.7253947,103.615874 64.1477512,104.001087 Z" id="Path" fill="url(#linearGradient-24)" fill-rule="nonzero"></path>
                <path d="M59.3190191,109.539307 L63.7316986,113.915575 L61.0588756,120.451559 C60.3885787,122.113824 59.3188823,123.584542 57.9447847,124.733102 L49.3085407,131.679559 L55.9338636,121.87874 C55.9338636,121.87874 57.6863278,121.291449 57.5602512,119.984252 C57.4341746,118.677055 55.9716866,119.352756 55.6375837,120.23685 C55.3034809,121.120945 55.0513278,121.771386 55.0513278,121.771386 L48.785323,131.351181 L50.7395096,121.847165 C51.1134625,120.16331 51.8803625,118.592176 52.9773684,117.262504 L59.3190191,109.539307 Z" id="Path" fill="url(#linearGradient-25)" fill-rule="nonzero"></path>
                <path d="M369.78884,269.194142 C369.789639,268.519555 369.408545,267.902855 368.805443,267.602772 L366.416292,266.402929 L368.805443,265.209402 L368.805443,265.209402 C369.409578,264.908431 369.791552,264.290783 369.791552,263.614874 C369.791552,262.938965 369.409578,262.321317 368.805443,262.020346 L355.327859,255.269654 C354.335309,254.774696 353.168494,254.774696 352.175945,255.269654 L338.704665,262.020346 C338.10053,262.321317 337.718555,262.938965 337.718555,263.614874 C337.718555,264.290783 338.10053,264.908431 338.704665,265.209402 L341.093816,266.402929 L338.704665,267.602772 C338.117585,267.909712 337.749484,268.518116 337.749484,269.181512 C337.749484,269.844907 338.117585,270.453311 338.704665,270.760252 L341.093816,271.960094 L338.704665,273.153622 C338.10053,273.454593 337.718555,274.072241 337.718555,274.74815 C337.718555,275.424058 338.10053,276.041707 338.704665,276.342677 L352.182249,283.09337 C353.175937,283.583451 354.340474,283.583451 355.334163,283.09337 L368.811746,276.342677 C369.415882,276.041707 369.797856,275.424058 369.797856,274.74815 C369.797856,274.072241 369.415882,273.454593 368.811746,273.153622 L366.422596,271.960094 L368.811746,270.760252 C369.405337,270.463619 369.782786,269.858633 369.78884,269.194142 L369.78884,269.194142 Z M339.360263,263.889575 C339.256746,263.83959 339.19246,263.733083 339.196364,263.618031 C339.190764,263.502543 339.255572,263.395171 339.360263,263.346488 L352.844151,256.58948 C353.419776,256.311745 354.090332,256.311745 354.665957,256.58948 L368.143541,263.333858 C368.248398,263.383245 368.314894,263.489334 368.313759,263.605402 C368.314894,263.721469 368.248398,263.827558 368.143541,263.876945 L354.665957,270.627638 C354.091864,270.912017 353.418244,270.912017 352.844151,270.627638 L339.360263,263.889575 Z M368.143541,274.498709 C368.245955,274.551906 368.310242,274.657842 368.310242,274.773409 C368.310242,274.888977 368.245955,274.994913 368.143541,275.04811 L354.665957,281.798803 C354.091864,282.083183 353.418244,282.083183 352.844151,281.798803 L339.360263,275.04811 C339.257849,274.994913 339.193562,274.888977 339.193562,274.773409 C339.193562,274.657842 339.257849,274.551906 339.360263,274.498709 L342.739115,272.806299 L352.194856,277.536205 C352.682726,277.778343 353.220047,277.903723 353.76451,277.902472 C354.310716,277.901319 354.849548,277.776089 355.340467,277.536205 L364.796208,272.806299 L368.143541,274.498709 Z M368.143541,269.44674 L354.665957,276.216378 C354.093271,276.506726 353.416836,276.506726 352.844151,276.216378 L339.360263,269.465685 C339.255572,269.417002 339.190764,269.30963 339.196364,269.194142 C339.19246,269.07909 339.256746,268.972583 339.360263,268.922598 L342.739115,267.230189 L352.194856,271.960094 C353.186469,272.459028 354.355158,272.459028 355.34677,271.960094 L364.802512,267.230189 L368.17506,268.922598 C368.279917,268.971986 368.346413,269.078074 368.345278,269.194142 C368.341183,269.317959 368.260763,269.426215 368.143541,269.465685 L368.143541,269.44674 Z" id="Shape" fill="#FFFFFF" fill-rule="nonzero"></path>
                <polygon id="Path" stroke="#FFFFFF" stroke-width="1.3923" points="183.844833 255.200189 194.964785 266.560803 209.791388 252.143748 199.32073 240.783134"></polygon>
                <path d="M192.897129,245.759323 C192.897129,245.759323 189.543493,237.600394 193.02951,237.726693 C196.080562,237.834047 199.572883,249.725118 199.572883,249.725118 L200.833648,249.144142 C200.833648,249.144142 197.423278,236.987843 193.382524,236.621575 C190.381902,236.343717 189.461543,239.147559 192.077632,246.813921 L192.897129,245.759323 Z" id="Path" fill="#FFFFFF" fill-rule="nonzero"></path>
                <path d="M208.530622,250.773402 C208.530622,250.773402 216.441926,249.845102 218.83738,259.89852 C221.232835,269.951937 210.446986,266.775512 210.333517,265.026268 C210.220048,263.277024 211.644713,257.49252 211.09628,255.307543 C210.547847,253.122567 208.530622,250.773402 208.530622,250.773402 Z" id="Path" fill="#FFFFFF" fill-rule="nonzero"></path>
            </g>
        </g>
    </g>
</svg>