<?xml version="1.0" encoding="utf-8"?><svg xmlns="http://www.w3.org/2000/svg" xmlns:xlink="http://www.w3.org/1999/xlink" width="1362" height="2000" preserveAspectRatio="xMidYMid" viewBox="0 0 1362 2000" style="z-index:1;margin-right:-2px;display:block;background-repeat-y:initial;background-repeat-x:initial;background-color:rgba(255, 255, 255, 0);animation-play-state:paused" ><g transform="" style="animation-play-state:paused" ><linearGradient id="lg-0.6128390861718696" x1="0" x2="1" y1="0" y2="0" style="animation-play-state:paused" ><stop stop-color="#8585ec" offset="0" style="animation-play-state:paused" ></stop>

  
<stop stop-color="#0b0b14" offset="1" style="animation-play-state:paused" ></stop></linearGradient>
<path d="M 1424.2 1000 C 1424.2 1236.2 917.2 1475.6 681 1475.6 C 444.8 1475.6 -0.2 1236.2 -0.2 1000 C -0.2 763.8 444.8 634 681 634 C 917.2 634 1424.2 763.8 1424.2 1000" fill="url(#lg-0.6128390861718696)" opacity="0.4" style="opacity:0.4;animation-play-state:paused" ></path>
<path d="M 1265.6 1000 C 1265.6 1218 899 1323.6 681 1323.6 C 463 1323.6 35.6 1218 35.6 1000 C 35.6 782 463 626.6 681 626.6 C 899 626.6 1265.6 782 1265.6 1000" fill="url(#lg-0.6128390861718696)" opacity="0.4" style="opacity:0.4;animation-play-state:paused" ></path>
<path d="M 1501 1000 C 1501 1272 953 1387.4 681 1387.4 C 409 1387.4 -70.4 1272 -70.4 1000 C -70.4 728 409 446 681 446 C 953 446 1501 728 1501 1000" fill="url(#lg-0.6128390861718696)" opacity="0.4" style="opacity:0.4;animation-play-state:paused" ></path>
<path d="M 1409.2 1000 C 1409.2 1254.6 935.6 1423.4 681 1423.4 C 426.4 1423.4 -53.4 1254.6 -53.4 1000 C -53.4 745.4 426.4 509 681 509 C 935.6 509 1409.2 745.4 1409.2 1000" fill="url(#lg-0.6128390861718696)" opacity="0.4" style="opacity:0.4;animation-play-state:paused" ></path>
<path d="M 1557.4 1000 C 1557.4 1286.6 967.6 1449.4 681 1449.4 C 394.4 1449.4 -117.2 1286.6 -117.2 1000 C -117.2 713.4 394.4 409.4 681 409.4 C 967.6 409.4 1557.4 713.4 1557.4 1000" fill="url(#lg-0.6128390861718696)" opacity="0.4" style="opacity:0.4;animation-play-state:paused" ></path></g></svg>