<?xml version="1.0" encoding="utf-8"?><svg xmlns="http://www.w3.org/2000/svg" xmlns:xlink="http://www.w3.org/1999/xlink" width="1366" height="695" preserveAspectRatio="xMidYMid" viewBox="0 0 1366 695" style="z-index:1;margin-right:-2px;display:block;background-repeat-y:initial;background-repeat-x:initial;background-color:rgba(255, 255, 255, 0);animation-play-state:paused" ><g transform="" style="animation-play-state:paused" ><linearGradient id="lg-0.30233349641352136" x1="0" x2="1" y1="0" y2="0" style="animation-play-state:paused" ><stop stop-color="#8585ec" offset="0" style="animation-play-state:paused" ></stop>

  
<stop stop-color="#0b0b14" offset="1" style="animation-play-state:paused" ></stop></linearGradient>
<path d="M 1282.6 348 C 1282.6 520.8 991.8 740.4 828 793.8 C 664.2 847.2 286.6 848.8 185.4 709.4 C 84.2 570 91.8 130.6 193 -8.8 C 294.2 -148.2 644.8 -92.2 808.6 -38.6 C 972.4 15 1282.6 175.2 1282.6 348" fill="url(#lg-0.30233349641352136)" opacity="0.4" style="opacity:0.4;animation-play-state:paused" ></path>
<path d="M 1285.8 348 C 1285.8 518.2 1001 775.8 839.4 828.6 C 677.8 881.4 328.2 816 228.4 678 C 128.6 540 122.8 150.6 222.6 12.6 C 322.4 -125.4 665 -146.6 826.6 -93.8 C 988.2 -41 1285.8 177.8 1285.8 348" fill="url(#lg-0.30233349641352136)" opacity="0.4" style="opacity:0.4;animation-play-state:paused" ></path>
<path d="M 1327 348 C 1327 513.4 977 717.4 819.8 768.4 C 662.6 819.4 299 831 202 697.2 C 105 563.4 112.6 137.2 209.6 3.4 C 306.6 -130.4 662 -124 819.2 -72.8 C 976.4 -21.6 1327 182.6 1327 348" fill="url(#lg-0.30233349641352136)" opacity="0.4" style="opacity:0.4;animation-play-state:paused" ></path>
<path d="M 1259.2 348 C 1259.2 506 964 701.2 814 750.2 C 664 799.2 334.6 795.6 241.8 668 C 149 540.4 195.4 188.4 288.2 60.8 C 381 -66.8 649 -57.6 799 -8.6 C 949 40.4 1259.2 190 1259.2 348" fill="url(#lg-0.30233349641352136)" opacity="0.4" style="opacity:0.4;animation-play-state:paused" ></path>
<path d="M 1279.6 348 C 1279.6 507.2 960.8 688.2 809.4 737.2 C 658 786.2 347 788 253.8 658.8 C 160.6 529.6 156.8 162.2 250.8 33 C 344.8 -96.2 656.8 -85.8 808.2 -36.8 C 959.6 12.2 1279.6 188.8 1279.6 348" fill="url(#lg-0.30233349641352136)" opacity="0.4" style="opacity:0.4;animation-play-state:paused" ></path></g></svg>