<?xml version="1.0"?>
<svg xmlns="http://www.w3.org/2000/svg" id="bold" enable-background="new 0 0 24 24" height="512px" viewBox="0 0 24 24" width="512px"><g><path d="m16.68 3.03-8-3c-.12-.04-.24-.04-.36 0l-8 3c-.19.07-.32.26-.32.47v6.43c0 9.12 8.31 11.04 8.39 11.06.04.01.07.01.11.01s.07 0 .11-.01c.01 0 .17-.04.45-.13.3-1.63 1.73-2.86 3.44-2.86h1.33c1.7-1.68 3.17-4.24 3.17-8.07v-6.43c0-.21-.13-.4-.32-.47z" data-original="#000000" class="active-path" data-old_color="#000000" fill="#4949E7"/><path d="m21 18c-1.302 0-2.402.839-2.816 2h-5.684c-.827 0-1.5.673-1.5 1.5v1.5c0 .552.447 1 1 1s1-.448 1-1v-1h5.184c.414 1.161 1.514 2 2.816 2 1.654 0 3-1.346 3-3s-1.346-3-3-3zm0 4c-.552 0-1-.449-1-1s.448-1 1-1 1 .449 1 1-.448 1-1 1z" data-original="#000000" class="active-path" data-old_color="#000000" fill="#4949E7"/></g> </svg>
