<?xml version="1.0"?>
<svg xmlns="http://www.w3.org/2000/svg" id="_x31__x2C_5" enable-background="new 0 0 24 24" height="512px" viewBox="0 0 24 24" width="512px">
    <g><path d="m21 24c-1.654 0-3-1.346-3-3s1.346-3 3-3 3 1.346 3 3-1.346 3-3 3zm0-4.5c-.827 0-1.5.673-1.5 1.5s.673 1.5 1.5 1.5 1.5-.673 1.5-1.5-.673-1.5-1.5-1.5z" data-original="#000000" class="active-path" data-old_color="#000000" fill="#FFF"/><path d="m11.75 23.25c-.414 0-.75-.336-.75-.75v-1c0-.689.561-1.25 1.25-1.25h6.25c.414 0 .75.336.75.75s-.336.75-.75.75h-6v.75c0 .414-.336.75-.75.75z" data-original="#000000" class="active-path" data-old_color="#000000" fill="#FFF"/><path d="m13.75 23.25c-.414 0-.75-.336-.75-.75v-1.5c0-.414.336-.75.75-.75s.75.336.75.75v1.5c0 .414-.336.75-.75.75z" data-original="#000000" class="active-path" data-old_color="#000000" fill="#FFF"/><path d="m8.25 20h-6c-1.241 0-2.25-1.01-2.25-2.25v-8.5c0-1.24 1.009-2.25 2.25-2.25h11.5c1.241 0 2.25 1.01 2.25 2.25v8c0 .414-.336.75-.75.75s-.75-.336-.75-.75v-8c0-.413-.336-.75-.75-.75h-11.5c-.414 0-.75.337-.75.75v8.5c0 .413.336.75.75.75h6c.414 0 .75.336.75.75s-.336.75-.75.75z" data-original="#000000" class="active-path" data-old_color="#000000" fill="#FFF"/><path d="m12.25 8.5c-.414 0-.75-.336-.75-.75v-2.75c0-1.93-1.57-3.5-3.5-3.5s-3.5 1.57-3.5 3.5v2.75c0 .414-.336.75-.75.75s-.75-.336-.75-.75v-2.75c0-2.757 2.243-5 5-5s5 2.243 5 5v2.75c0 .414-.336.75-.75.75z" data-original="#000000" class="active-path" data-old_color="#000000" fill="#FFF"/></g> </svg>
