<svg height="512" viewBox="0 0 512 512" width="512" xmlns="http://www.w3.org/2000/svg"><g id="flat"><path d="m400 356.807v51.193l-56 36.807 16 24 72-44.807v-67.193z" fill="#cdccc8"/><path d="m256 24a184 184 0 0 0 -184 184v56h48v-56a136 136 0 0 1 136-136 136 136 0 0 1 136 136v56h48v-56a184 184 0 0 0 -184-184z" fill="#f6f6f6"/><path d="m72 220.807h16a0 0 0 0 1 0 0v144a0 0 0 0 1 0 0h-16a48 48 0 0 1 -48-48v-48a48 48 0 0 1 48-48z" fill="#5b89b9"/><path d="m472 220.807h16a0 0 0 0 1 0 0v144a0 0 0 0 1 0 0h-16a48 48 0 0 1 -48-48v-48a48 48 0 0 1 48-48z" fill="#5b89b9" transform="matrix(-1 0 0 -1 912 585.614)"/><g fill="#6699ce"><rect height="48" rx="24" transform="matrix(.832 -.554 .554 .832 -192.606 273.477)" width="80" x="315.775" y="431.13"/><rect height="176" rx="40" width="80" x="72" y="204.807"/><rect height="176" rx="40" transform="matrix(-1 0 0 -1 800 585.614)" width="80" x="360" y="204.807"/></g><path d="m328 328v24l-32-24h-93a19 19 0 0 1 -19-19v-58a19 19 0 0 1 19-19h106a19 19 0 0 1 19 19z" fill="#eae9e4"/><circle cx="224" cy="280" fill="#a6deff" r="8"/><circle cx="256" cy="280" fill="#a6deff" r="8"/><circle cx="288" cy="280" fill="#a6deff" r="8"/><path d="m112 256a8 8 0 0 1 -8-8v-8a8 8 0 0 1 16 0v8a8 8 0 0 1 -8 8z" fill="#5b89b9"/><path d="m112 336a8 8 0 0 1 -8-8v-48a8 8 0 0 1 16 0v48a8 8 0 0 1 -8 8z" fill="#5b89b9"/></g></svg>