<?xml version="1.0" encoding="utf-8"?>
<!-- Generator: Adobe Illustrator 21.0.2, SVG Export Plug-In . SVG Version: 6.00 Build 0)  -->
<svg version="1.1" id="Layer_1" xmlns="http://www.w3.org/2000/svg" xmlns:xlink="http://www.w3.org/1999/xlink" x="0px" y="0px"
	 viewBox="0 0 72 72" style="enable-background:new 0 0 72 72;" xml:space="preserve">
<style type="text/css">
	.st0{fill:#009CDE;}
</style>
<title>icon.Secure.72x72</title>
<g>
	<path class="st0" d="M35.7,59.7c0.3,0,0.5-0.2,0.5-0.5v-6.4c2-0.2,3.6-2,3.6-4.1c0-2.3-1.8-4.1-4.1-4.1c-2.3,0-4.1,1.8-4.1,4.1
		c0,2.1,1.6,3.8,3.6,4.1v6.4C35.2,59.4,35.4,59.7,35.7,59.7z"/>
	<path class="st0" d="M56.9,32.9c0-0.1,0.1-0.2,0.1-0.3l0.1-12.3C57.1,9.1,47.9,0,36.7,0S16.4,9.1,16.4,20.4v11
		c0,0.3,0.2,0.5,0.5,0.5h33.8c5.2,0,9.5,4.3,9.5,9.5V71H12l-0.2-30.6c0-0.3-0.2-0.5-0.5-0.5c0,0,0,0,0,0c-0.3,0-0.5,0.2-0.5,0.5
		L11,71.5c0,0.3,0.2,0.5,0.5,0.5h49.2c0.3,0,0.5-0.2,0.5-0.5V41.4C61.2,37.9,59.5,34.8,56.9,32.9z M56,32.3
		c-1.6-0.9-3.4-1.4-5.3-1.4H17.4V20.4C17.4,9.7,26,1,36.7,1c10.7,0,19.4,8.7,19.4,19.4L56,32.3z"/>
</g>
</svg>
