<?xml version="1.0" encoding="utf-8"?>
<!-- Generator: Adobe Illustrator 23.0.4, SVG Export Plug-In . SVG Version: 6.00 Build 0)  -->
<svg version="1.1" id="Layer_1" xmlns="http://www.w3.org/2000/svg" xmlns:xlink="http://www.w3.org/1999/xlink" x="0px" y="0px"
	 viewBox="0 0 265 77" style="enable-background:new 0 0 265 77;" xml:space="preserve">
<style type="text/css">
	.st0{fill:none;stroke:#9E9E9E;stroke-miterlimit:10;}
	.st1{fill:#FFFFFF;}
	.st2{fill:#FFE300;}
	.st3{fill:#FF4E54;}
	.st4{fill:#00F085;}
	.st5{fill:#00E0FF;}
</style>
<g>
	<title>Appstore</title>
	<desc>Created with Sketch.</desc>
	<g id="Icons">
		<g id="Artboard" transform="translate(-579.000000, -81.000000)">
			<g id="Appstore" transform="translate(579.000000, 81.000000)">
				
					<image style="overflow:visible;enable-background:new    ;" width="1274" height="374" id="GooglePlay-Copy" xlink:href="4000B4FE5DC8E534.png"  transform="matrix(0.2059 0 0 0.2059 1.2686 0)">
				</image>
			</g>
		</g>
	</g>
</g>
<rect x="80.6" y="10.8" width="87.8" height="18"/>
<g>
	<path d="M263.4,64.2c0,6.6-5.4,12-12,12H13.6c-6.6,0-12-5.4-12-12V14c0-6.6,5.4-12,12-12h237.9c6.6,0,12,5.4,12,12V64.2z"/>
	<path class="st0" d="M263.4,64.2c0,6.6-5.4,12-12,12H13.6c-6.6,0-12-5.4-12-12V14c0-6.6,5.4-12,12-12h237.9c6.6,0,12,5.4,12,12
		V64.2z"/>
</g>
<g>
	<path class="st1" d="M89.5,24.4c-0.4,0.2-1.3,0.5-2.5,0.5c-2.7,0-4.7-1.7-4.7-4.8c0-3,2-5,4.9-5c1.2,0,1.9,0.3,2.2,0.4l-0.3,1
		c-0.5-0.2-1.1-0.4-1.9-0.4c-2.2,0-3.7,1.4-3.7,3.9c0,2.3,1.3,3.8,3.6,3.8c0.7,0,1.5-0.2,2-0.4L89.5,24.4z"/>
	<path class="st1" d="M98.8,19.9c0,3.2-2,5-4.4,5c-2.5,0-4.2-1.9-4.2-4.8c0-3,1.9-5,4.4-5C97.2,15.1,98.8,17.1,98.8,19.9z
		 M91.5,20.1c0,2,1.1,3.8,3,3.8c1.9,0,3-1.8,3-3.9c0-1.9-1-3.8-3-3.8C92.5,16.1,91.5,18,91.5,20.1z"/>
	<path class="st1" d="M108.4,20.6c-0.1-1.3-0.2-2.9-0.1-4.1h0c-0.3,1.1-0.7,2.3-1.2,3.6l-1.7,4.6h-0.9l-1.5-4.5
		c-0.4-1.3-0.8-2.5-1.1-3.7h0c0,1.2-0.1,2.8-0.2,4.2l-0.3,4h-1.2l0.7-9.4h1.6l1.6,4.6c0.4,1.2,0.7,2.2,1,3.2h0c0.2-1,0.6-2,1-3.2
		l1.7-4.6h1.6l0.6,9.4h-1.2L108.4,20.6z"/>
	<path class="st1" d="M112.9,15.3v9.4h-1.2v-9.4H112.9z"/>
	<path class="st1" d="M115,24.7v-9.4h1.3l3,4.8c0.7,1.1,1.2,2.1,1.7,3.1l0,0c-0.1-1.3-0.1-2.4-0.1-3.9v-4h1.1v9.4h-1.2l-3-4.8
		c-0.7-1.1-1.3-2.1-1.8-3.2l0,0c0.1,1.2,0.1,2.3,0.1,3.9v4H115z"/>
	<path class="st1" d="M131.4,24.3c-0.5,0.2-1.6,0.5-2.9,0.5c-1.4,0-2.6-0.4-3.5-1.2c-0.8-0.8-1.3-2-1.3-3.5c0-2.8,1.9-4.9,5.1-4.9
		c1.1,0,1.9,0.2,2.4,0.4l-0.3,1c-0.5-0.2-1.1-0.4-2.1-0.4c-2.3,0-3.8,1.4-3.8,3.8c0,2.4,1.4,3.8,3.6,3.8c0.8,0,1.3-0.1,1.6-0.3v-2.8
		h-1.9v-1h3.1V24.3z"/>
	<path class="st1" d="M136.1,23.3c0.5,0.3,1.3,0.6,2.2,0.6c1.2,0,2-0.7,2-1.6c0-0.9-0.5-1.4-1.8-1.9c-1.5-0.5-2.5-1.3-2.5-2.7
		c0-1.5,1.2-2.6,3.1-2.6c1,0,1.7,0.2,2.1,0.5l-0.3,1c-0.3-0.2-0.9-0.4-1.8-0.4c-1.3,0-1.8,0.8-1.8,1.4c0,0.9,0.6,1.3,1.9,1.8
		c1.6,0.6,2.4,1.4,2.4,2.8c0,1.5-1.1,2.7-3.3,2.7c-0.9,0-1.9-0.3-2.4-0.6L136.1,23.3z"/>
	<path class="st1" d="M151.2,19.9c0,3.2-2,5-4.4,5c-2.5,0-4.2-1.9-4.2-4.8c0-3,1.9-5,4.4-5C149.5,15.1,151.2,17.1,151.2,19.9z
		 M143.9,20.1c0,2,1.1,3.8,3,3.8c1.9,0,3-1.8,3-3.9c0-1.9-1-3.8-3-3.8C144.9,16.1,143.9,18,143.9,20.1z"/>
	<path class="st1" d="M160.8,19.9c0,3.2-2,5-4.4,5c-2.5,0-4.2-1.9-4.2-4.8c0-3,1.9-5,4.4-5C159.2,15.1,160.8,17.1,160.8,19.9z
		 M153.5,20.1c0,2,1.1,3.8,3,3.8c1.9,0,3-1.8,3-3.9c0-1.9-1-3.8-3-3.8C154.5,16.1,153.5,18,153.5,20.1z"/>
	<path class="st1" d="M162.4,24.7v-9.4h1.3l3,4.8c0.7,1.1,1.2,2.1,1.7,3.1l0,0c-0.1-1.3-0.1-2.4-0.1-3.9v-4h1.1v9.4h-1.2l-3-4.8
		c-0.7-1.1-1.3-2.1-1.8-3.2l0,0c0.1,1.2,0.1,2.3,0.1,3.9v4H162.4z"/>
	<path class="st1" d="M182.7,19.9c0,3.2-2,5-4.4,5c-2.5,0-4.2-1.9-4.2-4.8c0-3,1.9-5,4.4-5C181,15.1,182.7,17.1,182.7,19.9z
		 M175.3,20.1c0,2,1.1,3.8,3,3.8c1.9,0,3-1.8,3-3.9c0-1.9-1-3.8-3-3.8C176.4,16.1,175.3,18,175.3,20.1z"/>
	<path class="st1" d="M184.3,24.7v-9.4h1.3l3,4.8c0.7,1.1,1.2,2.1,1.7,3.1l0,0c-0.1-1.3-0.1-2.4-0.1-3.9v-4h1.1v9.4h-1.2l-3-4.8
		c-0.7-1.1-1.3-2.1-1.8-3.2l0,0c0.1,1.2,0.1,2.3,0.1,3.9v4H184.3z"/>
</g>
<g>
	<path class="st1" d="M100,55.9c-1.3,0.5-3.9,1.2-6.9,1.2c-3.4,0-6.2-0.9-8.4-3c-1.9-1.9-3.1-4.8-3.1-8.3c0-6.7,4.6-11.6,12.2-11.6
		c2.6,0,4.7,0.6,5.6,1l-0.7,2.4c-1.2-0.5-2.7-1-5-1c-5.5,0-9,3.4-9,9c0,5.7,3.4,9.1,8.7,9.1c1.9,0,3.2-0.3,3.9-0.6v-6.7h-4.5v-2.3
		h7.4V55.9z"/>
	<path class="st1" d="M119.1,48.7c0,6-4.1,8.6-8,8.6c-4.4,0-7.8-3.2-7.8-8.3c0-5.4,3.5-8.6,8-8.6C116,40.4,119.1,43.7,119.1,48.7z
		 M106.4,48.8c0,3.5,2,6.2,4.9,6.2c2.8,0,4.9-2.6,4.9-6.3c0-2.7-1.4-6.2-4.9-6.2C107.9,42.6,106.4,45.8,106.4,48.8z"/>
	<path class="st1" d="M137.5,48.7c0,6-4.1,8.6-8,8.6c-4.4,0-7.8-3.2-7.8-8.3c0-5.4,3.5-8.6,8-8.6C134.4,40.4,137.5,43.7,137.5,48.7z
		 M124.7,48.8c0,3.5,2,6.2,4.9,6.2c2.8,0,4.9-2.6,4.9-6.3c0-2.7-1.4-6.2-4.9-6.2C126.2,42.6,124.7,45.8,124.7,48.8z"/>
	<path class="st1" d="M155.2,40.7c-0.1,1.1-0.1,2.4-0.1,4.4v9.4c0,3.7-0.8,6-2.3,7.4c-1.6,1.5-3.8,1.9-5.9,1.9c-2,0-4.1-0.5-5.4-1.3
		l0.7-2.3c1.1,0.7,2.7,1.3,4.7,1.3c3,0,5.2-1.6,5.2-5.7v-1.8h-0.1c-0.9,1.5-2.6,2.7-5.1,2.7c-4,0-6.9-3.4-6.9-7.9
		c0-5.5,3.6-8.6,7.3-8.6c2.8,0,4.3,1.4,5,2.8h0.1l0.1-2.4H155.2z M152.1,47.1c0-0.5,0-0.9-0.2-1.3c-0.5-1.7-2-3.1-4.1-3.1
		c-2.8,0-4.8,2.4-4.8,6.1c0,3.2,1.6,5.8,4.8,5.8c1.8,0,3.5-1.2,4.1-3c0.2-0.5,0.2-1,0.2-1.6V47.1z"/>
	<path class="st1" d="M159.9,33.2h2.9v23.7h-2.9V33.2z"/>
	<path class="st1" d="M169.4,49.3c0.1,4,2.6,5.6,5.5,5.6c2.1,0,3.4-0.4,4.5-0.8l0.5,2.1c-1,0.5-2.8,1-5.4,1c-5,0-7.9-3.3-7.9-8.1
		c0-4.9,2.9-8.7,7.6-8.7c5.3,0,6.6,4.6,6.6,7.6c0,0.6,0,1.1-0.1,1.4H169.4z M178,47.2c0-1.8-0.8-4.7-4-4.7c-3,0-4.3,2.7-4.5,4.7H178
		z"/>
	<path class="st1" d="M191.6,34.7c1.4-0.2,3.2-0.4,5.6-0.4c2.9,0,5,0.7,6.3,1.9c1.2,1.1,2,2.7,2,4.7c0,2-0.6,3.6-1.7,4.8
		c-1.5,1.6-4,2.5-6.9,2.5c-0.9,0-1.7,0-2.3-0.2v9h-2.9V34.7z M194.5,45.5c0.6,0.2,1.5,0.3,2.4,0.3c3.5,0,5.6-1.7,5.6-4.8
		c0-3-2.1-4.4-5.3-4.4c-1.3,0-2.2,0.1-2.7,0.2V45.5z"/>
	<path class="st1" d="M209.1,33.2h2.9v23.7h-2.9V33.2z"/>
	<path class="st1" d="M225.9,56.9l-0.3-2h-0.1c-0.9,1.3-2.6,2.4-4.9,2.4c-3.3,0-4.9-2.3-4.9-4.6c0-3.9,3.5-6.1,9.7-6v-0.3
		c0-1.3-0.4-3.7-3.7-3.7c-1.5,0-3.1,0.4-4.2,1.2l-0.7-2c1.3-0.9,3.3-1.4,5.3-1.4c4.9,0,6.1,3.4,6.1,6.6v6c0,1.4,0.1,2.8,0.2,3.9
		H225.9z M225.5,48.6c-3.2-0.1-6.8,0.5-6.8,3.6c0,1.9,1.3,2.8,2.7,2.8c2.1,0,3.5-1.3,3.9-2.7c0.1-0.3,0.1-0.6,0.1-0.9V48.6z"/>
	<path class="st1" d="M233.9,40.7l3.5,9.5c0.4,1.1,0.8,2.3,1,3.3h0.1c0.3-0.9,0.6-2.2,1-3.4l3.2-9.5h3.1l-4.4,11.5
		c-2.1,5.5-3.5,8.4-5.5,10.1c-1.5,1.3-2.9,1.8-3.6,1.9l-0.7-2.5c0.7-0.2,1.7-0.7,2.6-1.4c0.8-0.6,1.8-1.8,2.5-3.3
		c0.1-0.3,0.2-0.5,0.2-0.7c0-0.2,0-0.4-0.2-0.8l-5.9-14.9H233.9z"/>
</g>
<g id="g3042" transform="translate(0,7.0250703e-6)">
	<path id="path16" class="st2" d="M54.8,46.2c5.9-3.2,10.4-5.7,10.8-5.9c1.2-0.7,2.5-2.4,0-3.7c-0.8-0.4-5.2-2.8-10.8-5.9l-7.7,7.8
		C47.1,38.4,54.8,46.2,54.8,46.2z"/>
	<path id="path23" class="st3" d="M47.1,38.4L22.4,63.3c0.6,0.1,1.2-0.1,2-0.5c1.6-0.9,18.7-10.3,30.4-16.7L47.1,38.4L47.1,38.4z"/>
	<path id="path30" class="st4" d="M47.1,38.4l7.7-7.8c0,0-28.7-15.7-30.4-16.6c-0.7-0.4-1.4-0.5-2-0.3L47.1,38.4z"/>
	<path id="path37" class="st5" d="M47.1,38.4L22.4,13.7c-1,0.2-1.9,1.1-1.9,2.9c0,2.9,0,41.3,0,43.7c0,1.7,0.7,2.8,1.9,3L47.1,38.4z
		"/>
</g>
</svg>
