
<svg id="Layer_1" data-name="Layer 1" xmlns="http://www.w3.org/2000/svg" xmlns:xlink="http://www.w3.org/1999/xlink" viewBox="0 0 284 335"><defs><style>.cls-1{fill:#222a72;}.cls-2{fill:url(#linear-gradient);}.cls-3{opacity:0.2;fill:url(#linear-gradient-2);}.cls-4{fill:url(#linear-gradient-3);}.cls-5{fill:url(#linear-gradient-4);}.cls-6{fill:url(#linear-gradient-5);}.cls-7{fill:url(#linear-gradient-6);}.cls-8{fill:#071b3d;}.cls-9{fill:#151f5b;}.cls-10{fill:url(#linear-gradient-7);}.cls-11,.cls-18{fill:#fff;}.cls-11{opacity:0.34;isolation:isolate;}.cls-12{fill:url(#linear-gradient-8);}.cls-13{fill:url(#linear-gradient-9);}.cls-14{fill:url(#linear-gradient-10);}.cls-15{fill:url(#linear-gradient-11);}.cls-16{fill:#161e51;}.cls-17{fill:url(#linear-gradient-12);}.cls-19{fill:url(#linear-gradient-13);}</style><linearGradient id="linear-gradient" x1="146.82" y1="126.53" x2="209.69" y2="126.53" gradientUnits="userSpaceOnUse"><stop offset="0" stop-color="#69e3ff"/><stop offset="1" stop-color="#69bbed"/></linearGradient><linearGradient id="linear-gradient-2" x1="-1283.4" y1="513.31" x2="-1171.34" y2="431.04" gradientTransform="matrix(-0.5, 0.87, -0.58, -1, -204.75, 1811.61)" gradientUnits="userSpaceOnUse"><stop offset="0" stop-color="#34c2eb"/><stop offset="1" stop-color="#1a7fc3"/></linearGradient><linearGradient id="linear-gradient-3" x1="173.01" y1="117.61" x2="165.57" y2="118.51" xlink:href="#linear-gradient"/><linearGradient id="linear-gradient-4" x1="189.5" y1="153.66" x2="178.28" y2="155.02" xlink:href="#linear-gradient"/><linearGradient id="linear-gradient-5" x1="129.94" y1="106.37" x2="155.71" y2="106.37" gradientUnits="userSpaceOnUse"><stop offset="0" stop-color="#eec6d9"/><stop offset="0.42" stop-color="#f1d6d3"/><stop offset="1" stop-color="#f4eccb"/></linearGradient><linearGradient id="linear-gradient-6" x1="130.28" y1="123.92" x2="136.53" y2="123.92" gradientUnits="userSpaceOnUse"><stop offset="0" stop-color="#c3caf4"/><stop offset="1" stop-color="#1a7fc3"/></linearGradient><linearGradient id="linear-gradient-7" x1="105.45" y1="155.29" x2="144.35" y2="155.29" xlink:href="#linear-gradient-6"/><linearGradient id="linear-gradient-8" x1="134.56" y1="150.26" x2="167.71" y2="150.26" xlink:href="#linear-gradient-5"/><linearGradient id="linear-gradient-9" x1="131.7" y1="149.24" x2="146.81" y2="149.24" xlink:href="#linear-gradient-6"/><linearGradient id="linear-gradient-10" x1="112.49" y1="108.25" x2="137.39" y2="108.25" xlink:href="#linear-gradient-5"/><linearGradient id="linear-gradient-11" x1="127.02" y1="112.15" x2="129.9" y2="112.15" xlink:href="#linear-gradient-5"/><linearGradient id="linear-gradient-12" x1="121.59" y1="119.33" x2="109.06" y2="136.78" gradientUnits="userSpaceOnUse"><stop offset="0" stop-color="#eec6d9"/><stop offset="0.42" stop-color="#785757"/><stop offset="1" stop-color="#f4eccb"/></linearGradient><linearGradient id="linear-gradient-13" x1="229.15" y1="220.7" x2="193.48" y2="166.26" xlink:href="#linear-gradient"/></defs><title>FIlling Form</title><path class="cls-1" d="M163.35,198.92l35.72,26.13c5.86,3.39,16.32-.78,16.54-10.12V70.24c0-7.82-4.76-16.91-10.63-20.29l-41.63-24c-5.86-3.39-16.42.26-16.42,8.08l5.8,144.64C152.73,186.45,157.49,195.54,163.35,198.92Z"/><path class="cls-2" d="M209.69,72.33V217c0,7.82-4.75,11.41-10.62,8l-41.63-24h0c-5.87-3.39-10.61-12.46-10.61-20.29V36c0-7.82,4.75-11.41,10.62-8l41.63,24C204.94,55.43,209.69,64.51,209.69,72.33Z"/><ellipse class="cls-3" cx="127.99" cy="274.68" rx="46.27" ry="80.15" transform="translate(-147.38 401.19) rotate(-89.69)"/><path class="cls-4" d="M155.69,87.43s2.09,6.47,0,8.4c-5.74,5.35-8.91,57.23-8.91,57.23l.13-51.45,4.2-9.72Z"/><path class="cls-5" d="M166.78,134.53s2.09,6.47,0,8.41c-5.74,5.35-20,37.78-20,37.78V164.89L162.22,139Z"/><path class="cls-6" d="M130.56,120.65s5,1.37,6.09-.7,10.28-27.27,10.28-27.27.43-6.14,2.59-7.74a20.75,20.75,0,0,1,4.41-2.44s.75.38,0,1.22-2.18,1.53-1.9,3,.28,2,1.41,1.34,2-1,2.25-.63-1.62,3.17-1.62,3.17-1.33,3.44-2.77,3.59-6.8,28-7.65,30-5.31,6.32-10.47,6S130.56,120.65,130.56,120.65Z"/><polygon class="cls-7" points="130.28 120.47 134.77 120.47 136.53 127.36 130.28 123.5 130.28 120.47"/><path class="cls-8" d="M117,262.65s10.52-3.09,12.79-2,.56,5.5-4.32,8.32-7.51,4.57-10.1,5.26-6.66.8-7.28-1.76-.34-5.65.33-6.78S117,262.65,117,262.65Z"/><path class="cls-9" d="M106.69,183.73c-.3,5.58,1.49,20.1,1.2,27.54s-.08,6.91-.52,17.73.92,37,2.45,38.52,8.64,2.07,8.73-2.93c.09-5.2,1.32-36.86,2.14-39.91a53.35,53.35,0,0,0,2.61-15.9,179.42,179.42,0,0,1,1.23-18.1s-2.93-8.09-9-8.73S106.69,183.73,106.69,183.73Z"/><path class="cls-8" d="M132.08,271.71s11.8-3.46,14.34-2.21.63,6.17-4.84,9.33-8.43,5.12-11.34,5.9-7.46.9-8.16-2-.38-6.34.38-7.61S132.08,271.71,132.08,271.71Z"/><path class="cls-1" d="M142.06,188.09c0,.78-.06,1.62-.11,2.49-.61,12.27-2.58,32.32-3.18,36.75-.65,4.73-5.1,16.37-5.7,28-.54,10.52-.42,17.05-1.51,19.85v0a4.27,4.27,0,0,1-.36.71l0,0c-1.5,2.21-5.22,2.4-7.43.89s-3.39-27.86-3.45-37,2.81-17.56,1-23.72a199.56,199.56,0,0,1-5.67-27.71s10.42-2.36,15.49-2.73S142.06,188.09,142.06,188.09Z"/><path class="cls-10" d="M144.15,141.26c-.37,2.34-.68,4.75-.93,7.17-.63,6.13-.91,12.39-1,18.12-.19,12.91.6,23.14.6,23.14s-7.84,3.48-20.27,2.42-15.89-8-15.89-8,1.55-14,1.86-24.61-6.91-29.36-.24-37.77a10.16,10.16,0,0,1,.87-1h0c6.92-6.66,19.68,1.94,23.21,4,4.69,2.71,8,5.1,10,7.83h0A11.14,11.14,0,0,1,144.15,141.26Z"/><polygon class="cls-11" points="140.24 190.58 138.9 165.29 142.22 166.55 142.82 189.69 140.24 190.58"/><path class="cls-12" d="M134.56,151.37s2.08,12.13,4.34,13.92,6.1,2.44,10.23-2.54,11.07-17.64,11.07-17.64,2.3-2.2,3.71-2.37,1.76-2,1.76-2a5.26,5.26,0,0,0,1.12-1.55,3.42,3.42,0,0,0,0-2.18l.92-2a1.15,1.15,0,0,0-.35-.91c-.42-.43-1.13.21-2.33.56a36.29,36.29,0,0,1-3.73.7l-.77-1.4s-.92-.15-.92,1.05.5,3.66-.35,4.65-13.58,14.68-13.58,14.68l-1-5.46Z"/><path class="cls-13" d="M146.81,153.08v0a18.34,18.34,0,0,0-.71,2c-1.3,4.42-1.47,9.57-3.87,11.43a4.17,4.17,0,0,1-3.83.52c-6.48-7.46-7.5-25.44-6.2-30,1.18-4.15,3.58-5.74,5.92-5.87a6.35,6.35,0,0,1,4.22,1.36h0a4.8,4.8,0,0,1,1.7,2.32c.72,2.36.31,14.82,2.76,18.18A0,0,0,0,1,146.81,153.08Z"/><path class="cls-11" d="M146.81,153.08v0a4.91,4.91,0,0,1-.71,2c-.58.64-1.53-.16-2.87-6.69-.09-.46-.19-1-.29-1.49-1.36-7.14-2.81-12.25-4.82-15.74a11.61,11.61,0,0,0-7.85-6.08,45.15,45.15,0,0,1-11.68-4.37s-6.48-1.36-9.41,0c6.92-6.66,19.68,1.94,23.21,4,4.69,2.71,8,5.1,10,7.83h0a4.8,4.8,0,0,1,1.7,2.32c.72,2.36.31,14.82,2.76,18.18A0,0,0,0,1,146.81,153.08Z"/><path class="cls-14" d="M135.88,118.12c-.62,1.21-5,1.14-5.55,1.12h-.06l0,4.25h0a9.8,9.8,0,0,1-3.3.5c-.51,0-1.08,0-1.71-.08a10.16,10.16,0,0,1-2-.39c-2.53-.74-4.66-2.24-4.73-2.78s0-3.8,0-3.8l-1.11-1.85s-4-7.16-4.8-10,2.08-6.52,2.08-6.52a6.49,6.49,0,0,1,.9-3.22c1-1.86,9.19-3.94,15.4-2.13s4,4.63,4,4.63a23.13,23.13,0,0,1,1.55,3.7,33.55,33.55,0,0,1-.31,4.23,12.51,12.51,0,0,0,1,3.29C137.78,110.4,136.55,116.83,135.88,118.12Z"/><path class="cls-1" d="M136,96.39c-.33,1.63-2.51,2.27-3.56,3.33s-.87,2.9-1.74,4.24a21.82,21.82,0,0,0-2.13,3.3,3.11,3.11,0,0,0,.59,3.6,1.81,1.81,0,0,1-.72,1.08,4.11,4.11,0,0,0-2.36-2.43c-1.89-.56-1.5,1.65-1.43,1.94a4.46,4.46,0,0,0,2.06,3.12,2.86,2.86,0,0,1-2,1.27,11.59,11.59,0,0,1-1.86.17l-.54,0a10,10,0,0,0-2.48.54,9.29,9.29,0,0,0-.87.35.9.9,0,0,1-.61.13.59.59,0,0,1-.2-.12l-.11-.1a7.18,7.18,0,0,1-1.57-2.35,12.43,12.43,0,0,0-1-2.31,4.07,4.07,0,0,0-1.09-1.06,26.81,26.81,0,0,0-3-1.48,10.22,10.22,0,0,1-3.3-2.65,6.56,6.56,0,0,1-1.56-3.46,3.84,3.84,0,0,1,1.39-3.42c.62-.45,1.4-.66,2-1.13,1.36-1,1.57-3,2.4-4.49,1.23-2.23,3.78-3.36,6.23-4.08a20.64,20.64,0,0,1,9.09-.81,11.42,11.42,0,0,1,7.66,4.62A3,3,0,0,1,136,96.39Z"/><path class="cls-15" d="M127.14,112a.52.52,0,0,1-.1-.18.91.91,0,0,1,0-.23.78.78,0,0,0-.3-.64,1.43,1.43,0,0,0-.66-.3.41.41,0,0,0-.56.54,6.08,6.08,0,0,0,.33,1.2,2,2,0,0,0,.77,1,2.89,2.89,0,0,0,.86.33.81.81,0,0,0,.7-.05.84.84,0,0,0-.06-1.13C127.83,112.21,127.43,112.31,127.14,112Z"/><path class="cls-16" d="M122.87,116a.83.83,0,0,1-.15.11,2,2,0,0,1-.86.19q-1,.09-2,.27c-.56.09-1.12.22-1.68.36l-.11-.1a7.18,7.18,0,0,1-1.57-2.35,12.43,12.43,0,0,0-1-2.31,4.07,4.07,0,0,0-1.09-1.06,12.73,12.73,0,0,1,1.4-.27c1-.19,2.17-.82,3.22-.78a3.14,3.14,0,0,1,2.41,2,14.68,14.68,0,0,0,1.42,3,1.13,1.13,0,0,1,.21.35A.61.61,0,0,1,122.87,116Z"/><path class="cls-17" d="M123.31,123.53c-2.53-.74-4.66-2.24-4.73-2.78,0-2.23,0-3.8,0-3.8l4.32-.94S122.87,122.12,123.31,123.53Z"/><path class="cls-18" d="M194.77,72,157.05,50.24a3.67,3.67,0,0,1-1.55-3h0c0-1.14.69-1.67,1.55-1.17L194.77,67.9a3.69,3.69,0,0,1,1.55,3h0C196.32,72,195.63,72.52,194.77,72Z"/><path class="cls-18" d="M194.77,86.33,157.05,64.54a3.67,3.67,0,0,1-1.55-3h0c0-1.14.69-1.67,1.55-1.17L194.77,82.2a3.69,3.69,0,0,1,1.55,3h0C196.32,86.3,195.63,86.82,194.77,86.33Z"/><path class="cls-18" d="M194.77,99.24,157.05,77.46a3.69,3.69,0,0,1-1.55-3h0c0-1.14.69-1.66,1.55-1.17l37.72,21.78a3.71,3.71,0,0,1,1.55,3h0C196.32,99.21,195.63,99.73,194.77,99.24Z"/><path class="cls-19" d="M209.69,101.21V217c0,7.82-4.75,11.41-10.62,8l-41.63-24h0c-.16-.37-4.61-10.91,20.83-15.3,25.89-4.48,13.15-30.82,18.07-59.18S209.69,101.21,209.69,101.21Z"/><path class="cls-11" d="M142.2,190.58c-.61,12.27-2.58,32.32-3.18,36.75-.65,4.73-5.1,16.37-5.7,28-.54,10.52-.42,17.05-1.51,19.85v0c-.2.39-.33.63-.36.71l0,0s-1.22-21.25-.38-25.75,4-22,5.24-24,1.36-35.64,1.36-35.64Z"/><path class="cls-11" d="M130.34,274.31s4.54.86,5.25,2.46,5.31.18,5-1.83S137.9,272.61,130.34,274.31Z"/></svg>