<svg height="452pt" viewBox="0 -70 452 452" width="452pt" xmlns="http://www.w3.org/2000/svg" xmlns:xlink="http://www.w3.org/1999/xlink"><linearGradient id="lg1"><stop offset=".322" stop-color="#a163f5"/><stop offset=".466" stop-color="#b074ee"/><stop offset=".752" stop-color="#d8a1dd"/><stop offset=".898" stop-color="#efbad3"/></linearGradient><linearGradient id="linear0" gradientUnits="userSpaceOnUse" x1="226" x2="226" xlink:href="#lg1" y1="383.76433" y2="-70.23967"/><linearGradient id="linear1" gradientUnits="userSpaceOnUse" x1="148.5" x2="148.5" xlink:href="#lg1" y1="383.76433" y2="-70.23967"/><linearGradient id="linear2" gradientUnits="userSpaceOnUse" x1="303.5" x2="303.5" xlink:href="#lg1" y1="383.76433" y2="-70.23967"/><path d="m329.921875 175.765625h-207.84375c-18.5 0-33.5 14.996094-33.5 33.5 0 18.5 15 33.5 33.5 33.5h207.84375c18.5 0 33.5-15 33.5-33.5 0-18.503906-15-33.5-33.5-33.5zm0 55h-207.84375c-11.871094 0-21.5-9.628906-21.5-21.5 0-11.875 9.628906-21.5 21.5-21.5h207.84375c11.871094 0 21.5 9.625 21.5 21.5 0 11.871094-9.628906 21.5-21.5 21.5zm0 0" fill="url(#linear0)"/><path d="m143 197.765625h11c3.3125 0 6 2.683594 6 6v11c0 3.3125-2.6875 6-6 6h-11c-3.3125 0-6-2.6875-6-6v-11c0-3.316406 2.6875-6 6-6zm0 0" fill="url(#linear1)"/><path d="m298 197.765625h11c3.3125 0 6 2.683594 6 6v11c0 3.3125-2.6875 6-6 6h-11c-3.3125 0-6-2.6875-6-6v-11c0-3.316406 2.6875-6 6-6zm0 0" fill="url(#linear2)"/><path d="m403.886719 149.765625h-3.886719v-94.359375c12.980469-2.703125 22.246094-14.199219 22.128906-27.460938-.089844-15.460937-12.652344-27.945312-28.113281-27.945312s-28.019531 12.484375-28.109375 27.945312c-.132812 13.253907 9.121094 24.757813 22.097656 27.460938v94.359375h-2.039062c-14.140625-45.25-56.0625-76.042969-103.46875-76h-112.988282c-47.40625-.042969-89.328124 30.75-103.46875 76h-17.925781c-26.527343 0-48.113281 21.96875-48.113281 48.5s21.585938 48.5 48.113281 48.5h22.011719c17.328125 39.4375 56.304688 64.933594 99.382812 65h112.984376c43.078124-.066406 82.054687-25.5625 99.382812-65h22.011719c26.527343 0 48.113281-21.96875 48.113281-48.5s-21.585938-48.5-48.113281-48.5zm-25.957031-121.820313c0-8.898437 7.214843-16.109374 16.109374-16.109374 8.898438 0 16.109376 7.214843 16.109376 16.109374 0 8.898438-7.210938 16.109376-16.109376 16.109376-8.894531-.007813-16.101562-7.214844-16.109374-16.109376zm-329.816407 206.820313c-19.914062 0-36.113281-16.585937-36.113281-36.5s16.199219-36.5 36.113281-36.5h14.980469c-1.273438 6.632813-1.976562 13.363281-2.09375 20.113281v21.578125c.101562 10.609375 1.703125 21.148438 4.757812 31.308594zm329.886719-31.234375c0 53.148438-43.085938 96.234375-96.234375 96.234375h-112.53125c-53.148437 0-96.234375-43.085937-96.234375-96.234375v-21.53125c0-53.148438 43.085938-96.234375 96.234375-96.234375h112.53125c53.148437 0 96.234375 43.085937 96.234375 96.234375zm25.886719 31.234375h-17.644531c3.054687-10.160156 4.65625-20.699219 4.757812-31.308594v-21.578125c-.117188-6.75-.820312-13.480468-2.09375-20.113281h14.980469c19.914062 0 36.113281 16.585937 36.113281 36.5s-16.199219 36.5-36.113281 36.5zm0 0" fill="url(#linear0)"/></svg>