<svg id="Capa_1" enable-background="new 0 0 512 512" height="512" viewBox="0 0 512 512" width="512" xmlns="http://www.w3.org/2000/svg" xmlns:xlink="http://www.w3.org/1999/xlink"><linearGradient id="SVGID_1_" gradientUnits="userSpaceOnUse" x1="256" x2="256" y1="512" y2="0"><stop offset="0" stop-color="#5558ff"/><stop offset="1" stop-color="#00c0ff"/></linearGradient><linearGradient id="SVGID_2_" gradientUnits="userSpaceOnUse" x1="196" x2="196" y1="392" y2="60"><stop offset="0" stop-color="#addcff"/><stop offset=".5028" stop-color="#eaf6ff"/><stop offset="1" stop-color="#eaf6ff"/></linearGradient><g><g><g><path d="m256 0c-8.284 0-15 6.716-15 15v60c0 8.284 6.716 15 15 15 91.532 0 166 74.467 166 166s-74.468 166-166 166-166-74.467-166-166c0-8.284-6.716-15-15-15h-60c-8.284 0-15 6.716-15 15 0 140.951 115.041 256 256 256 140.951 0 256-115.04 256-256 0-140.951-115.041-256-256-256z" fill="url(#SVGID_1_)"/></g></g><g><g><path d="m256 120c-8.284 0-15 6.716-15 15v60c0 8.284 6.716 15 15 15 24.935 0 46 21.065 46 46s-21.065 46-46 46-46-21.065-46-46c0-8.284-6.716-15-15-15h-60c-8.284 0-15 6.716-15 15 0 74.663 61.625 136 136 136 74.663 0 136-61.625 136-136 0-74.663-61.625-136-136-136zm-181-30h121c8.284 0 15-6.716 15-15s-6.716-15-15-15h-121c-8.284 0-15 6.716-15 15s6.716 15 15 15zm-60 0c8.284 0 15-6.716 15-15s-6.716-15-15-15-15 6.716-15 15 6.716 15 15 15zm196 45c0-8.284-6.716-15-15-15h-181c-8.284 0-15 6.716-15 15s6.716 15 15 15h181c8.284 0 15-6.716 15-15z" fill="url(#SVGID_2_)"/></g></g></g></svg>