<svg id="Capa_1" enable-background="new 0 0 512 512" height="512" viewBox="0 0 512 512" width="512" xmlns="http://www.w3.org/2000/svg"><g><g><g><g><g><path d="m316 152c-24.51 0-46.31 11.82-60 30.05v89.95h30c41.36 0 75-33.64 75-75v-45z" fill="#019a5a"/></g></g></g></g><g><g><g><g><path d="m196 242h-45v45c0 41.36 33.64 75 75 75h30v-89.95c-13.69-18.23-35.49-30.05-60-30.05z" fill="#56c125"/></g></g></g></g><g><g><g><g><path d="m196 62h-45v45c0 41.36 33.64 75 75 75h30v-89.95c-13.69-18.23-35.49-30.05-60-30.05z" fill="#56c125"/></g></g></g></g><g><g><g><path d="m331 30h-.01c-33.08 0-59.99 26.92-59.99 60v317h-30v-317c0-18.36 5.52-35.45 15-49.7 16.13-24.27 43.72-40.3 74.99-40.3z" fill="#abe233"/></g></g></g><path d="m331 30h-.01c-33.08 0-59.99 26.92-59.99 60v317h-15v-366.7c16.13-24.27 43.72-40.3 74.99-40.3z" fill="#56c125"/><path d="m440.42 482c-29.99 0-58.5-14.52-80.26-40.88-25.76-31.22-63.73-49.12-104.16-49.12s-78.4 17.9-104.16 49.12c-21.76 26.36-50.27 40.88-80.26 40.88h-40.58v30h225c109.46 0 218.92-.01 225 0v-30z" fill="#b4d2d7"/><path d="m481 482v30c-6.08-.01-115.54 0-225 0v-120c40.43 0 78.4 17.9 104.16 49.12 21.76 26.36 50.27 40.88 80.26 40.88z" fill="#87a0af"/></g></svg>