<svg id="Layer_1" height="512" viewBox="0 0 150 150" width="512" xmlns="http://www.w3.org/2000/svg" data-name="Layer 1"><circle cx="75" cy="75" fill="#2f4859" r="64"/><path d="m56.01 75.25-.92 7.28 19.18-5.32-.8-4.85z" fill="#e1e6e9"/><path d="m48.71 47.6a14.4 14.4 0 0 1 23.22 17l-4.27 5.83-23.22-17zm21.91 16.08a12.77 12.77 0 1 0 -20.62-15.11l-3.31 4.5 20.62 15.12z" fill="#e1e6e9"/><path d="m48.46 50.7 20.71 15-15.1 20.6a1.69 1.69 0 0 1 -2.38.39l-17.69-13.36a1.75 1.75 0 0 1 -.34-2.43z" fill="#ebf0f3"/><path d="m78.25 80a5.84 5.84 0 0 1 -1.9-11.48z" fill="#ebf0f3"/><path d="m77 67.85 2.09 12.6a.78.78 0 0 1 -1.54.25l-2.1-12.59a.78.78 0 0 1 1.55-.26z" fill="#e1e6e9"/><path d="m97.68 99.12a1.36 1.36 0 0 1 -1.36-1.36v-39.21a1.36 1.36 0 1 1 2.72 0v39.21a1.36 1.36 0 0 1 -1.36 1.36z" fill="#0fa85f"/><path d="m84.75 91.06 2.68 16.13a2.59 2.59 0 0 0 2.57 2.16h15.38a2.59 2.59 0 0 0 2.55-2.16l2.68-16.13z" fill="#e69871"/><rect fill="#f0a67a" height="4.42" rx="1.08" width="30.47" x="82.44" y="88.32"/><path d="m97.91 85.85c11.88 1.62 20.19-6.69 18.57-18.57-11.88-1.63-20.2 6.72-18.57 18.57z" fill="#0fb26b"/><path d="m97.44 78.94c-9.93 1.36-16.88-5.59-15.52-15.52 9.93-1.36 16.88 5.58 15.52 15.52z" fill="#0fb26b"/><path d="m97.86 62.6c-8.07-6-8.21-15.78-.31-22 8.07 6 8.21 15.83.31 22z" fill="#0fb26b"/><path d="m84.53 80.73s-.81 3.55-.48 4.54a1.9 1.9 0 0 0 3.6-1.2c-.33-1-3.12-3.34-3.12-3.34z" fill="#27a2db"/><path d="m81.11 73.64s-.82 3.55-.48 4.54a1.9 1.9 0 0 0 3.6-1.2c-.33-.98-3.12-3.34-3.12-3.34z" fill="#27a2db"/><g fill="#0fa85f"><path d="m104.34 77.62a66.45 66.45 0 0 1 8.57-7.55 22.21 22.21 0 0 0 -7 4.41 5.91 5.91 0 0 0 .34-3.74 31 31 0 0 1 -1.25 4.68 34.47 34.47 0 0 0 -7.39 11.58l.86.86c.18-2.84 2.15-6 4.57-8.81 2.83-1.67 8-2.51 8-2.51-4.04.15-5.89.67-6.7 1.08z"/><path d="m97.65 79.17a33.62 33.62 0 0 0 -6-8.45 31 31 0 0 1 -1.26-4.72 5.9 5.9 0 0 0 .34 3.74 22.1 22.1 0 0 0 -7-4.41 66.45 66.45 0 0 1 8.57 7.55c-.81-.41-2.62-.93-6.71-1.06 0 0 5.18.84 8 2.51a24 24 0 0 1 3.6 5.36 2.65 2.65 0 0 1 .46-.52z"/><path d="m97.91 57.27c.08-3.27.08-5.91 0-8l1.36-3.94-1.35 2.67c-.1-3.63-.31-5.19-.31-5.19a58.83 58.83 0 0 0 -.75 9.93l-2.13-4.74 2.13 5.63a101.56 101.56 0 0 0 .75 11.31c.13-2.4.21-4.57.27-6.53l3.32-7.18z"/></g></svg>