<svg xmlns="http://www.w3.org/2000/svg" width="902" height="147"><g fill="none" fill-rule="evenodd" stroke-linecap="round" stroke-linejoin="round" stroke-width=".4" opacity=".4"><path stroke="#03A9F4" d="M-36.078-49.305L43.794 6.789.44-78.892z"/><path stroke="#02F1E4" d="M19.106-10.637L5.412 6.789.227-1.924zm79.873-34.854L69.934-14.92l23.973 36.232zM43.794 14.05h17.427L43.794 6.789zm4.357 14.523L61.463 14.05l2.662 7.262z"/><path stroke="#02F1E4" d="M48.151 14.05l13.554 20.332 6.777-13.4zm36.391 7.262l-10.251 13.07h14.522zM72.838 53.261L93.17 67.783l-3.499-7.261z"/><path stroke="#03A9F4" d="M84.456 48.904l21.784 3.872-5.515 7.746z"/><path stroke="#02F1E4" d="M110.596 67.783l10.635 11.618h14.053z"/><path stroke="#02F1E4" d="M96.074 61.974l9.364 11.618 15.324-.762z"/><path stroke="#02F1E4" d="M100.431 47.452l1.906 17.426 28.591-4.197z"/><path stroke="#03A9F4" d="M120.762 49.549L101.44 60.522 88.813 35.834z"/><path stroke="#02F1E4" d="M84.456 49.592l-12.461 3.669-10.774-17.427z"/><path stroke="#02F1E4" d="M52.507 43.095l21.784-8.713H52.507z"/><path stroke="#03A9F4" d="M48.151 28.573l-20.332-7.261 20.332-7.262z"/><path stroke="#02F1E4" d="M84.456 48.904l4.316-14.13 16.015-3.297zm110.369 46.471V66.22l18.879-5.698z"/><path stroke="#02F1E4" d="M199.182 73.592l14.903 11.618 17.046-5.761z"/><path stroke="#02F1E4" d="M204.991 67.783l22.835 27.592 12.018-9.999z"/><path stroke="#02F1E4" d="M219.723 69.235l-8.923 31.949 31.949-6.8z"/><path stroke="#02F1E4" d="M204.991 88.114l17.534 21.783 20.224-5.239z"/><path stroke="#02F1E4" d="M253.072 92.471l-20.489 21.098 30.497 2.137z"/><path stroke="#02F1E4" d="M270.341 92.471l-18.879 15.555 9.393 16.394z"/><path stroke="#02F1E4" d="M251.462 99.939l31.949 18.672-29.13-26.14z"/><path stroke="#03A9F4" d="M251.462 108.445l31.949 18.879-15.974-3.72z"/><path stroke="#02F1E4" d="M283.411 118.563l26.14-2.857-2.585 17.427zm-13.07-26.092l12.888 26.14 10.348-14.471zm-75.516 1.539l-36.305-5.896 14.728 13.07zm0 15.887V95.375l15.975 6.626z"/><path stroke="#02F1E4" d="M204.797 88.114l-9.972 7.082 14.523 20.51zm17.621 21.493l-13.07 6.099 2.485-14.522zm10.165 4.647l2.614 8.713 9.004-3.747zm29.045 10.707l-2.516 3.815-7.65-5.809zm5.809-1.994l4.698 10.166 11.276-6.218zm22.084 13.07l-11.919-5.423 18.879-3.29zm-45.32-17.219l3.642-3.112 2.167 7.261zm-21.783-8.921l1.477 8.714 10.141-5.157zm-13.07 5.809l6.567 7.261 7.955-3.63z"/><path stroke="#03A9F4" d="M194.825 109.897l-14.522-4.588 5.131-7.029z"/><path stroke="#02F1E4" d="M158.52 88.114l1.787 13.07 9.831-6.584zm14.522 13.828l2.632 3.599 4.629-10.166zm-43.567-41.42l17.427-4.795-17.427-15.536zm5.809-76.285l59.657 82.094 60.878-119.083z"/><path stroke="#02F1E4" d="M174.494-49.847l132.868 98.751 22.52-91.457z"/><path stroke="#03A9F4" d="M254.367 92.471l13.252-74.064 41.932 30.938z"/><path stroke="#02F1E4" d="M225.322 111.35l4.841 11.036 5.325.581zm18.879 7.261l1.556 7.261 2.801-2.288z"/><path stroke="#03A9F4" d="M239.844 124.42l2.842-20.332 5.872 11.455zm10.526 2.624l8.353 1.732-10.165-5.809z"/><path stroke="#02F1E4" d="M260.176 124.278l1.768 5.951 4.041-7.262zm11.711 8.855l2.811-11.618-8.713 8.513zm-20.425-10.166l3.759-7.261.598 6.318z"/><path stroke="#03A9F4" d="M210.8 101.184l5.657 15.974 4.509-7.702z"/><path stroke="#02F1E4" d="M278.958 134.585l-4.26-12.538 8.713-3.436zm16.071-8.713l13.16-10.166 11.528 5.923zm5.809 13.499l3.679 2.475 3.582-2.475z"/><path stroke="#02F1E4" d="M303.742 137.49l5.79 4.356 1.472-2.178zm8.714-1.453l5.034 5.809 6.584-3.704z"/><path stroke="#02F1E4" d="M318.265 136.037l-7.063 2.905-1.651-2.905zm-13.07-.41l-6.777 3.315-3.389-4.357zm0-2.494l-10.166 1.452.924-2.904z"/><path stroke="#02F1E4" d="M289.22 135.627l2.984 3.315 4.277-4.357z"/><path stroke="#03A9F4" d="M379.559 146.203l-71.46-97.881 79.872-28.463z"/><path stroke="#02F1E4" d="M319.717 121.741l18.35 20.105 105.089-24.688zM101.883-3.376l3.219 23.235 24.373-2.592z"/><path stroke="#02F1E4" d="M117.857.779l11.331 17.628 4.644-33.401zm31.949 17.628h-20.331l10.166-15.974zm43.567 47.721l-54.01 29.247-9.888-34.853zM348.826-75.988c-1.502 2.644 23.836 95.847 23.836 95.847l51.615-73.561-75.451-22.286z"/><path stroke="#02F1E4" d="M374.91-40.388c-.752.568 48.608 68.96 48.608 68.96l29.804-78.42-78.412 9.46z"/><path stroke="#02F1E4" d="M424.277-52.752l-36.306 73.665 36.306 7.66zm29.045 3.447L520.97 6.789l18.033-85.681z"/><path stroke="#02F1E4" d="M462.035 24.216l60.994-18.007-12.485-76.388zm-104.56 23.236l14.732-27.593 15.764 7.761zm-2.905 21.783l9.664 14.522 10.667-10.223zm23.039 18.879l-2.708-14.477 15.975-4.402zm10.362-59.541l3.961 40.662 25.084-8.985zm26.141 45.019l3.723-13.514 25.321-25.696z"/><path stroke="#02F1E4" d="M459.131 78.296l-42.115-17.774 10.929 18.879zm-15.955-43.914l15.955 43.566-20.332-18.16z"/><path stroke="#02F1E4" d="M453.322 88.114l50.828-47.923-42.98 6.396zm-29.045 16.172l30.076-16.172 14.943 30.497zm21.784 37.167l15.777-5.416 14.719 10.166zm-139.414-8.32l15.974-.805-10.108-9.361zm17.427 4.357l6.92 5.809 7.602-1.403z"/><path stroke="#03A9F4" d="M322.621 131.21l1.449 6.28s7.726-10.066 7.243-10.166c-.58 0-8.692 3.887-8.692 3.887z"/><path stroke="#02F1E4" d="M351.666 142.726l-7.03 2.025-7.492-2.905zm29.044-12.191l55.609 15.668 9.742-4.663-46.625-56.33zm114.726-5.796l70.991 17.107 35.022-36.305z"/><path stroke="#02F1E4" d="M511.902 146.203l45.98-33.574-65.35-27.419zm61.954-58.914l36.325 45.844L647.92 85.21z"/><path stroke="#02F1E4" d="M620.328 72.586l55.71 43.12 15.449-56.637z"/><path stroke="#03A9F4" d="M646.468 121.515l44.343-60.993 29.72 40.189z"/><path stroke="#02F1E4" d="M615.971 88.208l30.808 33.307 8.402-100.203zm75.516-27.614l72.31 21.711 7.562-75.516z"/><path stroke="#03A9F4" d="M803.291 60.522L771.359 6.789l78.42 4.242zm-82.76-20.331l59.825 34.853 21.5-15.254z"/><path stroke="#03A9F4" d="M730.697 93.923l12.611-97.299 38.217 78.587z"/><path stroke="#02F1E4" d="M505.679 40.191l27.515 16.319-40.662 28.7zm15.897-6.872l20.874 6.872 29.954-10.166zm41.272-9.103L552.073 6.362l43.567-62.018z"/><path stroke="#02F1E4" d="M560.786 6.78l11.938 23.245L610.162-.472zm-39.21.119l18.066 4.247 32.762-63.898zm-34.853 10.056l-27.592-44.416 27.592-28.195zm-62.446 11.618l37.758-3.576-7.929-39.991z"/><path stroke="#02F1E4" d="M417.016-28.064l29.207 31.949 12.908-31.206zm7.261 124.88v7.272l7.261-11.617z"/><path stroke="#03A9F4" d="M437.461 108.445l-5.923-15.974 10.166 4.458z"/><path stroke="#02F1E4" d="M453.686 88.114l-7.625 23.236 24.687-14.938zm18.515 18.879l2.845 14.522 20.39-15.974z"/><path stroke="#03A9F4" d="M469.296 118.625l26.14 5.795v-18.879z"/><path stroke="#02F1E4" d="M501.245 90.536l15.332 29.527 7.904-36.306zm56.274 22.266l-8.35-23.236 17.426 7.939z"/><path stroke="#03A9F4" d="M543.36 107.185l-7.417 9.973-11.462-33.401z"/><path stroke="#02F1E4" d="M549.169 91.018V57.617l-24.688 26.628zm24.491-5.808l-24.491-28.55 34.853-4.852z"/><path stroke="#02F1E4" d="M549.169 91.018l24.687-3.009-2.089-33.296zm-52.281 8.6l13.216 21.897 11.472-23.235z"/><path stroke="#02F1E4" d="M525.296 118.611l-19.694-18.879 24.688 2.684zM501.83 91.028l-4.942 8.704 5.809-27.593zm31.242-34.863l11.74 3.635-17.427 12.339z"/><path stroke="#02F1E4" d="M520.237 53.261l18.766 25.7-27.592 3.344zm-7.374-7.262l-23.841 14.523-5.204-9.144zM492.532 85.21l-17.519-4.164-15.882-3.098 33.401-10.165zm-43.567-31.949h11.618l-4.332-4.357z"/><path stroke="#02F1E4" d="M464.939 38.738L456.226 49.3l3.834 3.961zm10.166 0l-14.522 14.523 5.115-14.523zm4.112 26.14l7.506 18.879-10.166-10.438zm7.506-7.261v26.14l13.07-17.983zm14.522-6.094l9.972 20.616 4.55-21.783zm-130.511-4.071l-5.998-11.618 13.07.709z"/><path stroke="#02F1E4" d="M369.093 25.668l11.556 15.975 5.87-9.342z"/><path stroke="#03A9F4" d="M374.901 40.191l1.874 7.261 3.935-5.379z"/><path stroke="#02F1E4" d="M377.806 22.764c.66.384 12.259 24.688 12.259 24.688l9.524-6.34-21.783-18.348zm14.522 46.471l13.44-21.783 1.082 15.304z"/><path stroke="#02F1E4" d="M392.664 45.999l-10.501 15.665 24.687 1.762zm-29.38-95.846l-26.14 40.831 13.022 11.449z"/><path stroke="#02F1E4" d="M373.449-19.351L350.214 1.555l21.836 18.304z"/><path stroke="#02F1E4" d="M385.458-17.899c-.767.77-27.983 26.14-27.983 26.14l37.758-.864-9.775-25.276zm27.534 7.262l-6.142 36.305 39.211-21.263z"/><path stroke="#03A9F4" d="M464.298-9.185l-19.69 34.853 36.306-13.185z"/><path stroke="#02F1E4" d="M486.723 16.955l21.783-29.135-21.783-12.98z"/><path stroke="#02F1E4" d="M504.15 11.146l1.566-47.923 23.121 11.864z"/><path stroke="#03A9F4" d="M460.583 52.343l78.42 27.058-54.875-29.045z"/><path stroke="#03A9F4" d="M459.131 78.299l111.821-23.586-31.815 24.688z"/><path stroke="#02F1E4" d="M629.041 43.095h-28.108l-.937 13.07zm-19.683-2.904l8.065-21.784-18.879 10.845z"/><path stroke="#02F1E4" d="M615.971 44.547l15.625-15.974 6.158 5.294z"/><path stroke="#03A9F4" d="M627.589 8.761l13.56 2.385.962-8.713z"/><path stroke="#02F1E4" d="M631.945 28.573l8.511-17.427 11.821 3.904zm-14.506-10.166l10.15-9.858-17.427-9.021zm-27.608-29.044l8.251 39.21 14.985-13.256z"/><path stroke="#03A9F4" d="M550.621-22.056l40.112 33.202 13.62-36.306zM360.379-7.733l2.582 18.879 14.845-12.369z"/><path stroke="#02F1E4" d="M387.466 19.859l-6.756-13.07 18.879 3.268zm12.407-24.687l-.284 27.592L419.92 8.968z"/><path stroke="#03A9F4" d="M419.945-.472l-13.095 26.14 27.593-26.14z"/><path stroke="#02F1E4" d="M444.624 25.668l-7.277-15.974 17.427 2.888zm172.799-34.14l42.115-16.688-17.901 27.593z"/><path stroke="#02F1E4" d="M676.964-28.064L652.277 14.05l6.909-39.522zm-92.742 79.872l-10.366-20.963 24.688-.82z"/><path stroke="#02F1E4" d="M599.264 56.165l-13.79-27.592 23.236 10.805zm38.49-22.447l53.733 26.804-28.155-49.376zm84.229 6.473L683.702-7.733l-19.808 18.279z"/><path stroke="#02F1E4" d="M656.083 19.859L642.111 1.456 674.06-12.09z"/><path stroke="#03A9F4" d="M647.92-16.922l31.949 23.711-3.007-34.853z"/><path stroke="#02F1E4" d="M565.143 141.846l23.236-5.887-17.667-1.374zm31.949-8.492l18.446 1.231 6.242-4.356zm4.357-10.387l24.688-9.728-11.38-1.889zm43.566-14.522l27.593-8.732-10.117-5.79zm31.949-13.368l17.867 14.82 11.178-18.879z"/><path stroke="#02F1E4" d="M687.13 89.51l25.506 16.031 4.991-21.784z"/><path stroke="#02F1E4" d="M676.771 115.706l30.69-25.724-55.184-23.651zm14.716-55.054l25.676 23.105 13.534-29.044zm39.503 33.271l-7.554-23.236 20.331 10.886zm34.582-27.592l-8.735 21.783 18.879-4.542z"/><path stroke="#02F1E4" d="M733.601 72.139l56.503-1.704 4.491-37.506z"/><path stroke="#02F1E4" d="M769.907 51.808l34.853-9.134-12.212-18.458zm46.471-8.713v11.618L804.76 43.095z"/><path stroke="#02F1E4" d="M822.187 26.941l-16.781 16.154-2.098-20.331zM778.62 70.687l13.07-12.68-5.588-25.078z"/><path stroke="#03A9F4" d="M803.308 60.522h7.261l-5.213-17.427z"/><path stroke="#02F1E4" d="M753.932 60.522v30.496l-10.165-8.554zm-30.474 10.165l-4.379 20.331 24.688-8.864zm20.309-21.783l-26.14 9.871 22.445 3.199zM710.366 70.14L691.74 83.757l-17.68-29.044zM308.099 98.996l6.745 5.092 3.421-7.261z"/><path stroke="#02F1E4" d="M312.456 96.827l5.621 5.809 3.092-5.809z"/><path stroke="#02F1E4" d="M318.265 99.893l4.356 5.648 4.357-7.261z"/><path stroke="#03A9F4" d="M321.46 96.827l5.518 7.261-14.522-2.521z"/><path stroke="#02F1E4" d="M331.335 101.184l2.932 4.357 1.424-3.921z"/><path stroke="#02F1E4" d="M326.978 105.541l1.976-7.261 6.737 2.747zm37.758-34.854l5.809 8.714v-5.776z"/><path stroke="#03A9F4" d="M376.854 70.687c-.5.507-6.31 8.714-6.31 8.714l8.714-.608-2.404-8.106z"/><path stroke="#02F1E4" d="M379.893 75.044l-7.896 10.166h13.07zm11.335 0l-6.161-4.357 8.713.792zm95.495-14.522l22.089 18.879 2.599-8.444z"/><path stroke="#02F1E4" d="M525.933 72.866l-24.688 18.152 18.24-36.305z"/><path stroke="#03A9F4" d="M549.169 89.566l16.812 33.401 28.207-27.658z"/><path stroke="#03A9F4" d="M536.099 120.979l18.908 12.154 13.041-21.783z"/><path stroke="#02F1E4" d="M524.481 130.229l9.123 7.261 5.399-7.261z"/><path stroke="#02F1E4" d="M530.29 126.21l12.102 8.375 9.681-11.618zm26.14 7.324l1.587 8.312 11.483-14.522zm14.522.817l8.119 7.495 4.951-17.426z"/><path stroke="#03A9F4" d="M573.856 124.538l23.877 8.595 3.716-10.166z"/><path stroke="#02F1E4" d="M601.449 114.254l8.758 10.166 18.834-8.757z"/><path stroke="#02F1E4" d="M614.519 111.35l8.302 18.879 25.099-9.157z"/><path stroke="#02F1E4" d="M618.875 105.541l12.072 14.522 14.068-10.868z"/><path stroke="#03A9F4" d="M621.78 130.229l10.996-23.236 23.857 3.873z"/><path stroke="#02F1E4" d="M600.265 56.165l-3.173 29.045 23.236-11.96z"/><path stroke="#03A9F4" d="M629.041 43.295l22.818 23.036 39.628-45.019z"/><path stroke="#02F1E4" d="M680.78 5.337l-6.72 49.376 49.376-40.957z"/><path stroke="#02F1E4" d="M698.748-22.056l4.937 33.202 19.751-36.306z"/><path stroke="#02F1E4" d="M706.009-42.873l17.675 56.923 25.892-63.897zm73.095-22.949l-7.745 72.611 29.045-49.188z"/><path stroke="#03A9F4" d="M723.436 14.05l45.019 10.414-37.857 11.37zm71.159-24.298l7.85 33.012 29.908-47.924z"/><path stroke="#02F1E4" d="M756.837-35.325L786.53 14.05l9.517-25.398z"/><path stroke="#03A9F4" d="M833.805-25.085l27.592-40.737L849.9 11.146z"/><path stroke="#02F1E4" d="M803.308 22.764l2.166-46.18 9.452-16.266z"/><path stroke="#02F1E4" d="M822.187 26.931l-78.42-30.307.473 52.28zm-98.772-47.734l20.352 39.342-52.28 4.225zm98.772 47.923l27.592-1.879V11.146z"/><path stroke="#02F1E4" d="M833.805 9.694l2.443 26.14 29.506-20.8zm21.783-20.331l9.484 24.687 13.752-24.687z"/><path stroke="#02F1E4" d="M849.779 11.146l29.045-1.986V-9.185z"/><path stroke="#02F1E4" d="M833.633-25.16l-11.446 52.28 66.802-28.208z"/><path stroke="#02F1E4" d="M785.881 14.974l47.924 33.93V-25.16zm60.994-37.821l8.04 57.229 34.074-60.994z"/><path stroke="#02F1E4" d="M807.665-4.137l68.254 28.353-8.743-59.541zm-222.191 32.71l8.227 66.802 57.123-29.427zm14.522 77.06l14.039 5.717 1.936-23.236z"/><path stroke="#02F1E4" d="M639.923 11.146l-2.169 129.248 82.777-99.869z"/><path stroke="#03A9F4" d="M835.257-37.179l60.397 51.229 35.45-100.203z"/><path stroke="#02F1E4" d="M459.131-26.411L498.42 14.05l17.347-45.019z"/><path stroke="#02F1E4" d="M486.723-54.204l5.132 60.993 51.505-3.533zm130.7 45.45l24.688 11.187-1.729-20.332z"/><path stroke="#02F1E4" d="M627.725 8.242l12.934-26.141-21.784 16.362zm-21.92.726l13.07-9.44-1.485 10.166z"/><path stroke="#03A9F4" d="M598.544 15.321l-12.507 7.443-15.085-17.427z"/><path stroke="#02F1E4" d="M573.856 29.468l-18.229 6.366-13.72-7.261z"/><path stroke="#02F1E4" d="M539.003 39.002l10.71-11.882 2.36 13.071zM569.5 64.878l11.57-13.07 11.665 11.83z"/><path stroke="#03A9F4" d="M598.544 53.261l-20.331-11.168 10.628-9.164zm13.472-20.332L598.544 14.05l18.879 3.815zm50.426 54.422l22.308 28.355 8.189-42.114z"/><path stroke="#02F1E4" d="M706.009 79.401l3.754 15.974 23.838-5.809z"/><path stroke="#03A9F4" d="M720.531 63.426l7.032 18.879 26.369-9.392zm-36.305-10.165l-35.736 26.14-16.545-17.088z"/></g></svg>