<svg id="Layer_35" enable-background="new 0 0 64 64" height="512" viewBox="0 0 64 64" width="512" xmlns="http://www.w3.org/2000/svg" xmlns:xlink="http://www.w3.org/1999/xlink"><linearGradient id="SVGID_1_" gradientUnits="userSpaceOnUse" x1="32" x2="32" y1="63" y2="1"><stop offset="0" stop-color="#9f2fff"/><stop offset="1" stop-color="#0bb1d3"/></linearGradient><path d="m48 23v-2c0-1.103-.897-2-2-2-2.206 0-4-1.794-4-4v-4h3v-2h2v2.142c1.72.447 3 1.999 3 3.858h-2c0-1.103-.897-2-2-2h-2v2c0 1.103.897 2 2 2 2.206 0 4 1.794 4 4v4h-3v2h-2v-2.142c-1.72-.447-3-1.999-3-3.858h2c0 1.103.897 2 2 2zm7-6h-2v2h2zm-18 2h2v-2h-2zm22-1c0-7.168-5.832-13-13-13s-13 5.832-13 13c0 1.121.143 2.235.426 3.312l1.935-.508c-.24-.911-.361-1.855-.361-2.804 0-6.065 4.935-11 11-11s11 4.935 11 11-4.935 11-11 11c-.934 0-1.859-.116-2.751-.347l-.499 1.938c1.055.271 2.148.409 3.25.409 7.168 0 13-5.832 13-13zm-13-17c-9.374 0-17 7.626-17 17 0 1.488.193 2.965.573 4.391l1.933-.516c-.336-1.257-.506-2.561-.506-3.875 0-8.271 6.729-15 15-15s15 6.729 15 15-6.729 15-15 15c-1.263 0-2.519-.157-3.734-.468l-.495 1.938c1.376.351 2.799.53 4.229.53 9.374 0 17-7.626 17-17s-7.626-17-17-17zm-25 36c0-3.309 2.691-6 6-6s6 2.691 6 6-2.691 6-6 6-6-2.691-6-6zm2 0c0 2.206 1.794 4 4 4s4-1.794 4-4-1.794-4-4-4-4 1.794-4 4zm-7 8c0-1.654 1.346-3 3-3s3 1.346 3 3-1.346 3-3 3-3-1.346-3-3zm2 0c0 .552.449 1 1 1s1-.448 1-1-.449-1-1-1-1 .448-1 1zm37.707-8.293-20.008 20.008c.188.391.301.823.301 1.285 0 1.654-1.346 3-3 3s-3-1.346-3-3 1.346-3 3-3c.462 0 .894.113 1.285.301l20.008-20.008zm-21.707 21.293c0-.552-.449-1-1-1s-1 .448-1 1 .449 1 1 1 1-.448 1-1zm13.707-20.293-11.008 11.008c.188.391.301.823.301 1.285 0 1.654-1.346 3-3 3s-3-1.346-3-3 1.346-3 3-3c.462 0 .894.113 1.285.301l11.008-11.008zm-12.707 12.293c0-.552-.449-1-1-1s-1 .448-1 1 .449 1 1 1 1-.448 1-1zm-6.293-40.293-20.008 20.008c.188.391.301.823.301 1.285 0 1.654-1.346 3-3 3s-3-1.346-3-3 1.346-3 3-3c.462 0 .894.113 1.285.301l20.008-20.008zm-21.707 21.293c0-.552-.449-1-1-1s-1 .448-1 1 .449 1 1 1 1-.448 1-1zm20.707-13.293-11.008 11.008c.188.391.301.823.301 1.285 0 1.654-1.346 3-3 3s-3-1.346-3-3 1.346-3 3-3c.462 0 .894.113 1.285.301l11.008-11.008zm-12.707 12.293c0-.552-.449-1-1-1s-1 .448-1 1 .449 1 1 1 1-.448 1-1zm11.373 20.043-2.324 6.97c-.792 2.377-2.811 4.159-5.269 4.65l-2.78.557v-7.722l-1.173.315-2.046 8.187h-2.562l-.869-3.477-6.084 3.477h-2.266v-2.266l3.477-6.084-3.477-.869v-2.562l8.187-2.046.316-1.173h-7.723l.556-2.782c.491-2.456 2.273-4.475 4.65-5.268l6.97-2.322c1.221-1.873 2.629-3.627 4.219-5.218 4.803-4.804 10.885-7.934 17.587-9.051l.1-.017c1.366-.227 2.758-.342 4.138-.342h1v1c0 1.383-.115 2.774-.342 4.137l-.017.1c-1.117 6.701-4.247 12.783-9.051 17.588-1.59 1.59-3.344 2.997-5.217 4.218zm6.91-24.092c1.205 1.917 2.848 3.561 4.766 4.766.244-.923.461-1.857.619-2.809l.017-.1c.153-.919.251-1.853.292-2.786-.932.042-1.865.14-2.785.293l-.1.017c-.952.159-1.885.375-2.809.619zm-21.554 21.474-.613 2.276 3.183 3.183 2.277-.612c5.137-1.382 9.84-4.101 13.601-7.861 3.333-3.333 5.801-7.325 7.288-11.72-2.533-1.479-4.675-3.621-6.154-6.154-4.395 1.487-8.386 3.954-11.719 7.288-3.763 3.761-6.482 8.464-7.863 13.6zm-7.509-1.425h5.853c.6-1.995 1.389-3.921 2.354-5.755l-4.808 1.602c-1.698.567-2.971 2.009-3.322 3.764zm8.672 8.307-3.2-3.2-5.569 1.393 3.4.85-4.169 7.296 7.296-4.169.85 3.4zm10.863-2.733c-1.834.965-3.76 1.753-5.755 2.354v5.853l.389-.078c1.755-.351 3.197-1.624 3.763-3.322z" fill="url(#SVGID_1_)"/></svg>