<svg id="Line" height="512" viewBox="0 0 64 64" width="512" xmlns="http://www.w3.org/2000/svg"><g fill="#c4a2fc"><path d="m30 44.88-7.55-3.77a1 1 0 0 0 -.9 0l-7.55 3.77c-.2.15-1 .3-1 1.12v12a1 1 0 0 0 .55.89l8 4a1 1 0 0 0 .9 0l8-4a1 1 0 0 0 .55-.89v-12c0-.82-.8-1-1-1.12zm-8 4-5.76-2.88 5.76-2.88 5.76 2.88z"/><path d="m62 44.88-7.55-3.77a1 1 0 0 0 -.9 0l-7.55 3.77c-.2.15-1 .3-1 1.12v12a1 1 0 0 0 .55.89l8 4a1 1 0 0 0 .9 0l8-4a1 1 0 0 0 .55-.89v-12c0-.82-.8-1-1-1.12zm-8 4-5.76-2.88 5.76-2.88 5.76 2.88z"/><path d="m29.55 30.89 8 4a1 1 0 0 0 .9 0l8-4a1 1 0 0 0 .55-.89v-12c0-.82-.8-1-1-1.12l-7.55-3.77a1 1 0 0 0 -.9 0l-7.55 3.77c-.2.15-1 .3-1 1.12v12a1 1 0 0 0 .55.89zm8.45-15.77 4 2a1 1 0 0 1 0 1.79l-4 2-4-2a1 1 0 0 1 0-1.79z"/><path d="m50 27h2a1 1 0 0 1 1 1v7.59l-1.29-1.3a1 1 0 0 0 -1.42 1.42l3 3a1 1 0 0 0 1.42 0l3-3a1 1 0 0 0 -1.42-1.42l-1.29 1.3v-7.59a3 3 0 0 0 -3-3h-2a1 1 0 0 0 0 2z"/><path d="m21.29 38.71a1 1 0 0 0 1.42 0l3-3a1 1 0 0 0 -1.42-1.42l-1.29 1.3v-7.59a1 1 0 0 1 1-1h2a1 1 0 0 0 0-2h-2a3 3 0 0 0 -3 3v7.59l-1.29-1.3a1 1 0 0 0 -1.42 1.42z"/><path d="m42.71 51.29-2-2a1 1 0 0 0 -1.42 1.42l.3.29h-3.18l.3-.29a1 1 0 0 0 -1.42-1.42l-2 2a1 1 0 0 0 0 1.42l2 2a1 1 0 0 0 1.42-1.42l-.3-.29h3.18l-.3.29a1 1 0 0 0 1.42 1.42l2-2a1 1 0 0 0 0-1.42z"/></g><path d="m19.19 45.64a20 20 0 0 1 1.21-39.45l-1.11 1.1a1 1 0 0 0 1.42 1.42l3-3a1 1 0 0 0 0-1.42l-3-3a1 1 0 0 0 -1.42 1.42l1.42 1.41a22 22 0 0 0 -1.9 43.48 1 1 0 0 0 .38-2z" fill="#151a6a"/><path d="m45 26a22 22 0 0 0 -17.81-21.6 1 1 0 0 0 -.38 2 20 20 0 0 1 -1.21 39.41l1.11-1.1a1 1 0 0 0 -1.42-1.42l-3 3a1 1 0 0 0 0 1.42l3 3a1 1 0 0 0 1.42-1.42l-1.42-1.41a22 22 0 0 0 19.71-21.88z" fill="#151a6a"/><path d="m32.89 38.45 6-12a1 1 0 0 0 0-.9l-6-12a1.05 1.05 0 0 0 -.89-.55h-17a1 1 0 0 0 -.86.5l-7 12a1 1 0 0 0 0 1l7 12a1 1 0 0 0 .86.5h17a1 1 0 0 0 .89-.55zm4-12.45-4.89 9.76-4.88-9.76 4.88-9.76zm-6.5-11-5 10h-15.65l5.83-10zm-20.65 12h15.64l5 10h-14.81z" fill="#151a6a"/></svg>