<svg id="Line" height="512" viewBox="0 0 64 64" width="512" xmlns="http://www.w3.org/2000/svg"><g fill="#c4a2fc"><path d="m17.5 23a5 5 0 0 0 2.75-.83l8.11 8.11a11.74 11.74 0 0 0 -1.24 1.72h6.21a28.07 28.07 0 0 1 2.35-5.85 12 12 0 0 0 -5.91 2.7l-8.1-8.1a5 5 0 1 0 -4.17 2.25z"/><path d="m57.5 53a5 5 0 0 0 -2.75.83l-8.11-8.11a11.74 11.74 0 0 0 1.24-1.72h-6.21a28.07 28.07 0 0 1 -2.35 5.85 12 12 0 0 0 5.91-2.7l8.1 8.1a5 5 0 1 0 4.17-2.25z"/><path d="m26.2 34a11.78 11.78 0 0 0 0 8h6.68a22.4 22.4 0 0 1 0-8z"/><path d="m39.61 32a26.32 26.32 0 0 0 -2.11-5 26.32 26.32 0 0 0 -2.11 5z"/><path d="m35.39 44a26.32 26.32 0 0 0 2.11 5 26.32 26.32 0 0 0 2.11-5z"/><path d="m34.89 42h5.22a20.32 20.32 0 0 0 0-8h-5.22a20.32 20.32 0 0 0 0 8z"/><path d="m48.8 42a11.78 11.78 0 0 0 0-8h-6.68a22.4 22.4 0 0 1 0 8z"/><path d="m35.68 49.85a28.07 28.07 0 0 1 -2.35-5.85h-6.21a11.74 11.74 0 0 0 1.24 1.72l-8.11 8.11a5 5 0 1 0 1.42 1.42l8.1-8.1a12 12 0 0 0 5.91 2.7z"/><path d="m47.88 32a11.74 11.74 0 0 0 -1.24-1.72l8.11-8.11a5 5 0 1 0 -1.42-1.42l-8.1 8.1a12 12 0 0 0 -5.91-2.7 28.07 28.07 0 0 1 2.35 5.85z"/></g><path d="m1.5 4v32a3 3 0 0 0 3 3h44a3 3 0 0 0 3-3v-32a3 3 0 0 0 -3-3h-44a3 3 0 0 0 -3 3zm20.83 19.45c-1.45-2.18-2.65-1.68-3.95-.86a8.21 8.21 0 0 1 -4.88 1.41 19.68 19.68 0 0 0 -10 3.11v-14.58c1.3-.85 1.81-.78 1.94-.72.48.19.77 1.6 1 2.63.38 1.88 1 4.63 3.46 4.63a4 4 0 0 0 .8-.07c1.72-.35 2.26-1.76 2.68-2.9.54-1.41 1-2.64 3.32-3.1.54-.11 1-.19 1.42-.26 3.6-.6 3.31-1.63 3.38-5.72 0-.81 2.22-2.71 4.29-4h15.89c.31 1.89.77 6.74-2.55 8.07-5.56 2.23-5.68 4.8-4.61 10.13a2 2 0 0 1 -.63 1.62 2 2 0 0 1 -2.07.23 2 2 0 0 0 -2.5.9c-1.14 2.12.64 7.7 6.46 13.05h-9.38a3.61 3.61 0 0 0 -2.33-2.67 10.5 10.5 0 0 1 -2.86-2c-.95-.95-.64-1.73.43-3.55.88-1.56 1.98-3.42.69-5.35zm-17.83-20.45h17.82c-1.43 1.15-2.82 2.63-2.82 4a14.17 14.17 0 0 1 -.19 3.36 4 4 0 0 1 -1.52.39l-1.49.25a5.83 5.83 0 0 0 -4.79 4.36c-.42 1.12-.62 1.52-1.21 1.64-1 .2-1.38-.35-1.91-3-.36-1.73-.72-3.51-2.22-4.1a3.35 3.35 0 0 0 -2.67.3v-6.2a1 1 0 0 1 1-1zm44 34h-9.65c-5.73-4.55-7.63-9.1-7.85-11.09a2.15 2.15 0 0 1 .07-1 4 4 0 0 0 4.14-.59 3.91 3.91 0 0 0 1.27-3.52c-.94-4.68-1-6.11 3.39-7.87s4.21-7.41 3.83-9.93h4.8a1 1 0 0 1 1 1v32a1 1 0 0 1 -1 1zm-45-1v-6.49c1.22-.87 5.32-3.51 10-3.51a10.16 10.16 0 0 0 5.94-1.72 4.11 4.11 0 0 1 .71-.39 8.12 8.12 0 0 1 .52.66c.53.81.16 1.63-.75 3.18s-2.26 3.84-.13 6a12.86 12.86 0 0 0 3.34 2.39c.68.36 1 .55 1.21.9h-19.84a1 1 0 0 1 -1-1.02z" fill="#151a6a"/></svg>