<?xml version="1.0" encoding="utf-8"?>
<!-- Generator: Adobe Illustrator 23.1.0, SVG Export Plug-In . SVG Version: 6.00 Build 0)  -->
<svg version="1.1" id="Слой_1" xmlns="http://www.w3.org/2000/svg" xmlns:xlink="http://www.w3.org/1999/xlink" x="0px" y="0px"
	 width="255px" height="194px" viewBox="0 0 255 194" style="enable-background:new 0 0 255 194;" xml:space="preserve">
<style type="text/css">
	.st0{opacity:0.5;fill:none;stroke:#2776FA;stroke-width:2;enable-background:new    ;}
	.st1{fill:none;stroke:#2776FA;stroke-width:2;}
	.st2{fill:url(#SVGID_1_);stroke:#4289FF;stroke-width:2;}
	.st3{fill:url(#SVGID_2_);}
	.st4{fill:none;stroke:url(#SVGID_3_);stroke-linecap:round;}
	.st5{fill:url(#SVGID_4_);}
	.st6{opacity:0.9;fill:url(#SVGID_5_);enable-background:new    ;}
	.st7{fill:#EFEFEF;}
	.st8{fill:none;stroke:url(#SVGID_6_);stroke-linecap:round;}
	.st9{fill:none;stroke:url(#SVGID_7_);stroke-linecap:round;}
	.st10{fill:none;stroke:url(#SVGID_8_);stroke-linecap:round;}
	.st11{fill:none;stroke:url(#SVGID_9_);stroke-linecap:round;}
	.st12{fill:none;stroke:url(#SVGID_10_);stroke-linecap:round;}
	.st13{fill:none;stroke:url(#SVGID_11_);stroke-linecap:round;}
	.st14{fill:none;stroke:url(#SVGID_12_);stroke-linecap:round;}
	.st15{opacity:0.9;fill:#FFE984;enable-background:new    ;}
	.st16{fill:#BEAC4A;}
	.st17{fill:#00D4E1;}
	.st18{font-family:'Veltron';}
	.st19{font-size:14.2046px;}
	.st20{letter-spacing:-3.1;}
	.st21{letter-spacing:-3.5;}
</style>
<path class="st0" d="M141.6,182.7l-78.7-45.5c-2.2-1.3-3.5-3.6-3.5-6.1V6.9c0-2.3,2.5-3.8,4.5-2.6l78.7,45.5
	c2.2,1.3,3.5,3.6,3.5,6.1v124.2C146.2,182.4,143.6,183.9,141.6,182.7z"/>
<path class="st1" d="M133.8,186.2l-78.7-45.5c-2.2-1.3-3.5-3.6-3.5-6.1V10.4c0-2.3,2.5-3.8,4.5-2.6l78.7,45.5
	c2.2,1.3,3.5,3.6,3.5,6.1v124.2C138.3,185.9,135.8,187.3,133.8,186.2z"/>
<linearGradient id="SVGID_1_" gradientUnits="userSpaceOnUse" x1="118.597" y1="2.3794" x2="47.9786" y2="205.7493" gradientTransform="matrix(1 0 0 -1 0 196)">
	<stop  offset="0" style="stop-color:#042B76"/>
	<stop  offset="1" style="stop-color:#245CE6"/>
</linearGradient>
<path class="st2" d="M125.1,189.7l-78.7-45.5c-2.2-1.3-3.5-3.6-3.5-6.1V13.9c0-2.3,2.5-3.8,4.5-2.6l78.7,45.5
	c2.2,1.3,3.5,3.6,3.5,6.1v124.2C129.6,189.4,127.1,190.8,125.1,189.7z"/>
<linearGradient id="SVGID_2_" gradientUnits="userSpaceOnUse" x1="73.9474" y1="63.8978" x2="92.9032" y2="136.47" gradientTransform="matrix(1 0 0 -1 0 196)">
	<stop  offset="0" style="stop-color:#002162"/>
	<stop  offset="1" style="stop-color:#1648C4"/>
</linearGradient>
<path class="st3" d="M108,135.7c0,0.8-0.8,1.3-1.5,0.9l-48-27.9c-0.6-0.4-1-1-1-1.7v-46c0-0.8,0.8-1.3,1.5-0.9l47,27.3
	c1.2,0.7,2,2,2,3.5V135.7z"/>
<linearGradient id="SVGID_3_" gradientUnits="userSpaceOnUse" x1="32.7523" y1="86.383" x2="32.7523" y2="56.805" gradientTransform="matrix(1 0 0 -1 0 196)">
	<stop  offset="0" style="stop-color:#00D3FF"/>
	<stop  offset="1" style="stop-color:#4289FF;stop-opacity:0"/>
</linearGradient>
<path class="st4" d="M7.1,139.2l51.3-29.6"/>
<linearGradient id="SVGID_4_" gradientUnits="userSpaceOnUse" x1="80.2714" y1="40.868" x2="85.5838" y2="80.219" gradientTransform="matrix(1 0 0 -1 0 196)">
	<stop  offset="0" style="stop-color:#002162"/>
	<stop  offset="1" style="stop-color:#1648C4"/>
</linearGradient>
<path class="st5" d="M108,154.9c0,0.8-0.8,1.3-1.5,0.9l-48-27.9c-0.6-0.4-1-1-1-1.7v-7.8c0-0.8,0.8-1.3,1.5-0.9l47,27.3
	c1.2,0.7,2,2,2,3.5V154.9z"/>
<linearGradient id="SVGID_5_" gradientUnits="userSpaceOnUse" x1="13.3924" y1="114.0044" x2="88.2739" y2="48.3391" gradientTransform="matrix(1 0 0 -1 0 196)">
	<stop  offset="0" style="stop-color:#00FFF0"/>
	<stop  offset="1" style="stop-color:#007CC1"/>
</linearGradient>
<path class="st6" d="M77.6,154.9c0,0.8-0.8,1.3-1.5,0.9l-47-27.3c-1.2-0.7-2-2-2-3.5V77.4c0-0.8,0.8-1.3,1.5-0.9l47,27.3
	c1.2,0.7,2,2,2,3.5V154.9z"/>
<path class="st7" d="M51.9,101c-7.4-4.3-13.5-0.9-13.5,7.7s6,19,13.5,23.4c7.4,4.3,13.5,0.9,13.5-7.7S59.3,105.4,51.9,101z"/>
<linearGradient id="SVGID_6_" gradientUnits="userSpaceOnUse" x1="29.2729" y1="136.843" x2="29.2729" y2="103.7847" gradientTransform="matrix(1 0 0 -1 0 196)">
	<stop  offset="0" style="stop-color:#00D3FF"/>
	<stop  offset="1" style="stop-color:#4289FF;stop-opacity:0"/>
</linearGradient>
<path class="st8" d="M1,92.2l56.5-33.1"/>
<linearGradient id="SVGID_7_" gradientUnits="userSpaceOnUse" x1="80.819" y1="59.418" x2="80.819" y2="35.93" gradientTransform="matrix(1 0 0 -1 0 196)">
	<stop  offset="0" style="stop-color:#00D3FF"/>
	<stop  offset="1" style="stop-color:#4289FF;stop-opacity:0"/>
</linearGradient>
<path class="st9" d="M53.6,170.5l54.4-33.9"/>
<linearGradient id="SVGID_8_" gradientUnits="userSpaceOnUse" x1="83.2114" y1="107.2656" x2="83.2114" y2="78.557" gradientTransform="matrix(1 0 0 -1 0 196)">
	<stop  offset="0" style="stop-color:#00D3FF"/>
	<stop  offset="1" style="stop-color:#4289FF;stop-opacity:0"/>
</linearGradient>
<path class="st10" d="M58.4,117.4L108,88.7"/>
<linearGradient id="SVGID_9_" gradientUnits="userSpaceOnUse" x1="188.4745" y1="117.7034" x2="188.4745" y2="107.2639" gradientTransform="matrix(1 0 0 -1 0 196)">
	<stop  offset="0" style="stop-color:#00D3FF"/>
	<stop  offset="1" style="stop-color:#4289FF;stop-opacity:0"/>
</linearGradient>
<path class="st11" d="M180.2,91.3l16.5-13"/>
<linearGradient id="SVGID_10_" gradientUnits="userSpaceOnUse" x1="136.932" y1="154.2444" x2="136.932" y2="143.8049" gradientTransform="matrix(1 0 0 -1 0 196)">
	<stop  offset="0" style="stop-color:#00D3FF"/>
	<stop  offset="1" style="stop-color:#4289FF;stop-opacity:0"/>
</linearGradient>
<path class="st12" d="M129.3,54.8l15.2-13"/>
<linearGradient id="SVGID_11_" gradientUnits="userSpaceOnUse" x1="168.9015" y1="51.587" x2="168.9015" y2="39.408" gradientTransform="matrix(1 0 0 -1 0 196)">
	<stop  offset="0" style="stop-color:#00D3FF"/>
	<stop  offset="1" style="stop-color:#4289FF;stop-opacity:0"/>
</linearGradient>
<path class="st13" d="M159.3,159.6l19.1-15.2"/>
<linearGradient id="SVGID_12_" gradientUnits="userSpaceOnUse" x1="229.3635" y1="74.207" x2="229.3635" y2="62.028" gradientTransform="matrix(1 0 0 -1 0 196)">
	<stop  offset="0" style="stop-color:#00D3FF"/>
	<stop  offset="1" style="stop-color:#4289FF;stop-opacity:0"/>
</linearGradient>
<path class="st14" d="M220.7,136.1l17.4-13.5"/>
<path class="st15" d="M158.9,28.9l-6.6,15.2c-0.3,0.6-1,0.8-1.5,0.4l-3.7-2.6l-0.6-0.3c-0.4-0.2-0.8-0.2-1.2,0.1l-1.8,1.6
	c-0.5,0.5-1.4,0.3-1.6-0.4l-1.5-4.3c-0.1-0.2-0.2-0.4-0.4-0.5l-4.7-2.8c-0.8-0.4-0.6-1.6,0.2-1.8l22.2-6
	C158.6,27.3,159.3,28.1,158.9,28.9z"/>
<path class="st16" d="M154.4,30.2l-13.6,7.4l1.7,5.9l0.9-5L154.4,30.2z"/>
<path class="st16" d="M143.8,39.9l1.8,1.2l-2.7,2.4L143.8,39.9z"/>
<path class="st15" d="M202.9,122l-10.3,23.9c-0.3,0.6-1,0.8-1.5,0.4l-5.9-4.1l-1.2-0.7c-0.4-0.2-0.8-0.2-1.2,0.1l-3.5,3.1
	c-0.5,0.5-1.4,0.3-1.6-0.4l-2.6-7.2c-0.1-0.2-0.2-0.4-0.4-0.5l-8.1-4.7c-0.8-0.4-0.6-1.6,0.2-1.8l34.8-9.5
	C202.5,120.4,203.2,121.2,202.9,122z"/>
<path class="st16" d="M195.9,124.8l-20,10.9l2.6,8.7l1.3-7.4L195.9,124.8z"/>
<path class="st16" d="M180.2,139.2l2.6,1.7l-3.9,3.5L180.2,139.2z"/>
<path class="st15" d="M253.3,108.9l-6.2,14.3c-0.3,0.6-1,0.8-1.5,0.4l-3.5-2.4l-0.5-0.3c-0.4-0.2-0.8-0.2-1.2,0.1l-1.7,1.5
	c-0.5,0.5-1.4,0.3-1.6-0.4l-1.4-4c-0.1-0.2-0.2-0.4-0.4-0.5l-4.4-2.6c-0.8-0.4-0.6-1.6,0.2-1.8l20.9-5.7
	C253,107.3,253.7,108.1,253.3,108.9z"/>
<path class="st16" d="M249.1,110.1l-12.9,7l1.6,5.6l0.8-4.8L249.1,110.1z"/>
<path class="st16" d="M239,119.3l1.7,1.1l-2.5,2.2L239,119.3z"/>
<path class="st15" d="M227.8,48.9l-13.3,30.9c-0.3,0.6-1,0.8-1.5,0.4l-7.7-5.4l-1.6-0.9c-0.4-0.2-0.8-0.2-1.2,0.1l-4.8,4.3
	c-0.5,0.5-1.4,0.3-1.6-0.4l-3.4-9.5c-0.1-0.2-0.2-0.4-0.4-0.5l-10.8-6.3c-0.8-0.4-0.6-1.6,0.2-1.8l45-12.2
	C227.4,47.3,228.1,48.1,227.8,48.9z"/>
<path class="st16" d="M218.7,53l-25.2,13.7l3.2,10.9l1.6-9.3L218.7,53z"/>
<path class="st16" d="M199,71.1l3.3,2.2l-4.9,4.4L199,71.1z"/>
<text transform="matrix(0.802 0.5616 -3.518124e-03 1 43.7816 117.3096)" class="st17 st18 st19 st20">L</text>
<text transform="matrix(0.9435 0.6607 -3.518124e-03 1 50.0811 121.7209)" class="st17 st18 st19 st21">T</text>
</svg>
