<svg id="Capa_1" enable-background="new 0 0 512.13 512.13" height="512" viewBox="0 0 512.13 512.13" width="512" xmlns="http://www.w3.org/2000/svg"><g><g><path d="m.13 444.693v24.789c0 23.48 19.103 42.583 42.583 42.583h170.089l21.066-41.826-21.066-48.146z" fill="#faf6ff"/><path d="m215.751 421.918-2.948.175v89.972h173.431c23.48 0 42.583-19.103 42.583-42.583v-34.789z" fill="#e9e2ef"/></g><g><path d="m123.734 89.114v45.653c0 30.361 15.262 58.333 40.828 74.85v33.568l48.24 37.291 25.986-170.651-25.985-109.76c-49.113 0-89.069 39.937-89.069 89.049z" fill="#4c44a5"/><path d="m261.043 209.617c25.567-16.518 40.828-44.49 40.828-74.85v-45.653c0-49.112-39.956-89.049-89.068-89.049v280.411l48.24-37.291z" fill="#283b6a"/><g><path d="m164.562 243.185v70.858l-31.537 31.538h-101.405l-31.62 31.888v67.224h212.803l25.986-96.708-25.986-104.8z" fill="#6961cf"/><path d="m261.043 317.091v-73.906h-48.24v201.508h172.175c-23.817-18.034-114.035-98.861-123.935-127.602z" fill="#4c44a5"/></g></g><g><g><path d="m257.861 319.593c0 70.214 56.902 127.135 127.117 127.135l26.779-116.858-26.779-137.411c-70.215 0-127.117 56.92-127.117 127.134z" fill="#7ef3aa"/><path d="m384.977 192.459v254.269c70.214 0 127.152-56.92 127.152-127.135.001-70.214-56.937-127.134-127.152-127.134z" fill="#2acdb1"/></g><g><path d="m366.657 336.55-22.646-22.646-21.213 21.212 43.859 43.859 18.32-18.338 12.908-23.832-12.908-18.594z" fill="#faf6ff"/><path d="m429.203 274.004-44.226 44.207v42.426l65.439-65.42z" fill="#e9e2ef"/></g></g></g></svg>