<svg id="Capa_1" enable-background="new 0 0 512 512" height="512" viewBox="0 0 512 512" width="512" xmlns="http://www.w3.org/2000/svg"><g><g><path d="m43.193 212.807c0 55.074 21.043 107.349 59.253 147.195l153.554 151.998 25.005-280.953-25.005-231.047c-117.342 0-212.807 95.464-212.807 212.807z" fill="#887efa"/><path d="m256 0v512l146.444-144.922c20.708-19.667 37.012-42.83 48.458-68.846 11.881-27.007 17.906-55.748 17.906-85.426-.001-117.342-95.466-212.806-212.808-212.806z" fill="#6961cf"/></g><g><g><path d="m128.865 213.109c0 70.214 56.92 127.135 127.135 127.135l26.761-116.858-26.761-137.411c-70.214 0-127.135 56.92-127.135 127.134z" fill="#7ef3aa"/><path d="m256 85.975v254.269c70.214 0 127.135-56.92 127.135-127.135 0-70.214-56.921-127.134-127.135-127.134z" fill="#2acdb1"/></g><g><path d="m237.662 230.066-22.647-22.646-21.213 21.213 43.86 43.858 18.338-18.338 12.889-23.832-12.889-18.593z" fill="#faf6ff"/><path d="m300.208 167.52-44.208 44.208v42.425l65.421-65.42z" fill="#e9e2ef"/></g></g></g></svg>