<svg id="Capa_1" enable-background="new 0 0 512 512" height="512" viewBox="0 0 512 512" width="512" xmlns="http://www.w3.org/2000/svg"><g><g><g><path d="m464.933 84.365v103.484h-53.729l-26.864-64.416 26.864-64.416z" fill="#4c44a5"/><path d="m357.476 84.365 53.728-25.348v128.832h-53.728z" fill="#6961cf"/></g><g><path d="m0 240.578c0-37.789 30.743-68.531 68.531-68.531l72.848.001 173.343 76.473v108.571l-197.63-86.686-63.268 19.622-53.824-19.623z" fill="#e9e2ef"/><path d="m0 270.405h117.092v51.769h-117.092z" fill="#faf6ff"/></g><g><path d="m464.933 7.488v76.877h-53.729l-30.427-38.439 30.427-38.438z" fill="#6961cf"/><path d="m411.204 7.488v76.877h-198.672c-19.538-19.538-30.493-30.493-50.031-50.031v-26.846z" fill="#887efa"/><path d="m512 371.667h-100.796l-35.381-101.441 35.381-112.398h100.796z" fill="#e9e2ef"/><path d="m306.853 157.828h104.351v215.136h-104.351z" fill="#faf6ff"/></g><g><path d="m57.537 388.861h212.781v30.021h-212.781z" fill="#4c44a5"/></g><g><path d="m91.331 367.137c10.192 15.457 23.743 37.995 23.743 55.189 0 31.726-25.811 57.537-57.537 57.537l-15.746-73.835 15.746-83.853c.005.006 22.894 28.432 33.794 44.962z" fill="#887efa"/><path d="m23.742 367.138c10.901-16.532 33.795-44.964 33.795-44.964v157.689c-31.726 0-57.537-25.811-57.537-57.537 0-17.194 13.55-39.732 23.742-55.188z" fill="#a09efb"/></g></g><g><g><path d="m243.467 370.246c0 74.153 60.094 134.267 134.248 134.267l28.281-123.414-28.281-145.119c-74.154-.001-134.248 60.112-134.248 134.266z" fill="#7ef3aa"/><path d="m377.714 235.979v268.533c74.153 0 134.286-60.113 134.286-134.267 0-74.153-60.132-134.266-134.286-134.266z" fill="#2acdb1"/></g><g><path d="m359.395 387.202-22.646-22.646-21.213 21.213 43.859 43.859 18.32-18.339 12.908-23.832-12.908-18.593z" fill="#faf6ff"/><path d="m421.941 324.656-44.226 44.208v42.425l65.439-65.42z" fill="#e9e2ef"/></g></g></g></svg>