<svg id="Capa_1" enable-background="new 0 0 512 512" height="512" viewBox="0 0 512 512" width="512" xmlns="http://www.w3.org/2000/svg"><g><path d="m332 90c-34.861 0-241.811 0-272 0-16.542 0-30-13.458-30-30s13.458-30 30-30h226c8.284 0 15-6.716 15-15s-6.716-15-15-15h-226c-33.084 0-60 26.916-60 60s26.916 60 60 60h30.697c.938 10.223 2.831 20.257 5.64 30h-51.337c-8.284 0-15 6.716-15 15s6.716 15 15 15h63.363c27.267 52.197 83.013 90 148.637 90h62.536c23.415 0 42.464 19.049 42.464 42.464 0 25.781-9.229 32.093-93.263 81.703-9.676 5.712-20.221 11.939-31.717 18.778-10.049-29.588-38.078-50.945-71.02-50.945h-30c-8.284 0-15 6.716-15 15 0 24.508 11.818 46.305 30.052 60-18.234 13.695-30.052 35.492-30.052 60 0 8.284 6.716 15 15 15h30c36.215 0 66.515-25.821 73.488-60.007 1.456.001 2.921.002 4.398.002 77.11 0 168.666-3.299 223.304-57.866 29.734-29.694 44.81-71.457 44.81-124.129 0-99.4-80.926-180-180-180zm-211.15 30h151.15c33.084 0 60 26.916 60 60s-26.916 60-60 60h-15c-70.397 0-128.553-52.594-136.15-120zm216.186 122.149c15.457-16.168 24.964-38.069 24.964-62.149 0-22.947-8.637-43.911-22.825-59.825 61.722 2.922 113.794 43.32 133.917 98.894-14.964 31.11-46.215 50.931-81.092 50.931-4.93 0-9.844-.405-14.675-1.195-9.852-13.009-23.987-22.597-40.289-26.656zm19.596 132.694c9.457 12.368 21.191 22.728 34.468 30.56-33.778 11.615-73.002 15.137-109.794 16.182.893-.527 1.802-1.064 2.682-1.583 33.533-19.797 56.654-33.447 72.644-45.159zm-203.062 17.157h12.43c19.556 0 36.239 12.539 42.43 30h-12.43c-19.556 0-36.239-12.539-42.43-30zm12.43 90h-12.43c6.191-17.461 22.874-30.02 42.43-30.02h12.43c-6.191 17.461-22.874 30.02-42.43 30.02zm279.992-109.098c-5.84 5.833-12.305 10.966-19.267 15.498-19.255-5.626-36.128-17.61-47.859-33.94 9.301-11.785 13.134-24.552 13.134-41.996 0-4.257-.39-8.422-1.098-12.48 35.554.308 68.22-14.758 90.748-40.111.225 3.348.35 6.723.35 10.127 0 45.044-11.778 78.704-36.008 102.902z"/><circle cx="226" cy="165" r="15"/></g></svg>