<?xml version="1.0" encoding="iso-8859-1"?>
<!-- Generator: Adobe Illustrator 19.0.0, SVG Export Plug-In . SVG Version: 6.00 Build 0)  -->
<svg version="1.1" id="Capa_1" xmlns="http://www.w3.org/2000/svg" xmlns:xlink="http://www.w3.org/1999/xlink" x="0px" y="0px"
	 viewBox="0 0 490 490" style="enable-background:new 0 0 490 490;" xml:space="preserve">
<g>
	<path d="M0,172.057h490L245,7.805L0,172.057z M50.138,156.804L245,26.156l194.862,130.648H50.138z"/>
	<path d="M213.094,101.527c0,17.591,14.314,31.906,31.906,31.906s31.906-14.314,31.906-31.906c0-17.606-14.315-31.921-31.906-31.921
		S213.094,83.921,213.094,101.527z M261.653,101.527c0,9.176-7.478,16.653-16.653,16.653s-16.653-7.478-16.653-16.653
		c0-9.19,7.478-16.668,16.653-16.668S261.653,92.337,261.653,101.527z"/>
	<path d="M0.953,482.195h488.093V420.87H0.953V482.195z M16.206,436.123h457.588v30.819H16.206V436.123z"/>
	<path d="M49.259,197.156v196.381h61.325V197.156H49.259z M95.331,378.284H64.512V212.409h30.819V378.284z"/>
	<path d="M120.668,197.156v196.381h61.339V197.156H120.668z M166.754,378.284h-30.833V212.409h30.833V378.284z"/>
	<path d="M307.993,197.156v196.381h61.339V197.156H307.993z M354.079,378.284h-30.833V212.409h30.833V378.284z"/>
	<path d="M379.416,197.156v196.381h61.325V197.156H379.416z M425.488,378.284h-30.819V212.409h30.819V378.284z"/>
	<polygon points="252.626,351.055 252.626,252.656 278.544,278.574 289.329,267.79 245,223.461 200.671,267.79 211.456,278.574 
		237.374,252.656 237.374,351.055 	"/>
</g>
<g>
</g>
<g>
</g>
<g>
</g>
<g>
</g>
<g>
</g>
<g>
</g>
<g>
</g>
<g>
</g>
<g>
</g>
<g>
</g>
<g>
</g>
<g>
</g>
<g>
</g>
<g>
</g>
<g>
</g>
</svg>
