<?xml version="1.0" encoding="iso-8859-1"?>
<!-- Generator: Adobe Illustrator 19.0.0, SVG Export Plug-In . SVG Version: 6.00 Build 0)  -->
<svg version="1.1" id="Capa_1" xmlns="http://www.w3.org/2000/svg" xmlns:xlink="http://www.w3.org/1999/xlink" x="0px" y="0px"
	 viewBox="0 0 490 490" style="enable-background:new 0 0 490 490;" xml:space="preserve">
<g>
	<path d="M213.082,101.51c0,17.607,14.315,31.921,31.914,31.921c17.592,0,31.906-14.315,31.906-31.921
		c0-17.592-14.315-31.907-31.906-31.907C227.397,69.604,213.082,83.918,213.082,101.51z M261.65,101.51
		c0,9.191-7.47,16.668-16.653,16.668c-9.183,0-16.661-7.478-16.661-16.668c0-9.176,7.478-16.653,16.661-16.653
		C254.179,84.857,261.65,92.334,261.65,101.51z"/>
	<path d="M242.047,341.794c-10.767,0-20.757-3.655-27.677-8.265l-4.61,12.876c6.726,4.803,18.257,8.265,29.401,8.451v19.411h12.107
		v-19.982c19.795-3.271,30.364-17.493,30.364-32.672c0-17.103-9.991-27.1-29.787-35.167c-16.718-6.919-23.829-11.915-23.829-21.913
		c0-7.688,5.573-16.525,20.373-16.525c12.299,0,20.174,4.226,24.214,6.535l4.803-12.685c-5.572-3.27-13.454-6.342-24.983-6.726
		v-18.642h-11.915v19.411c-17.679,2.879-29.017,14.987-29.017,30.941c0,16.718,12.106,25.561,31.71,33.243
		c14.217,5.765,21.713,12.299,21.713,22.873C264.915,333.913,255.687,341.794,242.047,341.794z"/>
	<path d="M0,172.041h490L244.996,7.802L0,172.041z M50.139,156.788L244.996,26.153l194.865,130.635H50.139z"/>
	<path d="M0.946,482.198h488.101v-61.34H0.946V482.198z M16.199,436.111h457.594v30.834H16.199V436.111z"/>
	<path d="M49.245,197.155V393.54h61.333V197.155H49.245z M95.325,378.286H64.498V212.408h30.826V378.286z"/>
	<path d="M120.67,197.155V393.54h61.325V197.155H120.67z M166.742,378.286h-30.819V212.408h30.819V378.286z"/>
	<path d="M307.99,197.155V393.54h61.34V197.155H307.99z M354.077,378.286h-30.834V212.408h30.834V378.286z"/>
	<path d="M379.415,197.155V393.54h61.325V197.155H379.415z M425.487,378.286h-30.819V212.408h30.819V378.286z"/>
</g>
<g>
</g>
<g>
</g>
<g>
</g>
<g>
</g>
<g>
</g>
<g>
</g>
<g>
</g>
<g>
</g>
<g>
</g>
<g>
</g>
<g>
</g>
<g>
</g>
<g>
</g>
<g>
</g>
<g>
</g>
</svg>
