<?xml version="1.0" encoding="iso-8859-1"?>
<!-- Generator: Adobe Illustrator 19.0.0, SVG Export Plug-In . SVG Version: 6.00 Build 0)  -->
<svg version="1.1" id="Capa_1" xmlns="http://www.w3.org/2000/svg" xmlns:xlink="http://www.w3.org/1999/xlink" x="0px" y="0px"
	 viewBox="0 0 490 490" style="enable-background:new 0 0 490 490;" xml:space="preserve">
<g>
	<path d="M0,172.055h490L244.993,7.798L0,172.055z M50.139,156.801L244.993,26.15l194.868,130.652H50.139z"/>
	<path d="M213.086,101.523c0,17.607,14.315,31.922,31.907,31.922c17.607,0,31.922-14.315,31.922-31.922
		c0-17.592-14.315-31.907-31.922-31.907C227.4,69.616,213.086,83.931,213.086,101.523z M261.661,101.523
		c0,9.191-7.478,16.668-16.668,16.668c-9.176,0-16.654-7.478-16.654-16.668c0-9.176,7.478-16.654,16.654-16.654
		C254.183,84.869,261.661,92.347,261.661,101.523z"/>
	<path d="M0.938,482.202h488.108v-61.326H0.938V482.202z M16.192,436.129h457.602v30.82H16.192V436.129z"/>
	<path d="M49.246,197.154v196.387h61.326V197.154H49.246z M95.319,378.288H64.499v-165.88h30.819V378.288z"/>
	<path d="M120.671,197.154v196.387h61.326V197.154H120.671z M166.744,378.288h-30.82v-165.88h30.82V378.288z"/>
	<path d="M308.002,197.154v196.387h61.326V197.154H308.002z M354.075,378.288h-30.82v-165.88h30.82V378.288z"/>
	<path d="M379.413,197.154v196.387h61.341V197.154H379.413z M425.501,378.288h-30.834v-165.88h30.834V378.288z"/>
	<polygon points="237.366,223.461 237.366,321.863 211.447,295.944 200.662,306.728 244.993,351.059 289.323,306.728 
		278.538,295.944 252.619,321.863 252.619,223.461 	"/>
</g>
<g>
</g>
<g>
</g>
<g>
</g>
<g>
</g>
<g>
</g>
<g>
</g>
<g>
</g>
<g>
</g>
<g>
</g>
<g>
</g>
<g>
</g>
<g>
</g>
<g>
</g>
<g>
</g>
<g>
</g>
</svg>
