<?xml version="1.0" encoding="iso-8859-1"?>
<!-- Generator: Adobe Illustrator 19.0.0, SVG Export Plug-In . SVG Version: 6.00 Build 0)  -->
<svg version="1.1" id="Capa_1" xmlns="http://www.w3.org/2000/svg" xmlns:xlink="http://www.w3.org/1999/xlink" x="0px" y="0px"
	 viewBox="0 0 490 490" style="enable-background:new 0 0 490 490;" xml:space="preserve">
<g>
	<path d="M0,172.042h490L245,7.805L0,172.042z M50.138,156.789L245,26.156l194.862,130.633H50.138z"/>
	<path d="M0.953,482.195h488.093v-61.339H0.953V482.195z M16.206,436.108h457.588v30.834H16.206V436.108z"/>
	<path d="M49.259,197.156v196.381h61.325V197.156H49.259z M95.331,378.284H64.512V212.409h30.819V378.284z"/>
	<path d="M120.668,197.156v196.381h61.339V197.156H120.668z M166.754,378.284h-30.833V212.409h30.833V378.284z"/>
	<path d="M307.993,197.156v196.381h61.339V197.156H307.993z M354.079,378.284h-30.833V212.409h30.833V378.284z"/>
	<path d="M379.416,197.156v196.381h61.324V197.156H379.416z M425.488,378.284h-30.819V212.409h30.819V378.284z"/>
	<path d="M273.633,241.202l-20.821,39.342c-3.282,6.556-5.786,12.538-7.709,17.932h-0.581c-2.316-5.779-4.632-10.992-7.718-17.548
		l-20.052-39.726h-18.129l32.394,58.436h-25.069v9.641h29.898v13.881h-29.898v9.649h29.898v33.745h16v-33.745h30.093v-9.649h-30.093
		v-13.881h30.093v-9.641h-25.076l34.514-58.436H273.633z"/>
</g>
<g>
</g>
<g>
</g>
<g>
</g>
<g>
</g>
<g>
</g>
<g>
</g>
<g>
</g>
<g>
</g>
<g>
</g>
<g>
</g>
<g>
</g>
<g>
</g>
<g>
</g>
<g>
</g>
<g>
</g>
</svg>
