<?xml version="1.0" encoding="iso-8859-1"?>
<!-- Generator: Adobe Illustrator 19.0.0, SVG Export Plug-In . SVG Version: 6.00 Build 0)  -->
<svg version="1.1" id="Capa_1" xmlns="http://www.w3.org/2000/svg" xmlns:xlink="http://www.w3.org/1999/xlink" x="0px" y="0px"
	 viewBox="0 0 490 490" style="enable-background:new 0 0 490 490;" xml:space="preserve">
<g>
	<path d="M213.094,101.512c0,17.606,14.314,31.921,31.906,31.921s31.906-14.314,31.906-31.921c0-17.591-14.315-31.906-31.906-31.906
		S213.094,83.921,213.094,101.512z M261.653,101.512c0,9.191-7.477,16.668-16.653,16.668c-9.176,0-16.653-7.477-16.653-16.668
		c0-9.175,7.477-16.653,16.653-16.653C254.176,84.859,261.653,92.337,261.653,101.512z"/>
	<path d="M210.041,297.894h-10.84v9.318h11.79c1.709,13.685,6.462,24.709,13.69,32.695c9.504,11.031,23.189,16.924,38.591,16.924
		c12.545,0,22.432-3.994,28.325-7.988l-3.23-11.98c-4.372,2.476-13.117,6.274-23.194,6.274c-10.264,0-19.773-3.612-26.806-11.023
		c-5.134-5.706-8.933-13.88-10.455-24.903h53.802v-9.318H226.58c0-1.331,0-2.281,0-3.425c0-2.662,0.191-5.511,0.382-7.979h54.752
		v-9.513H228.67c1.904-10.073,5.706-18.629,11.408-24.14c6.465-6.843,14.83-10.455,25.094-10.455c8.555,0,16.541,2.468,21.294,5.317
		l3.803-12.541c-5.324-2.856-14.071-6.087-25.288-6.087c-15.589,0-27.947,5.707-37.643,15.78
		c-7.601,7.792-13.307,18.823-15.588,32.127h-12.549v9.513h11.218c-0.191,2.655-0.378,5.511-0.378,8.556
		C210.041,295.995,210.041,296.944,210.041,297.894z"/>
	<path d="M0,172.042h490L245,7.805L0,172.042z M50.138,156.789L245,26.156l194.862,130.633H50.138z"/>
	<path d="M0.953,482.195h488.093v-61.339H0.953V482.195z M16.206,436.108h457.588v30.834H16.206V436.108z"/>
	<path d="M49.259,197.156v196.381h61.325V197.156H49.259z M95.331,378.284H64.512V212.409h30.819V378.284z"/>
	<path d="M120.668,197.156v196.381h61.339V197.156H120.668z M166.754,378.284h-30.833V212.409h30.833V378.284z"/>
	<path d="M307.993,197.156v196.381h61.339V197.156H307.993z M354.079,378.284h-30.833V212.409h30.833V378.284z"/>
	<path d="M379.416,197.156v196.381h61.324V197.156H379.416z M425.488,378.284h-30.819V212.409h30.819V378.284z"/>
</g>
<g>
</g>
<g>
</g>
<g>
</g>
<g>
</g>
<g>
</g>
<g>
</g>
<g>
</g>
<g>
</g>
<g>
</g>
<g>
</g>
<g>
</g>
<g>
</g>
<g>
</g>
<g>
</g>
<g>
</g>
</svg>
