<?xml version="1.0" encoding="iso-8859-1"?>
<!-- Generator: Adobe Illustrator 19.0.0, SVG Export Plug-In . SVG Version: 6.00 Build 0)  -->
<svg version="1.1" id="Capa_1" xmlns="http://www.w3.org/2000/svg" xmlns:xlink="http://www.w3.org/1999/xlink" x="0px" y="0px"
	 viewBox="0 0 490 490" style="enable-background:new 0 0 490 490;" xml:space="preserve">
<g>
	<path d="M0,172.04h490L244.993,7.798L0,172.04z M50.139,156.787L244.993,26.15l194.868,130.637H50.139z"/>
	<path d="M213.011,101.508c0,17.607,14.315,31.922,31.907,31.922c17.592,0,31.907-14.315,31.907-31.922
		c0-17.592-14.315-31.907-31.907-31.907C227.326,69.601,213.011,83.916,213.011,101.508z M261.572,101.508
		c0,9.191-7.478,16.669-16.654,16.669c-9.176,0-16.654-7.478-16.654-16.669c0-9.176,7.478-16.654,16.654-16.654
		C254.094,84.854,261.572,92.332,261.572,101.508z"/>
	<path d="M0.938,482.202h488.108v-61.341H0.938V482.202z M16.192,436.114h457.602v30.834H16.192V436.114z"/>
	<path d="M49.246,197.154v196.387h61.326V197.154H49.246z M95.319,378.288h-30.82V212.408h30.82V378.288z"/>
	<path d="M120.672,197.154v196.387h61.326V197.154H120.672z M166.745,378.288h-30.82V212.408h30.82V378.288z"/>
	<path d="M308.002,197.154v196.387h61.326V197.154H308.002z M354.075,378.288h-30.82V212.408h30.82V378.288z"/>
	<path d="M379.413,197.154v196.387h61.341V197.154H379.413z M425.501,378.288h-30.834V212.408h30.834V378.288z"/>
	<polygon points="286.409,253.703 244.997,253.703 244.839,204.774 209.984,285.173 244.839,285.173 220.71,392.167 	"/>
</g>
<g>
</g>
<g>
</g>
<g>
</g>
<g>
</g>
<g>
</g>
<g>
</g>
<g>
</g>
<g>
</g>
<g>
</g>
<g>
</g>
<g>
</g>
<g>
</g>
<g>
</g>
<g>
</g>
<g>
</g>
</svg>
