<?xml version="1.0" encoding="iso-8859-1"?>
<!-- Generator: Adobe Illustrator 19.0.0, SVG Export Plug-In . SVG Version: 6.00 Build 0)  -->
<svg version="1.1" id="Capa_1" xmlns="http://www.w3.org/2000/svg" xmlns:xlink="http://www.w3.org/1999/xlink" x="0px" y="0px"
	 viewBox="0 0 490 490" style="enable-background:new 0 0 490 490;" xml:space="preserve">
<g>
	<path d="M245,0C109.69,0,0,109.69,0,245s109.69,245,245,245s245-109.69,245-245S380.31,0,245,0z M245,474.688
		C118.35,474.688,15.313,371.65,15.313,245C15.313,118.349,118.35,15.313,245,15.313c126.651,0,229.688,103.037,229.688,229.688
		C474.688,371.65,371.651,474.688,245,474.688z"/>
	<path d="M260.163,338.475h58.499V104.616h-58.499V338.475z M275.475,119.928h27.874v203.234h-27.874V119.928z"/>
	<path d="M171.339,338.475h58.499V194.337h-58.499V338.475z M186.651,209.65h27.874v113.513h-27.874V209.65z"/>
	<path d="M82.514,338.475h58.484V237.598H82.514V338.475z M97.826,252.911h27.859v70.252H97.826V252.911z"/>
	<path d="M349.002,338.475h58.484V194.337h-58.484V338.475z M364.315,209.65h27.859v113.513h-27.859V209.65z"/>
</g>
<g>
</g>
<g>
</g>
<g>
</g>
<g>
</g>
<g>
</g>
<g>
</g>
<g>
</g>
<g>
</g>
<g>
</g>
<g>
</g>
<g>
</g>
<g>
</g>
<g>
</g>
<g>
</g>
<g>
</g>
</svg>
