<?xml version="1.0" encoding="iso-8859-1"?>
<!-- Generator: Adobe Illustrator 19.0.0, SVG Export Plug-In . SVG Version: 6.00 Build 0)  -->
<svg version="1.1" id="Capa_1" xmlns="http://www.w3.org/2000/svg" xmlns:xlink="http://www.w3.org/1999/xlink" x="0px" y="0px"
	 viewBox="0 0 490 490" style="enable-background:new 0 0 490 490;" xml:space="preserve">
<g>
	<path d="M214.375,0H0v214.375h214.375V0z M199.063,199.063H15.313V15.313h183.75V199.063z"/>
	<polygon points="99.531,156.564 114.844,156.564 114.844,114.844 156.564,114.844 156.564,99.531 114.844,99.531 114.844,57.811 
		99.531,57.811 99.531,99.531 57.811,99.531 57.811,114.844 99.531,114.844 	"/>
	<path d="M275.625,214.375H490V0H275.625V214.375z M290.938,15.313h183.75v183.75h-183.75V15.313z"/>
	<polygon points="412.316,66.858 382.813,96.361 353.309,66.858 342.483,77.684 371.986,107.188 342.483,136.691 353.309,147.517 
		382.813,118.014 412.316,147.517 423.142,136.691 393.639,107.188 423.142,77.684 	"/>
	<path d="M214.375,275.625H0V490h214.375V275.625z M199.063,474.688H15.313v-183.75h183.75V474.688z"/>
	<rect x="57.811" y="375.156" width="98.754" height="15.313"/>
	<path d="M275.625,490H490V275.625H275.625V490z M290.938,290.938h183.75v183.75h-183.75V290.938z"/>
	<rect x="331.97" y="351.888" width="98.754" height="15.313"/>
	<rect x="331.97" y="398.424" width="98.754" height="15.313"/>
</g>
<g>
</g>
<g>
</g>
<g>
</g>
<g>
</g>
<g>
</g>
<g>
</g>
<g>
</g>
<g>
</g>
<g>
</g>
<g>
</g>
<g>
</g>
<g>
</g>
<g>
</g>
<g>
</g>
<g>
</g>
</svg>
