<?xml version="1.0" encoding="iso-8859-1"?>
<!-- Generator: Adobe Illustrator 19.0.0, SVG Export Plug-In . SVG Version: 6.00 Build 0)  -->
<svg version="1.1" id="Capa_1" xmlns="http://www.w3.org/2000/svg" xmlns:xlink="http://www.w3.org/1999/xlink" x="0px" y="0px"
	 viewBox="0 0 490 490" style="enable-background:new 0 0 490 490;" xml:space="preserve">
<g>
	<path d="M245,490c135.31,0,245-109.69,245-245S380.31,0,245,0S0,109.69,0,245S109.69,490,245,490z M245,15.313
		c126.651,0,229.688,103.037,229.688,229.688c0,126.65-103.037,229.688-229.688,229.688S15.313,371.65,15.313,245
		C15.313,118.349,118.349,15.313,245,15.313z"/>
	<path d="M245,433.771c104.255,0,188.771-84.516,188.771-188.771c0-104.256-84.516-188.771-188.771-188.771
		S56.229,140.744,56.229,245C56.229,349.255,140.745,433.771,245,433.771z M245,71.542c95.645,0,173.458,77.813,173.458,173.458
		S340.645,418.458,245,418.458S71.542,340.645,71.542,245S149.355,71.542,245,71.542z"/>
	<path d="M361.329,184.074l-45.863-38.52L204.839,275.635l-46.311-43.575l-41.287,43.365l92.428,86.985L361.329,184.074z
		 M138.954,274.828l20.173-21.174l46.939,44.173L317.26,167.057l22.415,18.842L208.443,340.22L138.954,274.828z"/>
</g>
<g>
</g>
<g>
</g>
<g>
</g>
<g>
</g>
<g>
</g>
<g>
</g>
<g>
</g>
<g>
</g>
<g>
</g>
<g>
</g>
<g>
</g>
<g>
</g>
<g>
</g>
<g>
</g>
<g>
</g>
</svg>
