<?xml version="1.0" encoding="iso-8859-1"?>
<!-- Generator: Adobe Illustrator 19.0.0, SVG Export Plug-In . SVG Version: 6.00 Build 0)  -->
<svg version="1.1" id="Capa_1" xmlns="http://www.w3.org/2000/svg" xmlns:xlink="http://www.w3.org/1999/xlink" x="0px" y="0px"
	 viewBox="0 0 490 490" style="enable-background:new 0 0 490 490;" xml:space="preserve">
<g>
	<path d="M203.419,273.606l-56.136-52.831l-47.777,50.169l109.49,103.045l181.492-213.388l-53.055-44.577L203.419,273.606z
		 M368.835,162.426L207.77,351.799l-86.551-81.452l26.662-27.978l56.764,53.429l134.582-158.269L368.835,162.426z"/>
	<path d="M245,0C109.69,0,0,109.69,0,245s109.69,245,245,245s245-109.69,245-245S380.31,0,245,0z M245,474.688
		C118.349,474.688,15.312,371.65,15.312,245C15.312,118.349,118.349,15.313,245,15.313S474.687,118.349,474.687,245
		C474.687,371.65,371.651,474.688,245,474.688z"/>
</g>
<g>
</g>
<g>
</g>
<g>
</g>
<g>
</g>
<g>
</g>
<g>
</g>
<g>
</g>
<g>
</g>
<g>
</g>
<g>
</g>
<g>
</g>
<g>
</g>
<g>
</g>
<g>
</g>
<g>
</g>
</svg>
