<?xml version="1.0" encoding="iso-8859-1"?>
<!-- Generator: Adobe Illustrator 19.0.0, SVG Export Plug-In . SVG Version: 6.00 Build 0)  -->
<svg version="1.1" id="Capa_1" xmlns="http://www.w3.org/2000/svg" xmlns:xlink="http://www.w3.org/1999/xlink" x="0px" y="0px"
	 viewBox="0 0 490 490" style="enable-background:new 0 0 490 490;" xml:space="preserve">
<g>
	<path d="M109.116,21.354C48.943,21.354,0,69.445,0,128.541c0,59.097,48.943,107.188,109.116,107.188
		c60.173,0,109.117-48.091,109.117-107.188C218.233,69.445,169.29,21.354,109.116,21.354z M109.116,220.416
		c-51.724,0-93.804-41.212-93.804-91.875c0-50.663,42.08-91.875,93.804-91.875c51.725,0,93.804,41.212,93.804,91.875
		C202.92,179.204,160.841,220.416,109.116,220.416z"/>
	<path d="M114.785,120.227c-15.406-6.44-21.959-11.091-21.959-20.397c0-7.157,5.135-15.383,18.774-15.383
		c11.334,0,18.591,3.934,22.314,6.083l4.426-11.808c-5.136-3.044-12.398-5.904-23.023-6.262V55.108h-10.98v18.069
		c-16.293,2.681-26.741,13.951-26.741,28.803c0,15.562,11.157,23.794,29.222,30.946c13.101,5.367,20.01,11.449,20.01,21.292
		c0,10.197-8.504,17.532-21.073,17.532c-9.922,0-19.128-3.402-25.504-7.695l-4.25,11.987c6.199,4.471,16.825,7.695,27.095,7.868
		v18.07h11.157v-18.601c18.243-3.044,27.981-16.284,27.981-30.414C142.234,137.043,133.027,127.737,114.785,120.227z"/>
	<path d="M380.883,21.354c-60.173,0-109.116,48.091-109.116,107.188c0,59.097,48.943,107.188,109.116,107.188
		c60.173,0,109.117-48.091,109.117-107.188C490,69.445,441.057,21.354,380.883,21.354z M380.883,220.416
		c-51.725,0-93.804-41.212-93.804-91.875c0-50.663,42.079-91.875,93.804-91.875c51.725,0,93.804,41.212,93.804,91.875
		C474.687,179.204,432.608,220.416,380.883,220.416z"/>
	<path d="M386.55,120.227c-15.406-6.44-21.959-11.091-21.959-20.397c0-7.157,5.135-15.383,18.774-15.383
		c11.334,0,18.591,3.934,22.314,6.083l4.426-11.808c-5.136-3.044-12.398-5.904-23.023-6.262V55.108h-10.98v18.069
		c-16.293,2.681-26.741,13.951-26.741,28.803c0,15.562,11.157,23.794,29.222,30.946c13.101,5.367,20.01,11.449,20.01,21.292
		c0,10.197-8.504,17.532-21.073,17.532c-9.922,0-19.129-3.402-25.504-7.695l-4.25,11.987c6.199,4.471,16.825,7.695,27.095,7.868
		v18.07h11.157v-18.601c18.242-3.044,27.981-16.284,27.981-30.414C413.999,137.043,404.792,127.737,386.55,120.227z"/>
	<path d="M135.883,361.459c0,59.097,48.943,107.188,109.117,107.188s109.116-48.091,109.116-107.188
		c0-59.097-48.943-107.188-109.116-107.188S135.883,302.362,135.883,361.459z M245,269.584c51.724,0,93.804,41.212,93.804,91.875
		c0,50.663-42.079,91.875-93.804,91.875s-93.804-41.212-93.804-91.875C151.196,310.796,193.275,269.584,245,269.584z"/>
	<path d="M241.637,404.663c-9.922,0-19.128-3.402-25.504-7.694l-4.25,11.986c6.199,4.471,16.825,7.694,27.095,7.867v18.07h11.157
		v-18.6c18.242-3.045,27.981-16.285,27.981-30.415c0-15.92-9.207-25.226-27.449-32.736c-15.406-6.44-21.959-11.091-21.959-20.397
		c0-7.157,5.135-15.384,18.774-15.384c11.334,0,18.591,3.934,22.314,6.083l4.426-11.808c-5.136-3.044-12.398-5.904-23.023-6.262
		v-17.353h-10.98v18.069c-16.293,2.68-26.741,13.951-26.741,28.802c0,15.562,11.157,23.794,29.222,30.946
		c13.101,5.367,20.01,11.449,20.01,21.293C262.711,397.327,254.207,404.663,241.637,404.663z"/>
</g>
<g>
</g>
<g>
</g>
<g>
</g>
<g>
</g>
<g>
</g>
<g>
</g>
<g>
</g>
<g>
</g>
<g>
</g>
<g>
</g>
<g>
</g>
<g>
</g>
<g>
</g>
<g>
</g>
<g>
</g>
</svg>
