<?xml version="1.0" encoding="iso-8859-1"?>
<!-- Generator: Adobe Illustrator 19.0.0, SVG Export Plug-In . SVG Version: 6.00 Build 0)  -->
<svg version="1.1" id="Capa_1" xmlns="http://www.w3.org/2000/svg" xmlns:xlink="http://www.w3.org/1999/xlink" x="0px" y="0px"
	 viewBox="0 0 490 490" style="enable-background:new 0 0 490 490;" xml:space="preserve">
<g>
	<path d="M429.983,0H60.018v490h369.965V0z M415.134,475.151H74.866V14.849h340.268V475.151z"/>
	<rect x="106.868" y="173.23" width="275.48" height="14.849"/>
	<rect x="106.868" y="98.988" width="275.48" height="14.849"/>
	<rect x="106.868" y="64.346" width="275.48" height="14.848"/>
	<rect x="106.868" y="211.178" width="275.48" height="14.849"/>
	<rect x="106.868" y="249.125" width="275.48" height="14.841"/>
	<rect x="106.868" y="287.066" width="275.48" height="14.849"/>
	<rect x="106.868" y="325.014" width="275.48" height="14.849"/>
	<rect x="217.768" y="409.406" width="140.162" height="14.849"/>
	<polygon points="186.259,373.387 164.414,395.238 142.569,373.387 132.07,383.885 153.917,405.738 132.07,427.59 142.569,438.088 
		164.414,416.238 186.259,438.088 196.757,427.59 174.91,405.738 196.757,383.885 	"/>
</g>
<g>
</g>
<g>
</g>
<g>
</g>
<g>
</g>
<g>
</g>
<g>
</g>
<g>
</g>
<g>
</g>
<g>
</g>
<g>
</g>
<g>
</g>
<g>
</g>
<g>
</g>
<g>
</g>
<g>
</g>
</svg>
