<?xml version="1.0" encoding="iso-8859-1"?>
<!-- Generator: Adobe Illustrator 19.0.0, SVG Export Plug-In . SVG Version: 6.00 Build 0)  -->
<svg version="1.1" id="Capa_1" xmlns="http://www.w3.org/2000/svg" xmlns:xlink="http://www.w3.org/1999/xlink" x="0px" y="0px"
	 viewBox="0 0 490 490" style="enable-background:new 0 0 490 490;" xml:space="preserve">
<g>
	<path d="M234.929,0.088V38.64c-34.76,5.719-57.052,29.765-57.052,61.452c0,33.203,23.804,50.765,62.347,66.024
		c27.952,11.449,42.691,24.428,42.691,45.43c0,21.753-18.142,37.405-44.961,37.405c-21.169,0-40.812-7.259-54.416-16.416
		l-9.066,25.574c13.226,9.54,35.895,16.417,57.809,16.787v38.552h23.804V273.76c38.921-6.495,59.699-34.743,59.699-64.89
		c0-33.967-19.643-53.822-58.564-69.845c-32.869-13.742-46.853-23.664-46.853-43.519c0-15.271,10.957-32.821,40.057-32.821
		c24.182,0,39.665,8.394,47.608,12.978l9.443-25.191c-10.957-6.496-26.452-12.597-49.122-13.361V0.088H234.929z"/>
	<path d="M485.509,225.463l-7.713,1.883c-26.982,6.562-29.074,24.007-31.481,44.217c-1.256,10.404-2.661,22.198-7.145,36.19
		c-4.813,14.948-15.068,25.636-25.801,33.11c6.218-7.833,12.512-17.011,17.773-27.266c6.129-11.929,6.592-21.211,1.375-27.594
		c-8.715-10.718-28.476-5.875-32.333-4.798l-2.586,0.733l-1.57,2.138c-0.179,0.269-19.926,26.787-86.64,73.56
		c-73.68,51.646-35.965,127.359-35.562,128.121l2.123,4.156h67.207l0.389-7.235c1.659-30.734,26.533-49.09,58.029-72.319
		c15.711-11.585,33.514-24.724,50.211-40.973c52.139-50.779,36.025-132.68,35.323-136.148L485.509,225.463z M441.113,358.412
		c-15.95,15.531-32.572,27.789-48.627,39.628c-31.182,23.005-58.388,43.081-63.485,76.565h-43.44
		c-6.114-14.948-21.72-66.355,32.617-104.443c58.747-41.182,82.156-67.118,88.434-74.771c6.458-1.375,12.945-1.076,14.051,0.284
		c0.015,0.015,1.166,2.556-3.124,10.927c-15.576,30.3-41.855,51.063-42.124,51.258l-25.666,20.075l31.914-6.532
		c2.317-0.478,57.042-12.198,72.08-58.971c4.933-15.397,6.502-28.521,7.758-39.06c1.898-15.905,2.84-23.783,11.884-28.357
		C475.838,266.406,478.05,322.432,441.113,358.412z"/>
	<path d="M88.439,410.357c31.496,23.229,56.37,41.586,58.029,72.319l0.389,7.235h67.192l2.123-4.156
		c0.389-0.762,38.133-76.475-35.562-128.121c-66.714-46.773-86.446-73.291-86.625-73.545l-1.585-2.182l-2.571-0.703
		c-3.857-1.076-23.618-5.905-32.348,4.798c-5.202,6.398-4.739,15.681,1.39,27.594c5.262,10.255,11.555,19.433,17.773,27.266
		c-10.733-7.474-21.002-18.162-25.801-33.11c-4.499-14.007-5.904-25.801-7.145-36.205c-2.422-20.195-4.499-37.64-31.496-44.202
		l-7.713-1.883l-1.599,7.773c-0.703,3.468-16.817,85.369,35.338,136.148C54.925,385.633,72.729,398.773,88.439,410.357z
		 M16.628,245.015c9.029,4.589,9.971,12.452,11.869,28.357c1.256,10.539,2.825,23.648,7.773,39.06
		c15.008,46.773,69.763,58.492,72.08,58.971l32.064,6.562l-25.816-20.105c-0.269-0.209-26.488-20.838-42.124-51.258
		c-4.305-8.386-3.139-10.912-3.124-10.927c1.121-1.36,7.579-1.659,14.051-0.284c6.278,7.654,29.672,33.589,88.419,74.771
		c54.113,37.924,38.656,89.45,32.587,104.443h-43.395c-5.112-33.499-32.303-53.56-63.485-76.565
		c-16.069-11.839-32.677-24.096-48.627-39.628C12.054,322.537,14.206,266.436,16.628,245.015z"/>
</g>
<g>
</g>
<g>
</g>
<g>
</g>
<g>
</g>
<g>
</g>
<g>
</g>
<g>
</g>
<g>
</g>
<g>
</g>
<g>
</g>
<g>
</g>
<g>
</g>
<g>
</g>
<g>
</g>
<g>
</g>
</svg>
