<?xml version="1.0" encoding="iso-8859-1"?>
<!-- Generator: Adobe Illustrator 19.0.0, SVG Export Plug-In . SVG Version: 6.00 Build 0)  -->
<svg version="1.1" id="Capa_1" xmlns="http://www.w3.org/2000/svg" xmlns:xlink="http://www.w3.org/1999/xlink" x="0px" y="0px"
	 viewBox="0 0 490 490" style="enable-background:new 0 0 490 490;" xml:space="preserve">
<g>
	<path d="M145.469,370.314v53.843h-17.865c-13.334,0-24.244,10.91-24.244,24.245c0,13.334,10.91,24.245,24.244,24.245h234.792
		c13.335,0,24.245-10.911,24.245-24.245c0-13.335-10.91-24.245-24.245-24.245h-17.865v-53.843H145.469z M160.781,385.626h168.437
		v38.531H160.781V385.626z M371.328,448.401c0,4.842-4.091,8.932-8.932,8.932H127.604c-4.841,0-8.932-4.091-8.932-8.932
		c0-4.842,4.091-8.932,8.932-8.932h234.792C367.237,439.469,371.328,443.559,371.328,448.401z"/>
	<path d="M30.625,338.917h428.75c16.843,0,30.625-13.781,30.625-30.625V47.979c0-16.843-13.782-30.625-30.625-30.625H30.625
		C13.782,17.354,0,31.136,0,47.979v260.313C0,325.136,13.782,338.917,30.625,338.917z M15.313,47.979
		c0-8.443,6.869-15.313,15.313-15.313h428.75c8.443,0,15.313,6.869,15.313,15.313v260.313c0,8.443-6.869,15.313-15.313,15.313
		H30.625c-8.443,0-15.313-6.869-15.313-15.313V47.979z"/>
	<path d="M298.164,244.789c13.452,15.611,32.82,23.951,54.616,23.951c17.754,0,31.746-5.652,40.085-11.304l-4.572-16.955
		c-6.185,3.504-18.563,8.88-32.824,8.88c-14.526,0-27.984-5.112-37.937-15.6c-7.266-8.075-12.642-19.643-14.796-35.243h76.144
		v-13.187h-78.028c0-1.884,0-3.228,0-4.848c0-3.767,0.27-7.799,0.54-11.292h77.488v-13.463h-75.07
		c2.693-14.255,8.076-26.363,16.145-34.163c9.15-9.684,20.987-14.796,35.514-14.796c12.107,0,23.411,3.493,30.136,7.524
		l5.382-17.748c-7.536-4.044-19.914-8.615-35.789-8.615c-22.061,0-39.551,8.075-53.272,22.331
		c-10.758,11.027-18.834,26.639-22.062,45.466h-17.759v13.463h15.876c-0.27,3.756-0.535,7.8-0.535,12.108c0,1.344,0,2.688,0,4.032
		h-15.341v13.187h16.685C281.209,217.886,287.935,233.486,298.164,244.789z"/>
	<polygon points="147.413,112.887 147.413,262.259 162.725,262.259 162.725,112.89 202.158,152.335 212.984,141.508 155.069,83.578 
		97.139,141.508 107.965,152.335 	"/>
</g>
<g>
</g>
<g>
</g>
<g>
</g>
<g>
</g>
<g>
</g>
<g>
</g>
<g>
</g>
<g>
</g>
<g>
</g>
<g>
</g>
<g>
</g>
<g>
</g>
<g>
</g>
<g>
</g>
<g>
</g>
</svg>
