<?xml version="1.0" encoding="iso-8859-1"?>
<!-- Generator: Adobe Illustrator 19.0.0, SVG Export Plug-In . SVG Version: 6.00 Build 0)  -->
<svg version="1.1" id="Capa_1" xmlns="http://www.w3.org/2000/svg" xmlns:xlink="http://www.w3.org/1999/xlink" x="0px" y="0px"
	 viewBox="0 0 490 490" style="enable-background:new 0 0 490 490;" xml:space="preserve">
<g>
	<path d="M383.515,344.307c-21.115,0-38.281,17.167-38.281,38.281v69.13c0,21.115,17.167,38.281,38.281,38.281h68.204
		C472.833,490,490,472.833,490,451.719v-69.13c0-21.115-17.167-38.281-38.281-38.281h-26.438v-72.615H255.617v-57.849
		c55.17-5.297,98.425-51.104,98.425-106.656C354.042,48.091,305.099,0,244.925,0c-60.173,0-109.117,48.091-109.117,107.188
		c0,57.565,46.475,104.553,104.496,106.958v57.547H64.734v72.615H38.281C17.167,344.307,0,361.474,0,382.588v69.13
		C0,472.833,17.167,490,38.281,490H106.5c21.114,0,38.281-17.167,38.281-38.281v-69.13c0-21.115-17.167-38.281-38.281-38.281H80.047
		v-57.302h160.258v57.302h-29.399c-21.115,0-38.281,17.167-38.281,38.281v69.13c0,21.115,17.167,38.281,38.281,38.281h68.203
		c21.115,0,38.281-17.167,38.281-38.281v-69.13c0-21.115-17.167-38.281-38.281-38.281h-23.492v-57.302h154.351v57.302H383.515z
		 M151.121,107.188c0-50.663,42.079-91.875,93.804-91.875c51.725,0,93.804,41.212,93.804,91.875s-42.079,91.875-93.804,91.875
		C193.201,199.063,151.121,157.85,151.121,107.188z M129.468,382.588v69.13c0,12.666-10.303,22.969-22.969,22.969H38.281
		c-12.666,0-22.969-10.303-22.969-22.969v-69.13c0-12.666,10.303-22.969,22.969-22.969H106.5
		C119.165,359.619,129.468,369.923,129.468,382.588z M302.078,382.588v69.13c0,12.666-10.303,22.969-22.969,22.969h-68.203
		c-12.666,0-22.969-10.303-22.969-22.969v-69.13c0-12.666,10.303-22.969,22.969-22.969h68.203
		C291.775,359.619,302.078,369.923,302.078,382.588z M474.688,382.588v69.13c0,12.666-10.303,22.969-22.969,22.969h-68.204
		c-12.666,0-22.969-10.303-22.969-22.969v-69.13c0-12.666,10.303-22.969,22.969-22.969h68.204
		C464.384,359.619,474.688,369.923,474.688,382.588z"/>
	<path d="M281.961,163.165l-3.236-11.998c-4.377,2.479-13.135,6.283-23.227,6.283c-10.278,0-19.8-3.618-26.844-11.038
		c-5.141-5.714-8.945-13.899-10.469-24.938h53.879v-9.331h-55.212c0-1.334,0-2.284,0-3.43c0-2.666,0.191-5.52,0.381-7.991h54.83
		v-9.526h-53.119c1.907-10.087,5.714-18.655,11.425-24.173c6.474-6.853,14.851-10.469,25.129-10.469
		c8.567,0,16.566,2.471,21.325,5.324l3.809-12.559c-5.332-2.861-14.091-6.095-25.324-6.095c-15.611,0-27.986,5.714-37.695,15.801
		c-7.612,7.803-13.327,18.85-15.611,32.172h-12.567v9.526h11.234c-0.192,2.658-0.378,5.519-0.378,8.567c0,0.951,0,1.902,0,2.853
		h-10.855v9.331h11.807c1.711,13.704,6.47,24.743,13.709,32.741c9.518,11.046,23.222,16.947,38.646,16.947
		C266.159,171.162,276.06,167.164,281.961,163.165z"/>
</g>
<g>
</g>
<g>
</g>
<g>
</g>
<g>
</g>
<g>
</g>
<g>
</g>
<g>
</g>
<g>
</g>
<g>
</g>
<g>
</g>
<g>
</g>
<g>
</g>
<g>
</g>
<g>
</g>
<g>
</g>
</svg>
