<?xml version="1.0" encoding="iso-8859-1"?>
<!-- Generator: Adobe Illustrator 19.0.0, SVG Export Plug-In . SVG Version: 6.00 Build 0)  -->
<svg version="1.1" id="Capa_1" xmlns="http://www.w3.org/2000/svg" xmlns:xlink="http://www.w3.org/1999/xlink" x="0px" y="0px"
	 viewBox="0 0 490 490" style="enable-background:new 0 0 490 490;" xml:space="preserve">
<g>
	<path d="M326.978,310.879l-5.138-19.033l-17.17,9.687c-3.329,1.878-15.284,8.005-29.367,8.005c-8.863,0-21.527-2.215-31.522-12.768
		c-3.322-3.689-6.082-8.303-8.229-13.763h66.054h15.313v-15.313v-14.82v-2.847v-15.313v-15.107v-15.313h-15.313h-63.743
		c2.298-4.979,5.052-9.083,8.158-12.085c8.015-8.465,17.433-12.339,29.283-12.339c10.713,0,20.78,3.158,26.003,6.287l16.843,10.092
		l5.683-18.796l6.036-19.963l3.63-12.004l-11.054-5.924c-8.01-4.292-24.826-11.494-47.444-11.494
		c-28.035,0-51.896,10.027-70.923,29.802c-12.076,12.396-20.952,28.281-26.008,46.424h-7.722h-15.313v15.313v15.107v15.313v2.847
		v14.82v15.313h15.313h5.874c4.195,18.74,12.007,34.502,23.309,46.98c17.675,20.5,43.594,31.943,72.738,31.943
		c19.729,0,39.289-5.589,53.661-15.334l9.035-6.126l-2.844-10.539L326.978,310.879z M272.269,346.617
		c-24.498,0-46.265-9.374-61.388-26.909c-11.499-12.696-19.053-30.248-21.784-52.014h-18.749v-14.82h17.248c0-1.518,0-3.036,0-4.536
		c0-4.839,0.304-9.375,0.607-13.624h-17.856v-15.107h19.963c3.641-21.176,12.712-38.711,24.801-51.121
		c15.428-16.034,35.086-25.105,59.888-25.105c17.838,0,31.747,5.143,40.211,9.679l-6.036,19.962
		c-7.57-4.536-20.266-8.464-33.873-8.464c-16.338,0-29.64,5.75-39.925,16.641c-9.071,8.768-15.124,22.373-18.142,38.407h84.369
		v15.107h-87.101c-0.303,3.946-0.606,8.481-0.606,12.713c0,1.804,0,3.321,0,5.446h87.708v14.82h-85.583
		c2.411,17.535,8.464,30.534,16.641,39.605c11.178,11.803,26.301,17.552,42.639,17.552c16.017,0,29.928-6.052,36.891-9.982
		l5.143,19.053C307.962,340.278,292.232,346.617,272.269,346.617z"/>
	<path d="M436.406,76.563L367.5,0H53.594v490h382.813V76.563z M367.814,23.239l48.853,54.281h-48.853V23.239z M68.906,474.688
		V15.313h283.595v77.52h68.592v381.855H68.906z"/>
</g>
<g>
</g>
<g>
</g>
<g>
</g>
<g>
</g>
<g>
</g>
<g>
</g>
<g>
</g>
<g>
</g>
<g>
</g>
<g>
</g>
<g>
</g>
<g>
</g>
<g>
</g>
<g>
</g>
<g>
</g>
</svg>
