<?xml version="1.0" encoding="iso-8859-1"?>
<!-- Generator: Adobe Illustrator 19.0.0, SVG Export Plug-In . SVG Version: 6.00 Build 0)  -->
<svg version="1.1" id="Capa_1" xmlns="http://www.w3.org/2000/svg" xmlns:xlink="http://www.w3.org/1999/xlink" x="0px" y="0px"
	 viewBox="0 0 490 490" style="enable-background:new 0 0 490 490;" xml:space="preserve">
<g>
	<path d="M109.41,235.704c60.335,0,109.41-48.213,109.41-107.476S169.746,20.751,109.41,20.751C49.075,20.751,0,68.964,0,128.228
		S49.075,235.704,109.41,235.704z M109.41,36.105c51.864,0,94.057,41.323,94.057,92.122c0,50.799-42.193,92.122-94.057,92.122
		c-51.864,0-94.057-41.323-94.057-92.122C15.354,77.428,57.547,36.105,109.41,36.105z"/>
	<path d="M79.35,175.379c9.544,11.076,23.285,16.993,38.75,16.993c12.597,0,22.524-4.01,28.441-8.02l-3.243-12.03
		c-4.389,2.486-13.171,6.3-23.29,6.3c-10.306,0-19.854-3.627-26.916-11.068c-5.155-5.73-8.969-13.937-10.498-25.005h54.024v-9.356
		h-55.36c0-1.336,0-2.29,0-3.439c0-2.673,0.191-5.534,0.383-8.011h54.977v-9.552H83.356c1.912-10.114,5.729-18.705,11.455-24.239
		c6.491-6.87,14.891-10.498,25.196-10.498c8.59,0,16.61,2.479,21.382,5.339l3.819-12.592c-5.346-2.868-14.128-6.113-25.392-6.113
		c-15.653,0-28.061,5.729-37.797,15.845c-7.633,7.824-13.362,18.9-15.653,32.258h-12.6v9.552H65.03
		c-0.191,2.665-0.379,5.534-0.379,8.59c0,0.954,0,1.908,0,2.861H53.767v9.356h11.838C67.321,156.291,72.092,167.359,79.35,175.379z"
		/>
	<path d="M380.59,235.704c60.335,0,109.41-48.213,109.41-107.476S440.925,20.751,380.59,20.751
		c-60.335,0-109.41,48.213-109.41,107.476S320.254,235.704,380.59,235.704z M380.59,36.105c51.864,0,94.057,41.323,94.057,92.122
		c0,50.799-42.193,92.122-94.057,92.122c-51.864,0-94.057-41.323-94.057-92.122C286.533,77.428,328.726,36.105,380.59,36.105z"/>
	<path d="M350.538,175.379c9.544,11.076,23.285,16.993,38.751,16.993c12.597,0,22.524-4.01,28.441-8.02l-3.244-12.03
		c-4.388,2.486-13.17,6.3-23.289,6.3c-10.306,0-19.854-3.627-26.916-11.068c-5.155-5.73-8.969-13.937-10.498-25.005h54.024v-9.356
		h-55.36c0-1.336,0-2.29,0-3.439c0-2.673,0.191-5.534,0.382-8.011h54.978v-9.552h-53.262c1.912-10.114,5.729-18.705,11.455-24.239
		c6.491-6.87,14.891-10.498,25.196-10.498c8.59,0,16.61,2.479,21.382,5.339l3.819-12.592c-5.347-2.868-14.129-6.113-25.392-6.113
		c-15.653,0-28.061,5.729-37.797,15.845c-7.633,7.824-13.362,18.9-15.653,32.258h-12.6v9.552h11.264
		c-0.192,2.665-0.379,5.534-0.379,8.59c0,0.954,0,1.908,0,2.861h-10.885v9.356h11.839
		C338.509,156.291,343.281,167.359,350.538,175.379z"/>
	<path d="M136.249,361.772c0,59.256,49.075,107.476,109.41,107.476c60.335,0,109.41-48.22,109.41-107.476
		c0-59.256-49.075-107.476-109.41-107.476C185.324,254.296,136.249,302.517,136.249,361.772z M245.66,269.65
		c51.864,0,94.057,41.323,94.057,92.122c0,50.799-42.193,92.122-94.057,92.122c-51.864,0-94.057-41.323-94.057-92.122
		C151.603,310.973,193.796,269.65,245.66,269.65z"/>
	<path d="M215.599,408.92c9.544,11.076,23.285,16.993,38.75,16.993c12.597,0,22.524-4.01,28.441-8.02l-3.243-12.03
		c-4.389,2.486-13.171,6.3-23.29,6.3c-10.306,0-19.854-3.627-26.916-11.068c-5.155-5.729-8.969-13.937-10.498-25.004h54.024v-9.357
		h-55.36c0-1.336,0-2.29,0-3.439c0-2.673,0.191-5.534,0.383-8.011h54.977v-9.552h-53.262c1.912-10.114,5.73-18.705,11.455-24.239
		c6.492-6.871,14.891-10.498,25.196-10.498c8.591,0,16.61,2.478,21.382,5.338l3.819-12.592c-5.346-2.868-14.128-6.113-25.392-6.113
		c-15.653,0-28.061,5.729-37.797,15.845c-7.633,7.824-13.362,18.9-15.653,32.258h-12.6v9.552h11.263
		c-0.191,2.665-0.379,5.534-0.379,8.591c0,0.953,0,1.907,0,2.86h-10.884v9.357h11.838C203.569,389.832,208.341,400.9,215.599,408.92
		z"/>
</g>
<g>
</g>
<g>
</g>
<g>
</g>
<g>
</g>
<g>
</g>
<g>
</g>
<g>
</g>
<g>
</g>
<g>
</g>
<g>
</g>
<g>
</g>
<g>
</g>
<g>
</g>
<g>
</g>
<g>
</g>
</svg>
