<?xml version="1.0" encoding="iso-8859-1"?>
<!-- Generator: Adobe Illustrator 19.0.0, SVG Export Plug-In . SVG Version: 6.00 Build 0)  -->
<svg version="1.1" id="Capa_1" xmlns="http://www.w3.org/2000/svg" xmlns:xlink="http://www.w3.org/1999/xlink" x="0px" y="0px"
	 viewBox="0 0 490 490" style="enable-background:new 0 0 490 490;" xml:space="preserve">
<g>
	<path d="M214.455,38.162H51.76L0,94.308v357.531h490V84.099H260.393L214.455,38.162z M474.688,436.526H15.312V100.288L58.47,53.474
		h149.643l41.452,41.452l4.485,4.485h6.343h214.295V436.526z"/>
	<path d="M195.898,208.571c0,27.118,21.984,49.102,49.102,49.102c27.118,0,49.102-21.984,49.102-49.102
		c0-27.118-21.984-49.103-49.102-49.103C217.882,159.468,195.898,181.453,195.898,208.571z M278.79,208.571
		c0,18.631-15.157,33.79-33.79,33.79c-18.631,0-33.79-15.158-33.79-33.79c0-18.632,15.158-33.791,33.79-33.791
		C263.632,174.781,278.79,189.939,278.79,208.571z"/>
	<path d="M145.469,315.401c0,45.785,0,56.401,0,56.401s96.875,0,97.209,0l-47.443-102.849
		C195.234,268.953,145.469,269.616,145.469,315.401z M160.781,356.49v-41.089c0-20.503,14.67-27.52,25.216-29.915l32.753,71.004
		H160.781z"/>
	<path d="M344.531,371.802c0,0,0-10.616,0-56.401c0-45.784-49.766-46.448-49.766-46.448l-47.443,102.849H344.531z M304.013,285.465
		c10.35,2.358,25.206,9.333,25.206,29.935v41.089h-57.97L304.013,285.465z"/>
	<polygon points="245,268.953 210.827,268.953 245,344.597 279.173,268.953 	"/>
</g>
<g>
</g>
<g>
</g>
<g>
</g>
<g>
</g>
<g>
</g>
<g>
</g>
<g>
</g>
<g>
</g>
<g>
</g>
<g>
</g>
<g>
</g>
<g>
</g>
<g>
</g>
<g>
</g>
<g>
</g>
</svg>
