<?xml version="1.0" encoding="iso-8859-1"?>
<!-- Generator: Adobe Illustrator 19.0.0, SVG Export Plug-In . SVG Version: 6.00 Build 0)  -->
<svg version="1.1" id="Capa_1" xmlns="http://www.w3.org/2000/svg" xmlns:xlink="http://www.w3.org/1999/xlink" x="0px" y="0px"
	 viewBox="0 0 490 490" style="enable-background:new 0 0 490 490;" xml:space="preserve">
<g>
	<path d="M344.531,424.154v-53.848H145.469v53.85h-17.865c-13.334,0-24.244,10.91-24.244,24.244
		c0,13.335,10.91,24.246,24.244,24.246h234.792c13.334,0,24.245-10.911,24.245-24.246c0-13.335-10.91-24.244-24.245-24.244H160.781
		v-38.537h168.437v38.536H344.531z M371.328,448.4c0,4.842-4.091,8.933-8.932,8.933H127.604c-4.841,0-8.932-4.091-8.932-8.933
		c0-4.841,4.091-8.932,8.932-8.932h234.792C367.237,439.469,371.328,443.559,371.328,448.4z"/>
	<path d="M459.375,17.354H30.625C13.782,17.354,0,31.135,0,47.979v260.313c0,16.843,13.782,30.625,30.625,30.625h428.75
		c16.843,0,30.625-13.782,30.625-30.625V47.979C490,31.135,476.218,17.354,459.375,17.354z M474.688,308.292
		c0,8.443-6.869,15.313-15.313,15.313H30.625c-8.443,0-15.313-6.869-15.313-15.313V47.979c0-8.444,6.869-15.313,15.313-15.313
		h428.75c8.443,0,15.313,6.868,15.313,15.313V308.292z"/>
	<polygon points="118.401,189.171 92.478,260.233 229.461,260.233 203.539,189.171 	"/>
	<polygon points="286.461,189.171 260.539,260.233 397.522,260.233 371.599,189.171 	"/>
	<polygon points="287.569,89.961 202.431,89.961 176.508,161.022 313.492,161.022 	"/>
</g>
<g>
</g>
<g>
</g>
<g>
</g>
<g>
</g>
<g>
</g>
<g>
</g>
<g>
</g>
<g>
</g>
<g>
</g>
<g>
</g>
<g>
</g>
<g>
</g>
<g>
</g>
<g>
</g>
<g>
</g>
</svg>
