<?xml version="1.0" encoding="iso-8859-1"?>
<!-- Generator: Adobe Illustrator 19.0.0, SVG Export Plug-In . SVG Version: 6.00 Build 0)  -->
<svg version="1.1" id="Capa_1" xmlns="http://www.w3.org/2000/svg" xmlns:xlink="http://www.w3.org/1999/xlink" x="0px" y="0px"
	 viewBox="0 0 490 490" style="enable-background:new 0 0 490 490;" xml:space="preserve">
<g>
	<path d="M245,85.85c23.707,0,42.925-19.218,42.925-42.925C287.925,19.218,268.707,0,245,0c-23.707,0-42.925,19.218-42.925,42.924
		C202.075,66.631,221.293,85.85,245,85.85z M245,15.313c15.226,0,27.613,12.386,27.613,27.612c0,15.226-12.387,27.613-27.613,27.613
		c-15.226,0-27.613-12.387-27.613-27.613C217.387,27.699,229.774,15.313,245,15.313z"/>
	<path d="M201.495,95.711c0,0-43.505,0.58-43.505,40.605c0,40.025,0,49.306,0,49.306s84.688,0,84.98,0L201.495,95.711z
		 M173.303,136.315c0-15.691,10.377-21.684,19.011-23.952l26.73,57.945h-45.74V136.315z"/>
	<path d="M332.01,185.621c0,0,0-9.281,0-49.306c0-40.024-43.506-40.605-43.506-40.605l-41.475,89.91H332.01z M297.668,112.402
		c8.326,2.263,19.029,8.222,19.029,23.914v33.993h-45.741L297.668,112.402z"/>
	<polygon points="215.126,95.711 245,161.838 274.874,95.711 245,95.711 	"/>
	<path d="M360.065,347.303c0,23.707,19.218,42.925,42.925,42.925c23.706,0,42.924-19.218,42.924-42.925
		c0-23.707-19.218-42.925-42.924-42.925C379.283,304.378,360.065,323.596,360.065,347.303z M430.602,347.303
		c0,15.226-12.386,27.613-27.612,27.613c-15.226,0-27.613-12.387-27.613-27.613c0-15.226,12.387-27.613,27.613-27.613
		C418.216,319.69,430.602,332.078,430.602,347.303z"/>
	<path d="M315.98,440.694c0,40.024,0,49.306,0,49.306s84.688,0,84.979,0l-41.475-89.91
		C359.485,400.09,315.98,400.669,315.98,440.694z M331.293,474.688v-33.993c0-15.692,10.378-21.684,19.011-23.952l26.73,57.945
		H331.293z"/>
	<path d="M490,490c0,0,0-9.281,0-49.306c0-40.025-43.505-40.605-43.505-40.605L405.021,490H490z M455.659,416.781
		c8.326,2.262,19.029,8.222,19.029,23.914v33.993h-45.74L455.659,416.781z"/>
	<polygon points="432.863,400.09 402.99,400.09 373.117,400.09 402.99,466.217 	"/>
	<path d="M87.01,390.229c23.706,0,42.924-19.218,42.924-42.925c0-23.707-19.218-42.925-42.924-42.925
		c-23.707,0-42.925,19.218-42.925,42.925C44.085,371.01,63.303,390.229,87.01,390.229z M87.01,319.69
		c15.226,0,27.612,12.387,27.612,27.613c0,15.226-12.386,27.613-27.612,27.613c-15.226,0-27.613-12.387-27.613-27.613
		C59.398,332.078,71.785,319.69,87.01,319.69z"/>
	<path d="M43.505,400.09c0,0-43.505,0.579-43.505,40.605C0,480.719,0,490,0,490s84.688,0,84.979,0L43.505,400.09z M15.312,440.694
		c0-15.692,10.378-21.684,19.011-23.952l26.73,57.945h-45.74V440.694z"/>
	<path d="M174.02,440.694c0-40.025-43.505-40.605-43.505-40.605L89.04,490h84.979C174.02,490,174.02,480.719,174.02,440.694z
		 M158.707,474.688h-45.74l26.712-57.907c8.326,2.262,19.029,8.222,19.029,23.914V474.688z"/>
	<polygon points="87.009,400.09 57.137,400.09 87.009,466.217 116.883,400.09 	"/>
	<polygon points="82.08,258.899 407.92,258.899 407.92,292.971 423.232,292.971 423.232,243.587 252.656,243.587 252.656,202.831 
		237.344,202.831 237.344,243.587 66.768,243.587 66.768,292.971 82.08,292.971 	"/>
</g>
<g>
</g>
<g>
</g>
<g>
</g>
<g>
</g>
<g>
</g>
<g>
</g>
<g>
</g>
<g>
</g>
<g>
</g>
<g>
</g>
<g>
</g>
<g>
</g>
<g>
</g>
<g>
</g>
<g>
</g>
</svg>
