<?xml version="1.0" encoding="iso-8859-1"?>
<!-- Generator: Adobe Illustrator 19.0.0, SVG Export Plug-In . SVG Version: 6.00 Build 0)  -->
<svg version="1.1" id="Capa_1" xmlns="http://www.w3.org/2000/svg" xmlns:xlink="http://www.w3.org/1999/xlink" x="0px" y="0px"
	 viewBox="0 0 490 490" style="enable-background:new 0 0 490 490;" xml:space="preserve">
<g>
	<path d="M402.99,85.85c23.707,0,42.925-19.218,42.925-42.925C445.915,19.218,426.697,0,402.99,0
		c-23.706,0-42.924,19.218-42.924,42.924C360.065,66.631,379.283,85.85,402.99,85.85z M402.99,15.313
		c15.226,0,27.613,12.386,27.613,27.612c0,15.226-12.387,27.613-27.613,27.613c-15.226,0-27.612-12.387-27.612-27.613
		C375.378,27.699,387.764,15.313,402.99,15.313z"/>
	<path d="M359.485,95.711c0,0-43.505,0.58-43.505,40.605c0,40.025,0,49.306,0,49.306s84.688,0,84.979,0L359.485,95.711z
		 M331.293,136.315c0-15.691,10.378-21.684,19.011-23.952l26.73,57.945h-45.74V136.315z"/>
	<path d="M490,185.621c0,0,0-9.281,0-49.306c0-40.024-43.505-40.605-43.505-40.605l-41.475,89.91H490z M455.659,112.402
		c8.326,2.262,19.029,8.222,19.029,23.914v33.993h-45.74L455.659,112.402z"/>
	<polygon points="432.863,95.711 402.99,95.711 373.117,95.711 402.99,161.838 	"/>
	<path d="M87.01,238.039c23.706,0,42.924-19.218,42.924-42.925c0-23.706-19.218-42.924-42.924-42.924
		c-23.707,0-42.925,19.218-42.925,42.924C44.085,218.821,63.303,238.039,87.01,238.039z M87.01,167.502
		c15.226,0,27.612,12.386,27.612,27.612s-12.386,27.613-27.612,27.613s-27.613-12.387-27.613-27.613S71.785,167.502,87.01,167.502z"
		/>
	<path d="M43.505,247.9c0,0-43.505,0.58-43.505,40.605c0,40.024,0,49.306,0,49.306s84.688,0,84.979,0L43.505,247.9z M15.313,288.505
		c0-15.691,10.378-21.684,19.011-23.952l26.73,57.945h-45.74V288.505z"/>
	<path d="M174.02,337.81c0,0,0-9.281,0-49.306c0-40.024-43.505-40.605-43.505-40.605L89.04,337.81H174.02z M139.679,264.591
		c8.326,2.262,19.029,8.222,19.029,23.914v33.993h-45.74L139.679,264.591z"/>
	<polygon points="87.01,247.9 57.137,247.9 87.01,314.028 116.883,247.9 	"/>
	<path d="M360.065,347.303c0,23.707,19.218,42.925,42.924,42.925c23.707,0,42.925-19.218,42.925-42.925
		c0-23.707-19.218-42.925-42.925-42.925C379.283,304.378,360.065,323.596,360.065,347.303z M402.99,319.69
		c15.226,0,27.613,12.387,27.613,27.613c0,15.226-12.387,27.613-27.613,27.613c-15.226,0-27.612-12.387-27.612-27.613
		C375.378,332.078,387.764,319.69,402.99,319.69z"/>
	<path d="M359.485,400.09c0,0-43.505,0.58-43.505,40.605s0,49.306,0,49.306s84.688,0,84.979,0L359.485,400.09z M331.293,440.694
		c0-15.691,10.378-21.684,19.011-23.952l26.73,57.945h-45.74V440.694z"/>
	<path d="M490,490c0,0,0-9.281,0-49.306s-43.505-40.605-43.505-40.605L405.021,490H490z M455.659,416.781
		c8.326,2.262,19.029,8.222,19.029,23.914v33.993h-45.74L455.659,416.781z"/>
	<polygon points="432.863,400.09 402.99,400.09 373.117,400.09 402.99,466.217 	"/>
	<polygon points="237.269,423.232 286.646,423.232 286.646,407.92 252.581,407.92 252.581,82.08 286.646,82.08 286.646,66.768 
		237.269,66.768 237.269,237.344 196.505,237.344 196.505,252.656 237.269,252.656 	"/>
</g>
<g>
</g>
<g>
</g>
<g>
</g>
<g>
</g>
<g>
</g>
<g>
</g>
<g>
</g>
<g>
</g>
<g>
</g>
<g>
</g>
<g>
</g>
<g>
</g>
<g>
</g>
<g>
</g>
<g>
</g>
</svg>
