<?xml version="1.0" encoding="iso-8859-1"?>
<!-- Generator: Adobe Illustrator 19.0.0, SVG Export Plug-In . SVG Version: 6.00 Build 0)  -->
<svg version="1.1" id="Capa_1" xmlns="http://www.w3.org/2000/svg" xmlns:xlink="http://www.w3.org/1999/xlink" x="0px" y="0px"
	 viewBox="0 0 490 490" style="enable-background:new 0 0 490 490;" xml:space="preserve">
<g>
	<path d="M260.794,251.911c-19.406-8.032-27.661-13.83-27.661-25.435c0-8.925,6.468-19.183,23.649-19.183
		c14.277,0,23.418,4.906,28.107,7.585l5.576-14.724c-6.469-3.796-15.617-7.362-29.002-7.809v-21.64h-13.83v22.532
		c-20.523,3.343-33.683,17.397-33.683,35.917c0,19.406,14.053,29.671,36.809,38.589c16.503,6.692,25.205,14.277,25.205,26.552
		c0,12.713-10.711,21.862-26.545,21.862c-12.498,0-24.096-4.243-32.128-9.595l-5.352,14.947c7.808,5.575,21.192,9.595,34.13,9.81
		v22.532h14.054v-23.195c22.979-3.796,35.247-20.306,35.247-37.926C295.37,272.88,283.773,261.276,260.794,251.911z"/>
	<rect x="30.625" y="99.412" width="428.75" height="15.313"/>
	<path d="M0,390.588h490V133.969H0V390.588z M15.313,149.282h459.375v225.994H15.313V149.282z"/>
	<polygon points="37.817,209.761 78.185,169.393 37.817,169.393 	"/>
	<polygon points="37.817,355.169 78.185,355.169 37.817,314.801 	"/>
	<polygon points="452.183,209.761 452.183,169.393 411.815,169.393 	"/>
	<polygon points="452.183,355.169 452.183,314.801 411.815,355.169 	"/>
</g>
<g>
</g>
<g>
</g>
<g>
</g>
<g>
</g>
<g>
</g>
<g>
</g>
<g>
</g>
<g>
</g>
<g>
</g>
<g>
</g>
<g>
</g>
<g>
</g>
<g>
</g>
<g>
</g>
<g>
</g>
</svg>
