<?xml version="1.0" encoding="iso-8859-1"?>
<!-- Generator: Adobe Illustrator 19.0.0, SVG Export Plug-In . SVG Version: 6.00 Build 0)  -->
<svg version="1.1" id="Capa_1" xmlns="http://www.w3.org/2000/svg" xmlns:xlink="http://www.w3.org/1999/xlink" x="0px" y="0px"
	 viewBox="0 0 490 490" style="enable-background:new 0 0 490 490;" xml:space="preserve">
<g>
	<rect x="30.625" y="99.409" width="428.749" height="15.313"/>
	<path d="M270.018,325.773c-12.986,0-25.017-4.57-33.915-13.946c-6.496-7.219-11.301-17.56-13.227-31.507h68.071v-11.789h-69.755
		c0-1.684,0-2.886,0-4.334c0-3.368,0.241-6.973,0.482-10.096h69.273v-12.035h-67.111c2.408-12.744,7.219-23.569,14.434-30.542
		c8.179-8.657,18.762-13.227,31.748-13.227c10.824,0,20.929,3.122,26.942,6.726l4.811-15.867
		c-6.737-3.614-17.802-7.701-31.995-7.701c-19.723,0-35.358,7.219-47.625,19.963c-9.617,9.859-16.837,23.815-19.722,40.647h-15.877
		v12.035h14.193c-0.242,3.359-0.479,6.973-0.479,10.825c0,1.201,0,2.403,0,3.605h-13.714v11.789h14.916
		c2.162,17.315,8.175,31.261,17.319,41.366c12.026,13.956,29.34,21.411,48.827,21.411c15.872,0,28.38-5.052,35.835-10.105
		l-4.087-15.158C293.833,320.966,282.768,325.773,270.018,325.773z"/>
	<path d="M0,390.591h490V133.968H0V390.591z M15.313,149.281h459.375v225.997H15.313V149.281z"/>
	<polygon points="37.814,209.756 78.183,169.387 37.814,169.387 	"/>
	<polygon points="37.814,355.166 78.183,355.166 37.814,314.797 	"/>
	<polygon points="452.187,209.756 452.187,169.387 411.819,169.387 	"/>
	<polygon points="452.187,355.166 452.187,314.797 411.819,355.166 	"/>
</g>
<g>
</g>
<g>
</g>
<g>
</g>
<g>
</g>
<g>
</g>
<g>
</g>
<g>
</g>
<g>
</g>
<g>
</g>
<g>
</g>
<g>
</g>
<g>
</g>
<g>
</g>
<g>
</g>
<g>
</g>
</svg>
