<?xml version="1.0" encoding="iso-8859-1"?>
<!-- Generator: Adobe Illustrator 19.0.0, SVG Export Plug-In . SVG Version: 6.00 Build 0)  -->
<svg version="1.1" id="Capa_1" xmlns="http://www.w3.org/2000/svg" xmlns:xlink="http://www.w3.org/1999/xlink" x="0px" y="0px"
	 viewBox="0 0 490 490" style="enable-background:new 0 0 490 490;" xml:space="preserve">
<g>
	<path d="M145.469,370.314v53.842h-17.864c-13.335,0-24.245,10.91-24.245,24.245c0,13.334,10.91,24.245,24.245,24.245h234.791
		c13.334,0,24.245-10.911,24.245-24.245c0-13.335-10.91-24.245-24.245-24.245h-17.865v-53.842H145.469z M160.781,385.626h168.438
		v38.53H160.781V385.626z M371.328,448.401c0,4.841-4.091,8.932-8.932,8.932H127.605c-4.842,0-8.933-4.091-8.933-8.932
		c0-4.842,4.091-8.933,8.933-8.933h234.791C367.237,439.469,371.328,443.559,371.328,448.401z"/>
	<path d="M30.625,338.917h428.75c16.843,0,30.625-13.781,30.625-30.625V47.979c0-16.843-13.782-30.625-30.625-30.625H30.625
		C13.782,17.354,0,31.136,0,47.979v260.313C0,325.136,13.782,338.917,30.625,338.917z M15.312,47.979
		c0-8.443,6.869-15.313,15.313-15.313h428.75c8.443,0,15.313,6.869,15.313,15.313v260.313c0,8.443-6.869,15.313-15.313,15.313
		H30.625c-8.443,0-15.313-6.869-15.313-15.313V47.979z"/>
	<path d="M325.293,242.198c-14.813,0-28.56-5.029-38.08-11.373l-6.344,17.717c9.255,6.609,25.119,11.373,40.454,11.629v26.708
		h16.658v-27.494c27.237-4.499,41.779-24.069,41.779-44.954c0-23.531-13.747-37.287-40.984-48.386
		c-23.002-9.521-32.788-16.394-32.788-30.149c0-10.579,7.667-22.738,28.031-22.738c16.923,0,27.759,5.815,33.317,8.991l6.609-17.452
		c-7.668-4.5-18.511-8.726-34.376-9.255V69.792h-16.393v26.707c-24.326,3.963-39.925,20.62-39.925,42.573
		c0,23.002,16.658,35.169,43.631,45.739c19.561,7.932,29.875,16.923,29.875,31.473C356.758,231.354,344.061,242.198,325.293,242.198
		z"/>
	<polygon points="160.512,112.887 160.512,262.259 175.825,262.259 175.825,112.887 215.272,152.335 226.099,141.508 
		168.168,83.578 110.238,141.508 121.064,152.335 	"/>
</g>
<g>
</g>
<g>
</g>
<g>
</g>
<g>
</g>
<g>
</g>
<g>
</g>
<g>
</g>
<g>
</g>
<g>
</g>
<g>
</g>
<g>
</g>
<g>
</g>
<g>
</g>
<g>
</g>
<g>
</g>
</svg>
