<?xml version="1.0" encoding="iso-8859-1"?>
<!-- Generator: Adobe Illustrator 19.0.0, SVG Export Plug-In . SVG Version: 6.00 Build 0)  -->
<svg version="1.1" id="Capa_1" xmlns="http://www.w3.org/2000/svg" xmlns:xlink="http://www.w3.org/1999/xlink" x="0px" y="0px"
	 viewBox="0 0 490 490" style="enable-background:new 0 0 490 490;" xml:space="preserve">
<g>
	<path d="M181.688,0.003c-13.893,0-24.385,4.803-31.474,14.411c-7.09,9.607-10.635,23.891-10.635,42.855
		c0,18.628,3.688,32.914,11.063,42.855c7.375,9.941,17.724,14.911,31.046,14.911c14.084,0,24.766-4.866,32.046-14.598
		s10.92-24.122,10.92-43.168c0-18.295-3.711-32.413-11.134-42.354C206.097,4.973,195.487,0.003,181.688,0.003z M181.688,99.873
		c-7.898,0-13.608-3.55-17.128-10.652c-3.521-7.1-5.281-17.752-5.281-31.953c0-14.202,1.761-24.811,5.281-31.829
		c3.521-7.017,9.23-10.525,17.128-10.525c15.607,0,23.41,14.118,23.41,42.354C205.098,85.671,197.295,99.873,181.688,99.873z"/>
	<path d="M275.957,87.843c-7.09,9.608-10.61,23.892-10.61,42.855c0,18.546,3.616,32.79,10.895,42.731
		c7.28,9.94,17.7,14.912,31.213,14.912c14.083,0,24.742-4.867,32.021-14.598c7.28-9.733,10.943-24.08,10.943-43.044
		c0-18.545-3.807-32.726-11.371-42.541c-7.566-9.816-18.081-14.724-31.593-14.724C293.561,73.434,283.046,78.236,275.957,87.843z
		 M290.183,98.933c3.521-6.892,9.278-10.338,17.271-10.338c7.993,0,13.893,3.446,17.699,10.338
		c3.807,6.892,5.709,17.481,5.709,31.765c0,14.453-1.903,25.166-5.709,32.142c-3.807,6.976-9.707,10.463-17.699,10.463
		c-7.994,0-13.751-3.529-17.271-10.588c-3.522-7.059-5.281-17.731-5.281-32.017C284.902,116.414,286.662,105.825,290.183,98.933z"/>
	<polygon points="176.836,185.834 197.818,185.834 313.592,2.634 292.609,2.634 	"/>
	<path d="M0,489.997h490V233.393H0V489.997z M15.313,248.706h459.375v225.979H15.313V248.706z"/>
	<polygon points="37.817,309.174 78.185,268.806 37.817,268.806 	"/>
	<polygon points="37.817,454.582 78.185,454.582 37.817,414.214 	"/>
	<polygon points="452.183,309.174 452.183,268.806 411.815,268.806 	"/>
	<polygon points="452.183,454.582 452.183,414.214 411.815,454.582 	"/>
	<path d="M153.409,329.478l13.368,16.688l15.073-12.112c1.794-1.436,4.994-4.456,9.6-9.062l-0.449,13.638l-0.269,12.471v75.905
		h27.724V295.832h-22.789L153.409,329.478z"/>
	<path d="M290.653,293.768c-15.552,0-27.066,5.488-34.543,16.464c-7.477,10.976-11.215,28.038-11.215,51.186
		c0,22.191,3.843,38.969,11.529,50.334c7.686,11.365,19.096,17.047,34.229,17.047c15.612,0,27.171-5.503,34.677-16.509
		c7.507-11.006,11.26-27.963,11.26-50.872c0-22.131-3.873-38.939-11.619-50.424C317.226,299.511,305.786,293.768,290.653,293.768z
		 M304.65,395.872c-2.871,7.058-7.537,10.587-13.997,10.587c-6.58,0-11.26-3.484-14.042-10.453
		c-2.781-6.968-4.172-18.498-4.172-34.588c0-16.09,1.406-27.649,4.217-34.678s7.477-10.542,13.997-10.542
		c6.4,0,11.051,3.514,13.952,10.542s4.352,18.587,4.352,34.678C308.957,377.329,307.521,388.814,304.65,395.872z"/>
</g>
<g>
</g>
<g>
</g>
<g>
</g>
<g>
</g>
<g>
</g>
<g>
</g>
<g>
</g>
<g>
</g>
<g>
</g>
<g>
</g>
<g>
</g>
<g>
</g>
<g>
</g>
<g>
</g>
<g>
</g>
</svg>
