<?xml version="1.0" encoding="iso-8859-1"?>
<!-- Generator: Adobe Illustrator 19.0.0, SVG Export Plug-In . SVG Version: 6.00 Build 0)  -->
<svg version="1.1" id="Capa_1" xmlns="http://www.w3.org/2000/svg" xmlns:xlink="http://www.w3.org/1999/xlink" x="0px" y="0px"
	 viewBox="0 0 490 490" style="enable-background:new 0 0 490 490;" xml:space="preserve">
<g>
	<path d="M101.46,214.113v176.475h170.714c4.142,55.411,51.25,99.292,108.709,99.292C441.057,489.88,490,441.79,490,382.693
		s-48.943-107.188-109.116-107.188c-57.624,0-104.828,44.134-108.734,99.771H116.773V214.113
		c56.599-3.888,101.46-50.248,101.46-106.806C218.233,48.21,169.29,0.12,109.117,0.12C48.943,0.12,0,48.21,0,107.307
		C0,163.865,44.861,210.225,101.46,214.113z M380.884,290.818c51.724,0,93.804,41.212,93.804,91.875
		c0,50.663-42.079,91.875-93.804,91.875c-51.725,0-93.804-41.212-93.804-91.875C287.079,332.03,329.159,290.818,380.884,290.818z
		 M109.117,15.432c51.725,0,93.804,41.212,93.804,91.875c0,50.663-42.079,91.875-93.804,91.875
		c-51.725,0-93.804-41.212-93.804-91.875C15.313,56.644,57.392,15.432,109.117,15.432z"/>
	<path d="M79.143,154.33c9.518,11.046,23.222,16.947,38.646,16.947c12.563,0,22.463-3.999,28.364-7.998l-3.236-11.997
		c-4.377,2.479-13.135,6.283-23.227,6.283c-10.278,0-19.8-3.617-26.844-11.039c-5.141-5.714-8.945-13.899-10.469-24.938h53.879
		v-9.331H81.045c0-1.333,0-2.284,0-3.43c0-2.665,0.191-5.519,0.381-7.99h54.83v-9.526H83.137
		c1.907-10.087,5.714-18.655,11.425-24.174c6.474-6.852,14.851-10.468,25.129-10.468c8.568,0,16.566,2.471,21.325,5.323
		l3.809-12.558c-5.333-2.861-14.091-6.096-25.324-6.096c-15.611,0-27.986,5.714-37.695,15.802
		c-7.612,7.803-13.326,18.849-15.611,32.172H53.627v9.526h11.234c-0.192,2.658-0.378,5.519-0.378,8.566c0,0.951,0,1.903,0,2.853
		H53.627v9.331h11.807C67.146,135.293,71.904,146.331,79.143,154.33z"/>
	<path d="M350.908,429.715c9.518,11.046,23.222,16.947,38.646,16.947c12.563,0,22.463-3.999,28.364-7.998l-3.236-11.997
		c-4.377,2.479-13.135,6.283-23.227,6.283c-10.278,0-19.8-3.617-26.844-11.039c-5.141-5.714-8.945-13.899-10.469-24.938h53.879
		v-9.331H352.81c0-1.333,0-2.284,0-3.43c0-2.665,0.191-5.519,0.381-7.99h54.83v-9.526h-53.119
		c1.907-10.087,5.714-18.655,11.425-24.174c6.474-6.852,14.851-10.469,25.129-10.469c8.568,0,16.566,2.471,21.325,5.323
		l3.809-12.558c-5.332-2.861-14.091-6.096-25.324-6.096c-15.611,0-27.986,5.714-37.695,15.802
		c-7.612,7.803-13.327,18.849-15.611,32.172h-12.567v9.526h11.234c-0.192,2.658-0.379,5.519-0.379,8.567c0,0.951,0,1.903,0,2.853
		h-10.855v9.331h11.807C338.911,410.679,343.669,421.717,350.908,429.715z"/>
</g>
<g>
</g>
<g>
</g>
<g>
</g>
<g>
</g>
<g>
</g>
<g>
</g>
<g>
</g>
<g>
</g>
<g>
</g>
<g>
</g>
<g>
</g>
<g>
</g>
<g>
</g>
<g>
</g>
<g>
</g>
</svg>
