<?xml version="1.0" encoding="iso-8859-1"?>
<!-- Generator: Adobe Illustrator 19.0.0, SVG Export Plug-In . SVG Version: 6.00 Build 0)  -->
<svg version="1.1" id="Capa_1" xmlns="http://www.w3.org/2000/svg" xmlns:xlink="http://www.w3.org/1999/xlink" x="0px" y="0px"
	 viewBox="0 0 490 490" style="enable-background:new 0 0 490 490;" xml:space="preserve">
<g>
	<path d="M101.46,213.994v176.475h170.702C276.187,445.992,323.342,490,380.884,490C441.057,490,490,441.909,490,382.813
		s-48.943-107.188-109.116-107.188c-57.542,0-104.697,44.008-108.721,99.531H116.773V213.994
		c56.599-3.888,101.46-50.248,101.46-106.806C218.233,48.091,169.29,0,109.116,0C48.943,0,0,48.091,0,107.188
		C0,163.746,44.861,210.106,101.46,213.994z M380.884,290.938c51.724,0,93.804,41.212,93.804,91.875s-42.079,91.875-93.804,91.875
		c-51.725,0-93.804-41.212-93.804-91.875S329.159,290.938,380.884,290.938z M109.116,15.313c51.725,0,93.804,41.212,93.804,91.875
		s-42.079,91.875-93.804,91.875c-51.724,0-93.804-41.212-93.804-91.875S57.392,15.313,109.116,15.313z"/>
	<path d="M105.755,150.393c-9.922,0-19.128-3.402-25.504-7.694l-4.25,11.986c6.199,4.471,16.825,7.695,27.095,7.867v18.07h11.157
		v-18.601c18.242-3.044,27.981-16.284,27.981-30.414c0-15.92-9.207-25.226-27.449-32.736c-15.406-6.44-21.959-11.091-21.959-20.397
		c0-7.157,5.135-15.383,18.774-15.383c11.334,0,18.591,3.934,22.314,6.083l4.426-11.808c-5.136-3.044-12.398-5.904-23.023-6.262
		V33.752h-10.98v18.069c-16.293,2.68-26.741,13.951-26.741,28.802c0,15.562,11.157,23.794,29.222,30.946
		c13.101,5.367,20.01,11.449,20.01,21.293C126.828,143.057,118.324,150.393,105.755,150.393z"/>
	<path d="M377.52,426.018c-9.922,0-19.129-3.402-25.504-7.694l-4.25,11.986c6.199,4.471,16.825,7.695,27.095,7.868v18.069h11.157
		v-18.601c18.243-3.044,27.981-16.284,27.981-30.414c0-15.92-9.207-25.226-27.449-32.736c-15.406-6.44-21.959-11.091-21.959-20.397
		c0-7.157,5.135-15.384,18.774-15.384c11.334,0,18.591,3.934,22.314,6.083l4.426-11.808c-5.136-3.044-12.398-5.904-23.023-6.262
		v-17.353h-10.98v18.069c-16.293,2.68-26.741,13.951-26.741,28.802c0,15.562,11.157,23.794,29.222,30.946
		c13.101,5.366,20.01,11.449,20.01,21.293C398.593,418.682,390.089,426.018,377.52,426.018z"/>
</g>
<g>
</g>
<g>
</g>
<g>
</g>
<g>
</g>
<g>
</g>
<g>
</g>
<g>
</g>
<g>
</g>
<g>
</g>
<g>
</g>
<g>
</g>
<g>
</g>
<g>
</g>
<g>
</g>
<g>
</g>
</svg>
