<?xml version="1.0" encoding="iso-8859-1"?>
<!-- Generator: Adobe Illustrator 19.0.0, SVG Export Plug-In . SVG Version: 6.00 Build 0)  -->
<svg version="1.1" id="Capa_1" xmlns="http://www.w3.org/2000/svg" xmlns:xlink="http://www.w3.org/1999/xlink" x="0px" y="0px"
	 viewBox="0 0 490 490" style="enable-background:new 0 0 490 490;" xml:space="preserve">
<g>
	<path d="M145.469,370.314v53.843h-17.865c-13.334,0-24.244,10.91-24.244,24.245c0,13.334,10.91,24.245,24.244,24.245h234.792
		c13.335,0,24.245-10.911,24.245-24.245c0-13.335-10.91-24.245-24.245-24.245h-17.865v-53.843H145.469z M160.781,385.626h168.437
		v38.531H160.781V385.626z M371.328,448.401c0,4.841-4.091,8.932-8.932,8.932H127.604c-4.841,0-8.932-4.091-8.932-8.932
		c0-4.842,4.091-8.932,8.932-8.932h234.792C367.237,439.469,371.328,443.559,371.328,448.401z"/>
	<path d="M30.625,338.917h428.75c16.844,0,30.625-13.781,30.625-30.625V47.979c0-16.843-13.781-30.625-30.625-30.625H30.625
		C13.782,17.354,0,31.136,0,47.979v260.313C0,325.136,13.782,338.917,30.625,338.917z M15.312,47.979
		c0-8.443,6.869-15.313,15.313-15.313h428.75c8.443,0,15.312,6.869,15.312,15.313v260.313c0,8.443-6.869,15.313-15.312,15.313
		H30.625c-8.443,0-15.313-6.869-15.313-15.313V47.979z"/>
	<path d="M101.266,286.185c19.26,0,34.932-15.656,34.932-34.917c0-8.018-2.824-15.322-7.384-21.225l41.548-41.223
		c5.466,3.546,11.95,5.654,18.937,5.654c9.753,0,18.559-4.036,24.9-10.501l33.776,31.574c-3.469,5.426-5.545,11.829-5.545,18.734
		c0,19.26,15.656,34.917,34.917,34.917c19.26,0,34.917-15.656,34.917-34.917c0-7.269-2.239-14.019-6.052-19.616l65.196-81.661
		c5.128,2.959,10.994,4.781,17.328,4.781c19.26,0,34.917-15.656,34.917-34.917c0-19.26-15.656-34.917-34.917-34.917
		c-19.26,0-34.932,15.656-34.932,34.917c0,7.375,2.327,14.198,6.244,19.839l-65.12,81.566c-5.183-3.052-11.142-4.924-17.582-4.924
		c-6.803,0-13.105,2.034-18.477,5.411l-36.595-34.21c1.163-3.477,1.942-7.129,1.942-10.993c0-19.26-15.656-34.917-34.917-34.917
		c-19.26,0-34.932,15.656-34.932,34.917c0,6.728,2.002,12.958,5.311,18.293l-42.716,42.383c-4.741-2.409-10.024-3.897-15.696-3.897
		c-19.26,0-34.917,15.671-34.917,34.932S82.006,286.185,101.266,286.185z M388.734,83.264c10.811,0,19.604,8.793,19.604,19.604
		c0,10.812-8.793,19.604-19.604,19.604c-10.811,0-19.619-8.793-19.619-19.604C369.115,92.057,377.923,83.264,388.734,83.264z
		 M296.949,234.281c0,10.812-8.793,19.604-19.604,19.604c-10.811,0-19.604-8.793-19.604-19.604c0-10.811,8.793-19.619,19.604-19.619
		C288.156,214.661,296.949,223.469,296.949,234.281z M189.298,139.953c10.811,0,19.604,8.793,19.604,19.604
		c0,10.811-8.793,19.604-19.604,19.604s-19.619-8.793-19.619-19.604C169.679,148.746,178.486,139.953,189.298,139.953z
		 M101.266,231.649c10.811,0,19.619,8.808,19.619,19.619c0,10.812-8.808,19.604-19.619,19.604c-10.812,0-19.604-8.793-19.604-19.604
		C81.662,240.456,90.454,231.649,101.266,231.649z"/>
</g>
<g>
</g>
<g>
</g>
<g>
</g>
<g>
</g>
<g>
</g>
<g>
</g>
<g>
</g>
<g>
</g>
<g>
</g>
<g>
</g>
<g>
</g>
<g>
</g>
<g>
</g>
<g>
</g>
<g>
</g>
</svg>
