<?xml version="1.0" encoding="iso-8859-1"?>
<!-- Generator: Adobe Illustrator 19.0.0, SVG Export Plug-In . SVG Version: 6.00 Build 0)  -->
<svg version="1.1" id="Capa_1" xmlns="http://www.w3.org/2000/svg" xmlns:xlink="http://www.w3.org/1999/xlink" x="0px" y="0px"
	 viewBox="0 0 490 490" style="enable-background:new 0 0 490 490;" xml:space="preserve">
<g>
	<path d="M145.469,370.314v53.843h-17.865c-13.334,0-24.244,10.91-24.244,24.245c0,13.334,10.91,24.245,24.244,24.245h234.792
		c13.335,0,24.245-10.911,24.245-24.245c0-13.335-10.91-24.245-24.245-24.245h-17.865v-53.843H145.469z M160.781,385.626h168.437
		v38.531H160.781V385.626z M371.328,448.401c0,4.841-4.091,8.932-8.932,8.932H127.604c-4.841,0-8.932-4.091-8.932-8.932
		c0-4.842,4.091-8.932,8.932-8.932h234.792C367.237,439.469,371.328,443.559,371.328,448.401z"/>
	<path d="M459.375,17.354H30.625C13.782,17.354,0,31.136,0,47.979v260.313c0,16.844,13.782,30.625,30.625,30.625h428.75
		c16.844,0,30.625-13.781,30.625-30.625V47.979C490,31.136,476.219,17.354,459.375,17.354z M474.688,308.292
		c0,8.443-6.869,15.313-15.313,15.313H30.625c-8.443,0-15.313-6.869-15.313-15.313V47.979c0-8.443,6.869-15.313,15.313-15.313
		h428.75c8.443,0,15.313,6.869,15.313,15.313V308.292z"/>
	<rect x="70.162" y="99.728" width="137.813" height="15.313"/>
	<rect x="70.162" y="145.665" width="137.813" height="15.313"/>
	<rect x="70.162" y="191.603" width="137.813" height="15.313"/>
	<rect x="70.162" y="237.54" width="137.813" height="15.313"/>
	<path d="M337.783,169.167c22.356,0,40.478-18.123,40.478-40.479c0-22.356-18.123-40.479-40.478-40.479
		c-22.356,0-40.478,18.123-40.478,40.479C297.305,151.044,315.427,169.167,337.783,169.167z M337.783,103.522
		c13.877,0,25.166,11.29,25.166,25.166c0,13.876-11.289,25.166-25.166,25.166c-13.876,0-25.165-11.29-25.165-25.166
		C312.617,114.812,323.906,103.522,337.783,103.522z"/>
	<path d="M255.732,216.756c0,37.743,0,46.495,0,46.495s79.861,0,80.136,0l-39.111-84.786
		C296.757,178.465,255.732,179.013,255.732,216.756z M271.044,247.939v-31.183c0-13.769,8.864-19.317,16.578-21.537l24.319,52.72
		H271.044z"/>
	<path d="M378.808,178.465l-39.11,84.786h80.136c0,0,0-8.753,0-46.495S378.808,178.465,378.808,178.465z M404.521,247.939h-40.896
		l24.341-52.769c7.546,2.167,16.556,7.669,16.556,21.586V247.939z"/>
	<polygon points="337.783,178.465 309.612,178.465 337.783,240.824 365.953,178.465 	"/>
</g>
<g>
</g>
<g>
</g>
<g>
</g>
<g>
</g>
<g>
</g>
<g>
</g>
<g>
</g>
<g>
</g>
<g>
</g>
<g>
</g>
<g>
</g>
<g>
</g>
<g>
</g>
<g>
</g>
<g>
</g>
</svg>
