<?xml version="1.0" encoding="iso-8859-1"?>
<!-- Generator: Adobe Illustrator 19.0.0, SVG Export Plug-In . SVG Version: 6.00 Build 0)  -->
<svg version="1.1" id="Capa_1" xmlns="http://www.w3.org/2000/svg" xmlns:xlink="http://www.w3.org/1999/xlink" x="0px" y="0px"
	 viewBox="0 0 490 490" style="enable-background:new 0 0 490 490;" xml:space="preserve">
<g>
	<path d="M245,0C109.69,0,0,109.69,0,245s109.69,245,245,245s245-109.69,245-245S380.31,0,245,0z M245,474.688
		C118.349,474.688,15.313,371.65,15.313,245C15.313,118.349,118.349,15.313,245,15.313c126.65,0,229.688,103.037,229.688,229.688
		C474.688,371.65,371.65,474.688,245,474.688z"/>
	<path d="M208.497,252.287c8.498-11.196,12.748-27.749,12.748-49.66c0-21.046-4.333-37.287-12.999-48.723
		c-8.666-11.437-21.053-17.155-37.162-17.155c-16.22,0-28.469,5.526-36.746,16.578c-8.277,11.052-12.415,27.485-12.415,49.299
		c0,21.43,4.305,37.863,12.915,49.299c8.611,11.437,20.692,17.155,36.246,17.155C187.527,269.081,199.998,263.483,208.497,252.287z
		 M151.087,239.386c-4.11-8.168-6.165-20.422-6.165-36.759c0-16.337,2.055-28.542,6.165-36.614
		c4.11-8.073,10.777-12.109,19.998-12.109c18.22,0,27.33,16.241,27.33,48.723c0,32.674-9.11,49.011-27.33,49.011
		C161.863,251.639,155.197,247.554,151.087,239.386z"/>
	<polygon points="300.583,139.777 165.419,350.526 189.916,350.526 325.081,139.777 	"/>
	<path d="M317.915,221.223c-16.22,0-28.497,5.525-36.774,16.577c-8.277,11.052-12.387,27.485-12.387,49.299
		c0,21.335,4.222,37.72,12.721,49.156c8.499,11.436,20.664,17.154,36.44,17.154c16.442,0,28.886-5.598,37.385-16.794
		c8.499-11.196,12.776-27.701,12.776-49.516c0-21.334-4.444-37.647-13.276-48.938C345.968,226.869,333.691,221.223,317.915,221.223z
		 M338.58,324.074c-4.444,8.025-11.332,12.037-20.665,12.037c-9.332,0-16.054-4.06-20.164-12.181
		c-4.11-8.121-6.167-20.397-6.167-36.831c0-16.433,2.056-28.614,6.167-36.542c4.11-7.928,10.832-11.893,20.164-11.893
		c9.333,0,16.221,3.965,20.665,11.893c4.444,7.928,6.666,20.109,6.666,36.542C345.245,303.725,343.024,316.05,338.58,324.074z"/>
</g>
<g>
</g>
<g>
</g>
<g>
</g>
<g>
</g>
<g>
</g>
<g>
</g>
<g>
</g>
<g>
</g>
<g>
</g>
<g>
</g>
<g>
</g>
<g>
</g>
<g>
</g>
<g>
</g>
<g>
</g>
</svg>
