<?xml version="1.0" encoding="iso-8859-1"?>
<!-- Generator: Adobe Illustrator 19.0.0, SVG Export Plug-In . SVG Version: 6.00 Build 0)  -->
<svg version="1.1" id="Capa_1" xmlns="http://www.w3.org/2000/svg" xmlns:xlink="http://www.w3.org/1999/xlink" x="0px" y="0px"
	 viewBox="0 0 490 490" style="enable-background:new 0 0 490 490;" xml:space="preserve">
<g>
	<path d="M0,30.625h45.922V336.92H0v15.313h197.056l-54.339,115.965l13.877,6.49l33.584-71.673h109.659l33.584,71.673l13.877-6.49
		l-54.339-115.965H490V336.92h-45.908V30.625H490V15.313H0V30.625z M292.661,387.702h-95.307l16.62-35.47h62.067L292.661,387.702z
		 M428.78,336.92H61.235V30.625H428.78V336.92z"/>
	<path d="M274.232,180.821c-6.694,8.938-10.017,22.228-10.017,39.869c0,17.253,3.414,30.504,10.287,39.751
		c6.873,9.248,16.711,13.872,29.469,13.872c13.297,0,23.359-4.527,30.232-13.581c6.873-9.054,10.332-22.401,10.332-40.043
		c0-17.254-3.593-30.446-10.736-39.577c-7.143-9.131-17.07-13.698-29.829-13.698C290.854,167.415,280.926,171.884,274.232,180.821z
		 M320.682,191.138c3.595,6.411,5.391,16.262,5.391,29.552c0,13.444-1.796,23.412-5.391,29.901
		c-3.594,6.49-9.164,9.734-16.711,9.734s-12.983-3.283-16.307-9.851c-3.324-6.566-4.986-16.495-4.986-29.784
		c0-13.29,1.662-23.141,4.986-29.552c3.324-6.411,8.76-9.617,16.307-9.617S317.089,184.727,320.682,191.138z"/>
	<path d="M155.918,192.245c6.963,9.248,16.733,13.872,29.312,13.872c13.297,0,23.382-4.527,30.255-13.581
		c6.873-9.054,10.31-22.441,10.31-40.16c0-17.02-3.504-30.154-10.512-39.402c-7.008-9.249-17.026-13.872-30.053-13.872
		c-13.118,0-23.023,4.468-29.717,13.406c-6.694,8.938-10.04,22.227-10.04,39.868C145.473,169.708,148.955,182.998,155.918,192.245z
		 M169.058,122.767c3.324-6.528,8.715-9.792,16.172-9.792c14.734,0,22.101,13.134,22.101,39.402
		c0,26.423-7.367,39.635-22.101,39.635c-7.457,0-12.848-3.303-16.172-9.91c-3.324-6.606-4.986-16.514-4.986-29.726
		S165.734,129.296,169.058,122.767z"/>
	<polygon points="200.459,271.982 309.766,101.551 289.955,101.551 180.648,271.982 	"/>
</g>
<g>
</g>
<g>
</g>
<g>
</g>
<g>
</g>
<g>
</g>
<g>
</g>
<g>
</g>
<g>
</g>
<g>
</g>
<g>
</g>
<g>
</g>
<g>
</g>
<g>
</g>
<g>
</g>
<g>
</g>
</svg>
