<?xml version="1.0" encoding="iso-8859-1"?>
<!-- Generator: Adobe Illustrator 19.0.0, SVG Export Plug-In . SVG Version: 6.00 Build 0)  -->
<svg version="1.1" id="Capa_1" xmlns="http://www.w3.org/2000/svg" xmlns:xlink="http://www.w3.org/1999/xlink" x="0px" y="0px"
	 viewBox="0 0 490 490" style="enable-background:new 0 0 490 490;" xml:space="preserve">
<g>
	<path d="M245,67.041c-65.308,0-118.249,52.941-118.249,118.249c0,65.308,52.941,118.25,118.249,118.25
		s118.249-52.942,118.249-118.25C363.249,119.982,310.308,67.041,245,67.041z M245,288.228c-56.76,0-102.937-46.178-102.937-102.938
		S188.24,82.353,245,82.353S347.937,128.53,347.937,185.29S301.76,288.228,245,288.228z"/>
	<path d="M142.717,468.201l13.862,6.49l33.584-71.673h109.664l33.593,71.673l13.877-6.49l-54.353-115.965H490v-15.313h-45.908
		V30.621H490V15.309H0v15.313h45.915v306.302H0v15.313h197.056L142.717,468.201z M292.651,387.706h-95.312l16.62-35.47h62.067
		L292.651,387.706z M61.228,30.621H428.78v306.302H61.228V30.621z"/>
	<path d="M225.072,188.826c4.64-6.112,6.96-15.148,6.96-27.11c0-11.489-2.365-20.355-7.096-26.598
		c-4.73-6.243-11.493-9.365-20.286-9.365c-8.855,0-15.541,3.017-20.06,9.05c-4.518,6.033-6.778,15.004-6.778,26.913
		c0,11.699,2.351,20.671,7.051,26.913c4.7,6.243,11.297,9.365,19.787,9.365C213.626,197.993,220.433,194.937,225.072,188.826z
		 M193.732,181.783c-2.244-4.459-3.367-11.148-3.367-20.067c0-8.918,1.122-15.581,3.367-19.987
		c2.244-4.408,5.882-6.611,10.917-6.611c9.946,0,14.919,8.866,14.919,26.598c0,17.837-4.973,26.756-14.919,26.756
		C199.615,188.472,195.976,186.242,193.732,181.783z"/>
	<path d="M284.805,171.867c-8.854,0-15.556,3.017-20.074,9.05c-4.519,6.033-6.763,15.004-6.763,26.913
		c0,11.647,2.305,20.591,6.944,26.834c4.64,6.243,11.281,9.365,19.893,9.365c8.977,0,15.77-3.056,20.409-9.167
		c4.639-6.112,6.975-15.123,6.975-27.031c0-11.646-2.426-20.552-7.248-26.717C300.119,174.95,293.417,171.867,284.805,171.867z
		 M296.086,228.015c-2.426,4.38-6.187,6.571-11.282,6.571c-5.094,0-8.764-2.217-11.008-6.65c-2.244-4.433-3.366-11.135-3.366-20.106
		c0-8.971,1.121-15.62,3.366-19.948c2.244-4.328,5.913-6.493,11.008-6.493c5.095,0,8.855,2.164,11.282,6.493
		c2.425,4.328,3.638,10.977,3.638,19.948C299.725,216.906,298.512,223.634,296.086,228.015z"/>
	<polygon points="275.344,127.406 201.556,242.455 214.929,242.455 288.717,127.406 	"/>
</g>
<g>
</g>
<g>
</g>
<g>
</g>
<g>
</g>
<g>
</g>
<g>
</g>
<g>
</g>
<g>
</g>
<g>
</g>
<g>
</g>
<g>
</g>
<g>
</g>
<g>
</g>
<g>
</g>
<g>
</g>
</svg>
