<?xml version="1.0" encoding="iso-8859-1"?>
<!-- Generator: Adobe Illustrator 19.0.0, SVG Export Plug-In . SVG Version: 6.00 Build 0)  -->
<svg version="1.1" id="Capa_1" xmlns="http://www.w3.org/2000/svg" xmlns:xlink="http://www.w3.org/1999/xlink" x="0px" y="0px"
	 viewBox="0 0 490 490" style="enable-background:new 0 0 490 490;" xml:space="preserve">
<g>
	<circle cx="245.001" cy="183.374" r="32.628"/>
	<path d="M352.19,199.442v-32.137l-32.708-3.271c-1.87-6.882-4.736-13.346-8.394-19.271l21.089-25.774l-22.724-22.724
		l-26.809,21.935c-5.609-2.951-11.631-5.222-17.977-6.652l-3.53-35.297h-16.068h-0.136h-16.068l-3.53,35.297
		c-6.347,1.43-12.37,3.7-17.977,6.652l-26.809-21.935l-22.724,22.724l21.089,25.774c-3.658,5.924-6.523,12.389-8.393,19.271
		l-32.709,3.271v32.137l32.756,3.276c1.883,6.861,4.709,13.332,8.362,19.246l-21.105,25.794l22.724,22.724l26.805-21.931
		c5.61,2.951,11.635,5.217,17.982,6.647l3.53,35.297h16.068h0.136h16.068l3.53-35.297c6.347-1.43,12.371-3.696,17.981-6.647
		l26.805,21.931l22.724-22.724l-21.105-25.794c3.653-5.913,6.48-12.385,8.363-19.246L352.19,199.442z M245.001,231.713
		c-26.696,0-48.338-21.642-48.338-48.338c0-26.697,21.642-48.339,48.338-48.339c26.697,0,48.339,21.642,48.339,48.339
		C293.34,210.071,271.698,231.713,245.001,231.713z"/>
	<path d="M142.712,468.208l13.862,6.49l33.589-71.674h109.671l33.584,71.674l13.877-6.49l-54.34-115.967H490v-15.313h-45.908V30.614
		H490V15.302H0v15.313h45.908v306.314H0v15.313h197.059L142.712,468.208z M292.658,387.712h-95.319l16.623-35.471h62.075
		L292.658,387.712z M61.221,30.614h367.558v306.314H61.221V30.614z"/>
</g>
<g>
</g>
<g>
</g>
<g>
</g>
<g>
</g>
<g>
</g>
<g>
</g>
<g>
</g>
<g>
</g>
<g>
</g>
<g>
</g>
<g>
</g>
<g>
</g>
<g>
</g>
<g>
</g>
<g>
</g>
</svg>
