<?xml version="1.0" encoding="iso-8859-1"?>
<!-- Generator: Adobe Illustrator 19.0.0, SVG Export Plug-In . SVG Version: 6.00 Build 0)  -->
<svg version="1.1" id="Capa_1" xmlns="http://www.w3.org/2000/svg" xmlns:xlink="http://www.w3.org/1999/xlink" x="0px" y="0px"
	 viewBox="0 0 490 490" style="enable-background:new 0 0 490 490;" xml:space="preserve">
<g>
	<path d="M301.922,277.094c-18.81,0-36.237-6.619-49.126-20.201c-9.409-10.457-16.371-25.436-19.16-45.638h98.602v-17.077h-101.04
		c0-2.44,0-4.179,0-6.277c0-4.879,0.35-10.101,0.699-14.623h100.341v-17.434h-97.21c3.488-18.46,10.457-34.138,20.908-44.239
		c11.848-12.54,27.177-19.159,45.987-19.159c15.678,0,30.316,4.522,39.025,9.744l6.968-22.983
		c-9.758-5.236-25.786-11.156-46.343-11.156c-28.568,0-51.216,10.457-68.985,28.918c-13.931,14.28-24.388,34.495-28.568,58.876
		h-22.998v17.434h20.558c-0.349,4.865-0.692,10.101-0.692,15.679c0,1.741,0,3.48,0,5.221h-19.866v17.077h21.606
		c3.131,25.081,11.841,45.282,25.087,59.919c17.419,20.215,42.499,31.015,70.724,31.015c22.99,0,41.109-7.319,51.908-14.637
		l-5.921-21.956C336.417,270.132,320.389,277.094,301.922,277.094z"/>
	<path d="M284.715,0C181.336,0,97.227,84.108,97.227,187.488c0,45.555,16.364,87.34,43.48,119.863L17.798,430.26L77.538,490
		L208.78,358.758c23.242,10.347,48.897,16.217,75.935,16.217c103.379,0,187.487-84.109,187.487-187.488S388.094,0,284.715,0z
		 M77.538,468.353L39.446,430.26l111.57-111.57c12.712,12.952,27.263,24.075,43.26,32.926L77.538,468.353z M284.715,359.666
		c-94.932,0-172.179-77.246-172.179-172.179S189.782,15.309,284.715,15.309c94.932,0,172.179,77.246,172.179,172.179
		S379.647,359.666,284.715,359.666z"/>
</g>
<g>
</g>
<g>
</g>
<g>
</g>
<g>
</g>
<g>
</g>
<g>
</g>
<g>
</g>
<g>
</g>
<g>
</g>
<g>
</g>
<g>
</g>
<g>
</g>
<g>
</g>
<g>
</g>
<g>
</g>
</svg>
