<?xml version="1.0" encoding="iso-8859-1"?>
<!-- Generator: Adobe Illustrator 19.0.0, SVG Export Plug-In . SVG Version: 6.00 Build 0)  -->
<svg version="1.1" id="Capa_1" xmlns="http://www.w3.org/2000/svg" xmlns:xlink="http://www.w3.org/1999/xlink" x="0px" y="0px"
	 viewBox="0 0 490 490" style="enable-background:new 0 0 490 490;" xml:space="preserve">
<g>
	<path d="M284.715,0C181.336,0,97.227,84.108,97.227,187.488c0,45.555,16.364,87.34,43.48,119.863L17.798,430.26L77.523,490
		L208.78,358.757c23.242,10.347,48.897,16.218,75.935,16.218c103.379,0,187.487-84.109,187.487-187.488S388.094,0,284.715,0z
		 M77.523,468.353L39.445,430.26l111.57-111.57c12.712,12.952,27.264,24.075,43.26,32.926L77.523,468.353z M284.715,359.666
		c-94.932,0-172.179-77.246-172.179-172.179S189.782,15.309,284.715,15.309c94.932,0,172.179,77.246,172.179,172.179
		S379.647,359.666,284.715,359.666z"/>
	<path d="M335.207,90.476l-34.988,66.111c-5.515,11.016-9.723,21.07-12.956,30.133h-0.976c-3.892-9.71-7.783-18.471-12.968-29.487
		l-33.695-66.757h-30.463l54.435,98.197h-42.125v16.201h50.239V228.2h-50.239v16.214h50.239v56.704h26.888v-56.704h50.569V228.2
		h-50.569v-23.326h50.569v-16.201h-42.138l57.997-98.197H335.207z"/>
</g>
<g>
</g>
<g>
</g>
<g>
</g>
<g>
</g>
<g>
</g>
<g>
</g>
<g>
</g>
<g>
</g>
<g>
</g>
<g>
</g>
<g>
</g>
<g>
</g>
<g>
</g>
<g>
</g>
<g>
</g>
</svg>
