<?xml version="1.0" encoding="iso-8859-1"?>
<!-- Generator: Adobe Illustrator 19.0.0, SVG Export Plug-In . SVG Version: 6.00 Build 0)  -->
<svg version="1.1" id="Capa_1" xmlns="http://www.w3.org/2000/svg" xmlns:xlink="http://www.w3.org/1999/xlink" x="0px" y="0px"
	 viewBox="0 0 490 490" style="enable-background:new 0 0 490 490;" xml:space="preserve">
<g>
	<path d="M294.493,173.145c-26.567-11.107-37.868-19.126-37.868-35.174c0-12.342,8.856-26.528,32.375-26.528
		c19.545,0,32.059,6.783,38.479,10.489l7.633-20.361c-8.856-5.249-21.38-10.181-39.702-10.799V60.849h-18.934v31.159
		c-28.095,4.622-46.111,24.057-46.111,49.668c0,26.836,19.24,41.031,50.392,53.363c22.592,9.254,34.505,19.744,34.505,36.718
		c0,17.582-14.663,30.234-36.339,30.234c-17.11,0-32.987-5.868-43.982-13.269l-7.327,20.67c10.69,7.711,29.012,13.268,46.723,13.567
		v31.159h19.24v-32.076c31.458-5.249,48.252-28.081,48.252-52.446C341.827,202.143,325.95,186.095,294.493,173.145z"/>
	<path d="M284.715,0C181.336,0,97.227,84.108,97.227,187.488c0,45.555,16.364,87.34,43.48,119.863L17.798,430.26L77.538,490
		L208.78,358.758c23.242,10.347,48.897,16.217,75.935,16.217c103.379,0,187.488-84.109,187.488-187.488S388.094,0,284.715,0z
		 M77.538,468.353L39.445,430.26l111.57-111.57c12.712,12.952,27.263,24.075,43.26,32.926L77.538,468.353z M284.715,359.666
		c-94.932,0-172.179-77.246-172.179-172.179S189.782,15.309,284.715,15.309s172.179,77.246,172.179,172.179
		S379.647,359.666,284.715,359.666z"/>
</g>
<g>
</g>
<g>
</g>
<g>
</g>
<g>
</g>
<g>
</g>
<g>
</g>
<g>
</g>
<g>
</g>
<g>
</g>
<g>
</g>
<g>
</g>
<g>
</g>
<g>
</g>
<g>
</g>
<g>
</g>
</svg>
