<?xml version="1.0" encoding="iso-8859-1"?>
<!-- Generator: Adobe Illustrator 19.0.0, SVG Export Plug-In . SVG Version: 6.00 Build 0)  -->
<svg version="1.1" id="Capa_1" xmlns="http://www.w3.org/2000/svg" xmlns:xlink="http://www.w3.org/1999/xlink" x="0px" y="0px"
	 viewBox="0 0 490.007 490.007" style="enable-background:new 0 0 490.007 490.007;" xml:space="preserve">
<g>
	<ellipse cx="289.777" cy="147.79" rx="14.572" ry="14.58"/>
	<path d="M299.776,214.207l2.187-21.885c3.933-0.887,7.666-2.292,11.141-4.122l16.61,13.598l14.081-14.089l-13.077-15.993
		c2.264-3.667,4.015-7.679,5.181-11.932l20.297-2.031v-19.925l-20.268-2.028c-1.159-4.267-2.934-8.275-5.201-11.948l13.068-15.981
		l-14.081-14.088l-16.612,13.6c-3.476-1.83-7.208-3.238-11.14-4.123l-2.187-21.885h-9.957h-0.083h-9.956l-2.188,21.885
		c-3.932,0.886-7.664,2.293-11.14,4.123l-16.612-13.6l-14.081,14.088l13.068,15.981c-2.267,3.673-4.042,7.681-5.201,11.948
		l-20.267,2.028v19.925l20.296,2.031c1.167,4.253,2.918,8.266,5.182,11.932l-13.077,15.993l14.081,14.089l16.609-13.598
		c3.477,1.83,7.21,3.235,11.143,4.122l2.188,21.885h9.956h0.083H299.776z M259.824,147.79c0-16.552,13.411-29.97,29.953-29.97
		c16.542,0,29.953,13.418,29.953,29.97c0,16.553-13.411,29.971-29.953,29.971C273.234,177.761,259.824,164.343,259.824,147.79z"/>
	<path d="M437.567,147.79C437.567,66.168,371.399,0,289.777,0c-81.623,0-147.791,66.168-147.791,147.79
		c0,81.623,66.168,147.791,147.791,147.791C371.399,295.58,437.567,229.412,437.567,147.79z M157.299,147.79
		c0-73.049,59.429-132.477,132.478-132.477c73.048,0,132.477,59.428,132.477,132.477c0,73.048-59.429,132.478-132.477,132.478
		C216.729,280.267,157.299,220.838,157.299,147.79z"/>
	<path d="M403.648,147.79c0-62.889-50.981-113.871-113.871-113.871S175.905,84.9,175.905,147.79
		c0,62.889,50.982,113.871,113.872,113.871S403.648,210.679,403.648,147.79z M191.218,147.79c0-54.345,44.213-98.558,98.559-98.558
		c54.345,0,98.558,44.213,98.558,98.558c0,54.346-44.213,98.559-98.558,98.559C235.431,246.348,191.218,202.136,191.218,147.79z"/>
	<path d="M101.002,343.101v136.454l11.111-5.608c14.655-7.417,57.183-24.524,77.371-14.73
		c27.964,13.518,96.288,30.775,143.063,30.775c4.322,0,8.464-0.149,12.382-0.464c50.11-3.993,126.27-66.036,140.297-85.73
		c8.284-11.649,3.768-19.246,1.435-21.967c-10.258-12.023-38.745-6.834-61.58,4.501c-31.089,15.447-103.794,36.188-152.14,16.868
		c89.633,6.191,93.237-2.273,95.256-6.998c1.794-4.232,1.555-8.927-0.703-13.249c-4.89-9.391-21.19-23.911-105.768-41.602
		c-89.2-18.677-152.559-0.628-155.221,0.15L101.002,343.101z M116.314,354.84c16.973-3.783,71.599-13.264,142.271,1.495
		c74.156,15.507,90.8,28.113,94.493,32.33c-14.371,2.737-65.378,0.703-109.103-3.095l-21.279-1.854l15.268,14.954
		c54.97,53.804,166.945,14.774,193.936,1.391c22.446-11.156,40.42-10.797,42.798-9.062c0,0.015-0.03,1.226-1.944,3.918
		c-12.217,17.152-84.893,75.831-129.052,79.36c-43.007,3.484-119.182-15.118-147.549-28.846c-6.58-3.17-14.251-4.441-22.296-4.441
		c-20.711,0-43.949,8.389-57.542,14.176V354.84z"/>
	<path d="M82.653,341.635H0.004v148.372h82.65V341.635z M67.341,474.694H15.316V356.948h52.024V474.694z"/>
</g>
<g>
</g>
<g>
</g>
<g>
</g>
<g>
</g>
<g>
</g>
<g>
</g>
<g>
</g>
<g>
</g>
<g>
</g>
<g>
</g>
<g>
</g>
<g>
</g>
<g>
</g>
<g>
</g>
<g>
</g>
</svg>
