<?xml version="1.0" encoding="iso-8859-1"?>
<!-- Generator: Adobe Illustrator 19.0.0, SVG Export Plug-In . SVG Version: 6.00 Build 0)  -->
<svg version="1.1" id="Capa_1" xmlns="http://www.w3.org/2000/svg" xmlns:xlink="http://www.w3.org/1999/xlink" x="0px" y="0px"
	 viewBox="0 0 490 490" style="enable-background:new 0 0 490 490;" xml:space="preserve">
<g>
	<path d="M285.73,233.88c8.772,10.181,21.401,15.618,35.616,15.618c11.577,0,20.7-3.685,26.139-7.37l-2.981-11.056
		c-4.034,2.284-12.105,5.79-21.405,5.79c-9.472,0-18.247-3.333-24.738-10.172c-4.738-5.266-8.244-12.81-9.649-22.982h49.654v-8.6
		h-50.882c0-1.228,0-2.105,0-3.161c0-2.457,0.176-5.086,0.351-7.364h50.53v-8.779h-48.953c1.756-9.296,5.266-17.192,10.528-22.278
		c5.966-6.315,13.685-9.648,23.158-9.648c7.896,0,15.267,2.277,19.653,4.907l3.509-11.574c-4.914-2.637-12.985-5.618-23.338-5.618
		c-14.386,0-25.791,5.266-34.739,14.562c-7.015,7.192-12.281,17.372-14.386,29.649h-11.581v8.779h10.353
		c-0.177,2.45-0.349,5.086-0.349,7.895c0,0.877,0,1.753,0,2.629h-10.004v8.6h10.881C274.674,216.337,279.06,226.51,285.73,233.88z"
		/>
	<path d="M90.17,490h202.472c20.172,0,36.577-16.748,36.577-37.324V287.408h83.8c12.89,0,23.387-10.497,23.387-23.402V119.629
		c0-12.897-10.497-23.395-23.387-23.395h-83.8v-58.91C329.219,16.741,312.815,0,292.642,0H90.17
		C69.998,0,53.594,16.741,53.594,37.324v415.352C53.594,473.252,69.998,490,90.17,490z M313.906,452.676
		c0,12.142-9.54,22.012-21.264,22.012H90.17c-11.724,0-21.264-9.869-21.264-22.012v-46.895h245V452.676z M421.094,119.629v144.377
		c0,4.456-3.619,8.09-8.075,8.09h-132.25l-64.271,44.891l0.015-44.891h-19.828c-4.456,0-8.075-3.634-8.075-8.09V119.629
		c0-4.456,3.619-8.082,8.075-8.082h216.334C417.475,111.547,421.094,115.173,421.094,119.629z M196.685,96.234
		c-12.89,0-23.387,10.497-23.387,23.395v144.377c0,12.905,10.497,23.402,23.387,23.402h4.516l-0.015,58.947l84.398-58.947h28.322
		v103.06h-245V53.594h245v42.64H196.685z M90.17,15.313h202.472c11.724,0,21.264,9.877,21.264,22.012v0.957h-245v-0.957
		C68.906,25.189,78.447,15.313,90.17,15.313z"/>
	<path d="M191.406,465.596c14.071,0,25.526-11.454,25.526-25.526c0-14.071-11.454-25.526-25.526-25.526
		c-14.071,0-25.526,11.454-25.526,25.526C165.88,454.141,177.335,465.596,191.406,465.596z M191.406,429.857
		c5.638,0,10.213,4.576,10.213,10.213c0,5.638-4.576,10.213-10.213,10.213c-5.638,0-10.213-4.576-10.213-10.213
		C181.193,434.432,185.769,429.857,191.406,429.857z"/>
</g>
<g>
</g>
<g>
</g>
<g>
</g>
<g>
</g>
<g>
</g>
<g>
</g>
<g>
</g>
<g>
</g>
<g>
</g>
<g>
</g>
<g>
</g>
<g>
</g>
<g>
</g>
<g>
</g>
<g>
</g>
</svg>
