<?xml version="1.0" encoding="iso-8859-1"?>
<!-- Generator: Adobe Illustrator 19.0.0, SVG Export Plug-In . SVG Version: 6.00 Build 0)  -->
<svg version="1.1" id="Capa_1" xmlns="http://www.w3.org/2000/svg" xmlns:xlink="http://www.w3.org/1999/xlink" x="0px" y="0px"
	 viewBox="0 0 490 490" style="enable-background:new 0 0 490 490;" xml:space="preserve">
<g>
	<path d="M90.17,490h202.472c20.172,0,36.577-16.748,36.577-37.324V287.408h83.8c12.89,0,23.387-10.497,23.387-23.402V119.629
		c0-12.897-10.497-23.395-23.387-23.395h-83.8v-58.91C329.219,16.741,312.815,0,292.642,0H90.17
		C69.998,0,53.594,16.741,53.594,37.324v415.352C53.594,473.252,69.998,490,90.17,490z M313.906,452.676
		c0,12.142-9.54,22.012-21.264,22.012H90.17c-11.724,0-21.264-9.869-21.264-22.012v-46.895h245V452.676z M421.094,119.629v144.377
		c0,4.456-3.619,8.09-8.075,8.09h-132.25l-64.271,44.891l0.015-44.891h-19.828c-4.456,0-8.075-3.634-8.075-8.09V119.629
		c0-4.456,3.619-8.082,8.075-8.082h216.334C417.475,111.547,421.094,115.173,421.094,119.629z M196.685,96.234
		c-12.89,0-23.387,10.497-23.387,23.395v144.377c0,12.905,10.497,23.402,23.387,23.402h4.516l-0.015,58.947l84.398-58.947h28.322
		v103.06h-245V53.594h245v42.64H196.685z M90.17,15.313h202.472c11.724,0,21.264,9.877,21.264,22.012v0.957h-245v-0.957
		C68.906,25.189,78.447,15.313,90.17,15.313z"/>
	<path d="M191.406,465.596c14.071,0,25.526-11.454,25.526-25.526c0-14.071-11.454-25.526-25.526-25.526
		c-14.071,0-25.526,11.454-25.526,25.526C165.88,454.141,177.335,465.596,191.406,465.596z M191.406,429.857
		c5.638,0,10.213,4.576,10.213,10.213c0,5.638-4.576,10.213-10.213,10.213c-5.638,0-10.213-4.576-10.213-10.213
		C181.193,434.432,185.769,429.857,191.406,429.857z"/>
	<path d="M308.772,229.29c-8.988,0-17.328-3.05-23.103-6.9l-3.85,10.749c5.616,4.009,15.241,6.9,24.544,7.055v16.204h10.107v-16.68
		c16.525-2.73,25.346-14.603,25.346-27.274c0-14.277-8.34-22.622-24.865-29.356c-13.954-5.776-19.891-9.946-19.891-18.291
		c0-6.419,4.651-13.795,17.006-13.795c10.268,0,16.841,3.527,20.214,5.454l4.009-10.588c-4.652-2.73-11.231-5.295-20.856-5.615
		v-15.561h-9.946v16.203c-14.758,2.404-24.222,12.51-24.222,25.829c0,13.954,10.106,21.337,26.471,27.749
		c11.868,4.812,18.125,10.268,18.125,19.094C327.86,222.712,320.157,229.29,308.772,229.29z"/>
</g>
<g>
</g>
<g>
</g>
<g>
</g>
<g>
</g>
<g>
</g>
<g>
</g>
<g>
</g>
<g>
</g>
<g>
</g>
<g>
</g>
<g>
</g>
<g>
</g>
<g>
</g>
<g>
</g>
<g>
</g>
</svg>
