<?xml version="1.0" encoding="iso-8859-1"?>
<!-- Generator: Adobe Illustrator 19.0.0, SVG Export Plug-In . SVG Version: 6.00 Build 0)  -->
<svg version="1.1" id="Capa_1" xmlns="http://www.w3.org/2000/svg" xmlns:xlink="http://www.w3.org/1999/xlink" x="0px" y="0px"
	 viewBox="0 0 490 490" style="enable-background:new 0 0 490 490;" xml:space="preserve">
<g>
	<path d="M245,490c135.31,0,245-109.69,245-245S380.31,0,245,0S0,109.69,0,245S109.69,490,245,490z M245,15.313
		c126.651,0,229.688,103.038,229.688,229.688c0,126.651-103.037,229.688-229.688,229.688C118.35,474.688,15.312,371.651,15.312,245
		C15.312,118.35,118.35,15.313,245,15.313z"/>
	<rect x="330.152" y="114.844" width="33.4" height="237.104"/>
	<rect x="279.226" y="166.71" width="33.4" height="185.238"/>
	<rect x="228.3" y="218.577" width="33.4" height="133.371"/>
	<rect x="177.374" y="263.034" width="33.4" height="88.914"/>
	<rect x="126.448" y="303.017" width="33.4" height="48.931"/>
</g>
<g>
</g>
<g>
</g>
<g>
</g>
<g>
</g>
<g>
</g>
<g>
</g>
<g>
</g>
<g>
</g>
<g>
</g>
<g>
</g>
<g>
</g>
<g>
</g>
<g>
</g>
<g>
</g>
<g>
</g>
</svg>
