<?xml version="1.0" encoding="iso-8859-1"?>
<!-- Generator: Adobe Illustrator 19.0.0, SVG Export Plug-In . SVG Version: 6.00 Build 0)  -->
<svg version="1.1" id="Capa_1" xmlns="http://www.w3.org/2000/svg" xmlns:xlink="http://www.w3.org/1999/xlink" x="0px" y="0px"
	 viewBox="0 0 490 490" style="enable-background:new 0 0 490 490;" xml:space="preserve">
<g>
	<path d="M245,490c135.091,0,245-109.909,245-245S380.091,0,245,0S0,109.909,0,245S109.909,490,245,490z M76.186,400.219
		c23.373-8.246,46.877-14.198,70.046-18.266c23.107,41.04,49.86,72.795,66.051,90.128
		C158.731,464.392,111.188,438.257,76.186,400.219z M227.064,16.221c3.403-0.265,6.837-0.406,10.28-0.52v92.494
		c-29.863-0.834-57.372-3.845-81.122-7.612C183.606,54.46,217.075,24.545,227.064,16.221z M327.612,103.367
		c-25.805,3.632-51.01,5.086-74.956,5.044V15.7c0.618,0.02,1.226,0.068,1.842,0.093C264.029,23.657,299.483,54.797,327.612,103.367z
		 M245,474.688c-1.993,0-3.923-0.249-5.905-0.299h7.013c-0.132,0.128-0.159,0.153-0.266,0.256
		C245.558,474.645,245.284,474.688,245,474.688z M162.743,379.341c25.682-3.594,50.765-5.031,74.601-4.989V474.3
		c-0.521-0.018-1.034-0.057-1.552-0.078C228.618,467.255,193.01,431.291,162.743,379.341z M237.344,359.09
		c-26.32-0.05-54.141,1.688-82.612,6.005c-18.063-34.076-32.559-73.935-35.745-116.416h118.357V359.09z M252.656,374.569
		c23.816,0.665,46.149,2.709,66.263,5.425c-24.843,42.46-53.003,74.012-66.263,87.76V374.569z M252.656,359.307V248.679h110.43
		c-3.21,42.715-17.869,82.824-36.095,117.05C304.717,362.517,279.633,360.045,252.656,359.307z M378.433,248.679h96.068
		c-0.837,52.508-19.348,100.73-49.875,139.067c-4.97-1.69-35.681-11.741-81.366-19.477
		C361.229,333.298,375.404,292.543,378.433,248.679z M379.233,233.366c0.004-0.52,0.08-1.021,0.08-1.54
		c0-44.645-11.79-83.936-27.868-116.944c22.699-4.224,45.667-10.185,68.529-18.322c31.688,37.293,51.498,84.79,54.124,136.806
		H379.233z M364.001,231.826c0,0.519-0.079,1.021-0.083,1.54H252.656v-109.68c0.369,0.001,0.722,0.018,1.092,0.018
		c25.998,0,53.47-1.763,81.552-6.023C351.682,149.825,364.001,188.263,364.001,231.826z M237.344,123.436v109.931H118.157
		c-0.004-0.519-0.083-1.021-0.083-1.54c0-44.863,13.116-84.309,30.278-117.05C173.999,119.053,204.291,122.531,237.344,123.436z
		 M102.761,231.826c0,0.52,0.077,1.021,0.08,1.54H15.902c2.625-52.028,22.447-99.535,54.148-136.833
		c9.538,3.016,31.52,9.457,62.135,15.341C115.334,145.501,102.761,185.787,102.761,231.826z M103.642,248.679
		c3.017,43.68,17.089,84.268,34.953,119.141c-24.24,4.508-48.806,10.942-73.205,19.947c-30.537-38.339-49.054-86.57-49.892-139.088
		H103.642z M268.493,473.493c15.967-16.948,43.424-49.181,67.059-91.022c38.134,6.156,66.216,14.124,78.177,17.841
		C376.718,440.49,325.782,467.647,268.493,473.493z M408.808,84.278c-21.6,7.311-43.28,12.685-64.678,16.46
		c-20.895-37.81-46.479-65.908-63.742-82.41C330.291,26.098,374.95,49.775,408.808,84.278z M200.16,19.774
		c-16.752,16.228-40.619,42.782-60.554,77.949c-26.196-4.852-46.396-10.241-58.166-13.72
		C113.127,51.816,154.175,28.915,200.16,19.774z"/>
</g>
<g>
</g>
<g>
</g>
<g>
</g>
<g>
</g>
<g>
</g>
<g>
</g>
<g>
</g>
<g>
</g>
<g>
</g>
<g>
</g>
<g>
</g>
<g>
</g>
<g>
</g>
<g>
</g>
<g>
</g>
</svg>
