<?xml version="1.0" encoding="iso-8859-1"?>
<!-- Generator: Adobe Illustrator 19.0.0, SVG Export Plug-In . SVG Version: 6.00 Build 0)  -->
<svg version="1.1" id="Capa_1" xmlns="http://www.w3.org/2000/svg" xmlns:xlink="http://www.w3.org/1999/xlink" x="0px" y="0px"
	 viewBox="0 0 490.049 490.049" style="enable-background:new 0 0 490.049 490.049;" xml:space="preserve">
<g>
	<path d="M397.612,282.08l-1.569,2.153c-0.179,0.254-19.911,26.771-86.623,73.543c-73.693,51.645-35.979,127.355-35.576,128.118
		l2.123,4.155h67.205l0.389-7.235c1.659-30.733,26.532-49.089,58.027-72.317c15.71-11.585,33.513-24.724,50.21-40.972
		c52.153-50.778,36.039-132.677,35.337-136.145l-1.599-7.773l-7.713,1.883c-26.996,6.562-29.088,24.021-31.495,44.216
		c-1.256,10.404-2.661,22.197-7.16,36.204c-4.783,14.933-15.052,25.621-25.785,33.094c6.218-7.833,12.511-17.011,17.773-27.265
		c6.129-11.928,6.592-21.211,1.375-27.594c-8.715-10.718-28.491-5.875-32.332-4.798L397.612,282.08z M420.676,295.817
		c0.015,0.015,1.166,2.556-3.124,10.927c-15.561,30.299-41.854,51.062-42.123,51.256l-25.68,20.075l31.928-6.532
		c2.317-0.478,57.071-12.197,72.078-58.969c4.933-15.396,6.502-28.505,7.758-39.044c1.898-15.905,2.855-23.782,11.884-28.371
		c2.422,21.42,4.574,77.519-32.272,113.394c-15.949,15.531-32.556,27.788-48.625,39.627c-31.181,23.005-58.371,43.065-63.483,76.563
		h-43.438c-6.114-14.948-21.719-66.353,32.631-104.44c58.745-41.181,82.138-67.116,88.416-74.769
		C413.083,294.173,419.57,294.472,420.676,295.817z"/>
	<path d="M88.461,410.497c31.495,23.229,56.368,41.585,58.027,72.317l0.389,7.235h67.205l2.123-4.155
		c0.404-0.762,38.117-76.473-35.576-128.118c-66.712-46.772-86.443-73.289-86.623-73.543l-1.584-2.182l-2.571-0.703
		c-3.856-1.076-23.617-5.919-32.332,4.798c-5.217,6.383-4.753,15.665,1.375,27.594c5.262,10.254,11.555,19.432,17.773,27.265
		c-10.732-7.474-21.002-18.161-25.785-33.094c-4.499-14.006-5.904-25.8-7.16-36.204c-2.407-20.195-4.499-37.654-31.495-44.216
		l-7.713-1.883l-1.599,7.773c-0.702,3.468-16.816,85.367,35.337,136.145C54.948,385.773,72.751,398.912,88.461,410.497z
		 M16.652,245.159c9.028,4.589,9.985,12.466,11.884,28.371c1.256,10.538,2.825,23.647,7.758,39.044
		c15.008,46.772,69.761,58.491,72.078,58.969l32.063,6.562L114.62,358c-0.269-0.209-26.487-20.837-42.123-51.256
		c-4.29-8.371-3.139-10.912-3.124-10.927c1.106-1.345,7.593-1.644,14.051-0.284c6.278,7.653,29.671,33.588,88.416,74.769
		c54.111,37.923,38.67,89.433,32.601,104.44h-43.408c-5.112-33.498-32.302-53.558-63.483-76.563
		c-16.069-11.839-32.676-24.096-48.625-39.627C12.078,322.678,14.23,266.579,16.652,245.159z"/>
	<path d="M214.108,129.203H158.68v21.316h66.104v30.691H158.68v21.334h66.104v74.609h35.378v-74.609h66.536V181.21h-66.536V150.52
		h66.536v-21.316h-55.444L347.565,0h-39.232l-46.036,86.986c-7.256,14.495-12.794,27.723-17.046,39.648h-1.285
		c-5.121-12.777-10.242-24.303-17.065-38.798L182.567,0h-40.083L214.108,129.203z"/>
</g>
<g>
</g>
<g>
</g>
<g>
</g>
<g>
</g>
<g>
</g>
<g>
</g>
<g>
</g>
<g>
</g>
<g>
</g>
<g>
</g>
<g>
</g>
<g>
</g>
<g>
</g>
<g>
</g>
<g>
</g>
</svg>
