<?xml version="1.0" encoding="iso-8859-1"?>
<!-- Generator: Adobe Illustrator 19.0.0, SVG Export Plug-In . SVG Version: 6.00 Build 0)  -->
<svg version="1.1" id="Capa_1" xmlns="http://www.w3.org/2000/svg" xmlns:xlink="http://www.w3.org/1999/xlink" x="0px" y="0px"
	 viewBox="0 0 490 490" style="enable-background:new 0 0 490 490;" xml:space="preserve">
<g>
	<path d="M245,490c135.31,0,245-109.69,245-245S380.31,0,245,0C109.689,0,0,109.69,0,245S109.689,490,245,490z M245,15.313
		c126.65,0,229.688,103.037,229.688,229.688c0,126.65-103.038,229.688-229.688,229.688C118.349,474.688,15.313,371.65,15.313,245
		C15.313,118.349,118.349,15.313,245,15.313z"/>
	<path d="M269.143,405.781h37.455c1.873-34.636,41.202-47.397,74.912-80.211c33.71-32.814,22.473-87.503,22.473-87.503
		c-22.473,5.469-13.11,21.876-22.473,51.043c-9.364,29.168-44.947,36.46-44.947,36.46s18.728-14.583,29.964-36.46
		c11.238-21.875-14.982-14.584-14.982-14.584s-13.11,18.229-59.929,51.043C244.796,358.384,269.143,405.781,269.143,405.781z"/>
	<path d="M183.402,405.781h37.455c0,0,24.346-47.397-22.473-80.211c-46.82-32.814-59.929-51.043-59.929-51.043
		s-26.218-7.292-14.982,14.584c11.237,21.876,29.964,36.46,29.964,36.46s-35.583-7.292-44.947-36.46
		c-9.364-29.167,0-45.574-22.473-51.043c0,0-11.237,54.689,22.473,87.503C142.201,358.384,181.529,371.145,183.402,405.781z"/>
	<path d="M197.872,156.139h-7.453h-15.313v15.313v11.987v15.313v1.946v11.997v15.313h15.313h26.474v26.641v15.313h15.313h22.363
		h15.312v-15.313v-26.641h26.748h15.313v-15.313v-11.997v-1.946v-15.313v-11.987v-15.313h-15.313h-6.501l32.448-48.87l15.79-23.783
		h-28.547h-24.8h-8.708l-4.452,7.483l-27.222,45.756l-25.802-45.483l-4.401-7.756h-8.917h-25.337h-27.585l14.589,23.412
		L197.872,156.139z M205.518,98.799l28.026,49.393c4.312,8.151,7.55,14.632,10.787,21.816h0.811
		c2.689-6.707,6.19-14.144,10.776-22.295l29.102-48.914h24.8l-48.238,72.653h35.048v11.987h-42.061v17.258h42.061v11.997h-42.061
		v41.953h-22.363v-41.953h-41.787v-11.997h41.787v-17.258h-41.787v-11.987h35.038l-45.276-72.653H205.518z"/>
</g>
<g>
</g>
<g>
</g>
<g>
</g>
<g>
</g>
<g>
</g>
<g>
</g>
<g>
</g>
<g>
</g>
<g>
</g>
<g>
</g>
<g>
</g>
<g>
</g>
<g>
</g>
<g>
</g>
<g>
</g>
</svg>
